<?xml version="1.0" encoding="utf-8" standalone="no"?>
<!DOCTYPE svg PUBLIC "-//W3C//DTD SVG 1.1//EN"
  "http://www.w3.org/Graphics/SVG/1.1/DTD/svg11.dtd">
<svg xmlns:xlink="http://www.w3.org/1999/xlink" width="720pt" height="864pt" viewBox="0 0 720 864" xmlns="http://www.w3.org/2000/svg" version="1.1">
 <metadata>
  <rdf:RDF xmlns:dc="http://purl.org/dc/elements/1.1/" xmlns:cc="http://creativecommons.org/ns#" xmlns:rdf="http://www.w3.org/1999/02/22-rdf-syntax-ns#">
   <cc:Work>
    <dc:type rdf:resource="http://purl.org/dc/dcmitype/StillImage"/>
    <dc:date>2024-10-15T15:24:40.131994</dc:date>
    <dc:format>image/svg+xml</dc:format>
    <dc:creator>
     <cc:Agent>
      <dc:title>Matplotlib v3.7.1, https://matplotlib.org/</dc:title>
     </cc:Agent>
    </dc:creator>
   </cc:Work>
  </rdf:RDF>
 </metadata>
 <defs>
  <style type="text/css">*{stroke-linejoin: round; stroke-linecap: butt}</style>
 </defs>
 <g id="figure_1">
  <g id="patch_1">
   <path d="M 0 864 
L 720 864 
L 720 0 
L 0 0 
z
" style="fill: #ffffff"/>
  </g>
  <g id="axes_1">
   <g id="patch_2">
    <path d="M 52.04 801.016 
L 478.3 801.016 
L 478.3 30.48 
L 52.04 30.48 
z
" style="fill: #ffffff"/>
   </g>
   <g id="patch_3">
    <path d="M 84.332424 801.016 
L 187.668182 801.016 
L 187.668182 569.060967 
L 84.332424 569.060967 
z
" clip-path="url(#pb36169de02)" style="fill: #4c72b0"/>
   </g>
   <g id="patch_4">
    <path d="M 213.502121 801.016 
L 316.837879 801.016 
L 316.837879 537.233456 
L 213.502121 537.233456 
z
" clip-path="url(#pb36169de02)" style="fill: #4c72b0"/>
   </g>
   <g id="patch_5">
    <path d="M 342.671818 801.016 
L 446.007576 801.016 
L 446.007576 568.740297 
L 342.671818 568.740297 
z
" clip-path="url(#pb36169de02)" style="fill: #4c72b0"/>
   </g>
   <g id="patch_6">
    <path d="M 84.332424 569.060967 
L 187.668182 569.060967 
L 187.668182 325.022091 
L 84.332424 325.022091 
z
" clip-path="url(#pb36169de02)" style="fill: #f6475f"/>
   </g>
   <g id="patch_7">
    <path d="M 213.502121 537.233456 
L 316.837879 537.233456 
L 316.837879 310.041884 
L 213.502121 310.041884 
z
" clip-path="url(#pb36169de02)" style="fill: #f6475f"/>
   </g>
   <g id="patch_8">
    <path d="M 342.671818 568.740297 
L 446.007576 568.740297 
L 446.007576 507.031316 
L 342.671818 507.031316 
z
" clip-path="url(#pb36169de02)" style="fill: #f6475f"/>
   </g>
   <g id="patch_9">
    <path d="M 84.332424 325.022091 
L 187.668182 325.022091 
L 187.668182 218.877611 
L 84.332424 218.877611 
z
" clip-path="url(#pb36169de02)" style="fill: #dd8452"/>
   </g>
   <g id="patch_10">
    <path d="M 213.502121 310.041884 
L 316.837879 310.041884 
L 316.837879 201.937133 
L 213.502121 201.937133 
z
" clip-path="url(#pb36169de02)" style="fill: #dd8452"/>
   </g>
   <g id="patch_11">
    <path d="M 342.671818 507.031316 
L 446.007576 507.031316 
L 446.007576 361.356706 
L 342.671818 361.356706 
z
" clip-path="url(#pb36169de02)" style="fill: #dd8452"/>
   </g>
   <g id="patch_12">
    <path d="M 84.332424 218.877611 
L 187.668182 218.877611 
L 187.668182 188.647109 
L 84.332424 188.647109 
z
" clip-path="url(#pb36169de02)" style="fill: #92f0f0"/>
   </g>
   <g id="patch_13">
    <path d="M 213.502121 201.937133 
L 316.837879 201.937133 
L 316.837879 170.298519 
L 213.502121 170.298519 
z
" clip-path="url(#pb36169de02)" style="fill: #92f0f0"/>
   </g>
   <g id="patch_14">
    <path d="M 342.671818 361.356706 
L 446.007576 361.356706 
L 446.007576 314.80165 
L 342.671818 314.80165 
z
" clip-path="url(#pb36169de02)" style="fill: #92f0f0"/>
   </g>
   <g id="patch_15">
    <path d="M 84.332424 188.647109 
L 187.668182 188.647109 
L 187.668182 175.0843 
L 84.332424 175.0843 
z
" clip-path="url(#pb36169de02)" style="fill: #c5bce0"/>
   </g>
   <g id="patch_16">
    <path d="M 213.502121 170.298519 
L 316.837879 170.298519 
L 316.837879 155.497921 
L 213.502121 155.497921 
z
" clip-path="url(#pb36169de02)" style="fill: #c5bce0"/>
   </g>
   <g id="patch_17">
    <path d="M 342.671818 314.80165 
L 446.007576 314.80165 
L 446.007576 277.173869 
L 342.671818 277.173869 
z
" clip-path="url(#pb36169de02)" style="fill: #c5bce0"/>
   </g>
   <g id="patch_18">
    <path d="M 84.332424 175.0843 
L 187.668182 175.0843 
L 187.668182 166.086469 
L 84.332424 166.086469 
z
" clip-path="url(#pb36169de02)" style="fill: #55a868"/>
   </g>
   <g id="patch_19">
    <path d="M 213.502121 155.497921 
L 316.837879 155.497921 
L 316.837879 147.508986 
L 213.502121 147.508986 
z
" clip-path="url(#pb36169de02)" style="fill: #55a868"/>
   </g>
   <g id="patch_20">
    <path d="M 342.671818 277.173869 
L 446.007576 277.173869 
L 446.007576 226.064671 
L 342.671818 226.064671 
z
" clip-path="url(#pb36169de02)" style="fill: #55a868"/>
   </g>
   <g id="patch_21">
    <path d="M 84.332424 166.086469 
L 187.668182 166.086469 
L 187.668182 155.245659 
L 84.332424 155.245659 
z
" clip-path="url(#pb36169de02)" style="fill: #8c8c8c"/>
   </g>
   <g id="patch_22">
    <path d="M 213.502121 147.508986 
L 316.837879 147.508986 
L 316.837879 137.56083 
L 213.502121 137.56083 
z
" clip-path="url(#pb36169de02)" style="fill: #8c8c8c"/>
   </g>
   <g id="patch_23">
    <path d="M 342.671818 226.064671 
L 446.007576 226.064671 
L 446.007576 199.369726 
L 342.671818 199.369726 
z
" clip-path="url(#pb36169de02)" style="fill: #8c8c8c"/>
   </g>
   <g id="patch_24">
    <path d="M 84.332424 155.245659 
L 187.668182 155.245659 
L 187.668182 144.61382 
L 84.332424 144.61382 
z
" clip-path="url(#pb36169de02)" style="fill: #dd8452"/>
   </g>
   <g id="patch_25">
    <path d="M 213.502121 137.56083 
L 316.837879 137.56083 
L 316.837879 126.900228 
L 213.502121 126.900228 
z
" clip-path="url(#pb36169de02)" style="fill: #dd8452"/>
   </g>
   <g id="patch_26">
    <path d="M 342.671818 199.369726 
L 446.007576 199.369726 
L 446.007576 188.545495 
L 342.671818 188.545495 
z
" clip-path="url(#pb36169de02)" style="fill: #dd8452"/>
   </g>
   <g id="patch_27">
    <path d="M 84.332424 144.61382 
L 187.668182 144.61382 
L 187.668182 134.963463 
L 84.332424 134.963463 
z
" clip-path="url(#pb36169de02)" style="fill: #937860"/>
   </g>
   <g id="patch_28">
    <path d="M 213.502121 126.900228 
L 316.837879 126.900228 
L 316.837879 119.067684 
L 213.502121 119.067684 
z
" clip-path="url(#pb36169de02)" style="fill: #937860"/>
   </g>
   <g id="patch_29">
    <path d="M 342.671818 188.545495 
L 446.007576 188.545495 
L 446.007576 180.168481 
L 342.671818 180.168481 
z
" clip-path="url(#pb36169de02)" style="fill: #937860"/>
   </g>
   <g id="patch_30">
    <path d="M 84.332424 134.963463 
L 187.668182 134.963463 
L 187.668182 125.257831 
L 84.332424 125.257831 
z
" clip-path="url(#pb36169de02)" style="fill: #c44e52"/>
   </g>
   <g id="patch_31">
    <path d="M 213.502121 119.067684 
L 316.837879 119.067684 
L 316.837879 113.459356 
L 213.502121 113.459356 
z
" clip-path="url(#pb36169de02)" style="fill: #c44e52"/>
   </g>
   <g id="patch_32">
    <path d="M 342.671818 180.168481 
L 446.007576 180.168481 
L 446.007576 169.916232 
L 342.671818 169.916232 
z
" clip-path="url(#pb36169de02)" style="fill: #c44e52"/>
   </g>
   <g id="patch_33">
    <path d="M 84.332424 125.257831 
L 187.668182 125.257831 
L 187.668182 118.915938 
L 84.332424 118.915938 
z
" clip-path="url(#pb36169de02)" style="fill: #8172b3"/>
   </g>
   <g id="patch_34">
    <path d="M 213.502121 113.459356 
L 316.837879 113.459356 
L 316.837879 109.47575 
L 213.502121 109.47575 
z
" clip-path="url(#pb36169de02)" style="fill: #8172b3"/>
   </g>
   <g id="patch_35">
    <path d="M 342.671818 169.916232 
L 446.007576 169.916232 
L 446.007576 162.060519 
L 342.671818 162.060519 
z
" clip-path="url(#pb36169de02)" style="fill: #8172b3"/>
   </g>
   <g id="patch_36">
    <path d="M 84.332424 118.915938 
L 187.668182 118.915938 
L 187.668182 114.337479 
L 84.332424 114.337479 
z
" clip-path="url(#pb36169de02)" style="fill: #ffa505"/>
   </g>
   <g id="patch_37">
    <path d="M 213.502121 109.47575 
L 316.837879 109.47575 
L 316.837879 102.95949 
L 213.502121 102.95949 
z
" clip-path="url(#pb36169de02)" style="fill: #ffa505"/>
   </g>
   <g id="patch_38">
    <path d="M 342.671818 162.060519 
L 446.007576 162.060519 
L 446.007576 155.305329 
L 342.671818 155.305329 
z
" clip-path="url(#pb36169de02)" style="fill: #ffa505"/>
   </g>
   <g id="patch_39">
    <path d="M 84.332424 114.337479 
L 187.668182 114.337479 
L 187.668182 110.358965 
L 84.332424 110.358965 
z
" clip-path="url(#pb36169de02)" style="fill: #4c72b0"/>
   </g>
   <g id="patch_40">
    <path d="M 213.502121 102.95949 
L 316.837879 102.95949 
L 316.837879 98.519745 
L 213.502121 98.519745 
z
" clip-path="url(#pb36169de02)" style="fill: #4c72b0"/>
   </g>
   <g id="patch_41">
    <path d="M 342.671818 155.305329 
L 446.007576 155.305329 
L 446.007576 148.30397 
L 342.671818 148.30397 
z
" clip-path="url(#pb36169de02)" style="fill: #4c72b0"/>
   </g>
   <g id="patch_42">
    <path d="M 84.332424 110.358965 
L 187.668182 110.358965 
L 187.668182 107.000619 
L 84.332424 107.000619 
z
" clip-path="url(#pb36169de02)" style="fill: #55a868"/>
   </g>
   <g id="patch_43">
    <path d="M 213.502121 98.519745 
L 316.837879 98.519745 
L 316.837879 95.522265 
L 213.502121 95.522265 
z
" clip-path="url(#pb36169de02)" style="fill: #55a868"/>
   </g>
   <g id="patch_44">
    <path d="M 342.671818 148.30397 
L 446.007576 148.30397 
L 446.007576 142.04112 
L 342.671818 142.04112 
z
" clip-path="url(#pb36169de02)" style="fill: #55a868"/>
   </g>
   <g id="patch_45">
    <path d="M 84.332424 107.000619 
L 187.668182 107.000619 
L 187.668182 103.755522 
L 84.332424 103.755522 
z
" clip-path="url(#pb36169de02)" style="fill: #c44e52"/>
   </g>
   <g id="patch_46">
    <path d="M 213.502121 95.522265 
L 316.837879 95.522265 
L 316.837879 94.353682 
L 213.502121 94.353682 
z
" clip-path="url(#pb36169de02)" style="fill: #c44e52"/>
   </g>
   <g id="patch_47">
    <path d="M 342.671818 142.04112 
L 446.007576 142.04112 
L 446.007576 135.343853 
L 342.671818 135.343853 
z
" clip-path="url(#pb36169de02)" style="fill: #c44e52"/>
   </g>
   <g id="patch_48">
    <path d="M 84.332424 103.755522 
L 187.668182 103.755522 
L 187.668182 67.665778 
L 84.332424 67.665778 
z
" clip-path="url(#pb36169de02)" style="fill: #ededed"/>
   </g>
   <g id="patch_49">
    <path d="M 213.502121 94.353682 
L 316.837879 94.353682 
L 316.837879 67.17219 
L 213.502121 67.17219 
z
" clip-path="url(#pb36169de02)" style="fill: #ededed"/>
   </g>
   <g id="patch_50">
    <path d="M 342.671818 135.343853 
L 446.007576 135.343853 
L 446.007576 71.875482 
L 342.671818 71.875482 
z
" clip-path="url(#pb36169de02)" style="fill: #ededed"/>
   </g>
   <g id="matplotlib.axis_1">
    <g id="xtick_1">
     <g id="line2d_1">
      <defs>
       <path id="mf975f9c1fd" d="M 0 0 
L 0 3.5 
" style="stroke: #000000; stroke-width: 0.8"/>
      </defs>
      <g>
       <use xlink:href="#mf975f9c1fd" x="136.000303" y="801.016" style="stroke: #000000; stroke-width: 0.8"/>
      </g>
     </g>
     <g id="text_1">
      <!-- Acne -->
      <g transform="translate(116.276553 820.1735) scale(0.16 -0.16)">
       <defs>
        <path id="DejaVuSans-41" d="M 2188 4044 
L 1331 1722 
L 3047 1722 
L 2188 4044 
z
M 1831 4666 
L 2547 4666 
L 4325 0 
L 3669 0 
L 3244 1197 
L 1141 1197 
L 716 0 
L 50 0 
L 1831 4666 
z
" transform="scale(0.015625)"/>
        <path id="DejaVuSans-63" d="M 3122 3366 
L 3122 2828 
Q 2878 2963 2633 3030 
Q 2388 3097 2138 3097 
Q 1578 3097 1268 2742 
Q 959 2388 959 1747 
Q 959 1106 1268 751 
Q 1578 397 2138 397 
Q 2388 397 2633 464 
Q 2878 531 3122 666 
L 3122 134 
Q 2881 22 2623 -34 
Q 2366 -91 2075 -91 
Q 1284 -91 818 406 
Q 353 903 353 1747 
Q 353 2603 823 3093 
Q 1294 3584 2113 3584 
Q 2378 3584 2631 3529 
Q 2884 3475 3122 3366 
z
" transform="scale(0.015625)"/>
        <path id="DejaVuSans-6e" d="M 3513 2113 
L 3513 0 
L 2938 0 
L 2938 2094 
Q 2938 2591 2744 2837 
Q 2550 3084 2163 3084 
Q 1697 3084 1428 2787 
Q 1159 2491 1159 1978 
L 1159 0 
L 581 0 
L 581 3500 
L 1159 3500 
L 1159 2956 
Q 1366 3272 1645 3428 
Q 1925 3584 2291 3584 
Q 2894 3584 3203 3211 
Q 3513 2838 3513 2113 
z
" transform="scale(0.015625)"/>
        <path id="DejaVuSans-65" d="M 3597 1894 
L 3597 1613 
L 953 1613 
Q 991 1019 1311 708 
Q 1631 397 2203 397 
Q 2534 397 2845 478 
Q 3156 559 3463 722 
L 3463 178 
Q 3153 47 2828 -22 
Q 2503 -91 2169 -91 
Q 1331 -91 842 396 
Q 353 884 353 1716 
Q 353 2575 817 3079 
Q 1281 3584 2069 3584 
Q 2775 3584 3186 3129 
Q 3597 2675 3597 1894 
z
M 3022 2063 
Q 3016 2534 2758 2815 
Q 2500 3097 2075 3097 
Q 1594 3097 1305 2825 
Q 1016 2553 972 2059 
L 3022 2063 
z
" transform="scale(0.015625)"/>
       </defs>
       <use xlink:href="#DejaVuSans-41"/>
       <use xlink:href="#DejaVuSans-63" x="66.658203"/>
       <use xlink:href="#DejaVuSans-6e" x="121.638672"/>
       <use xlink:href="#DejaVuSans-65" x="185.017578"/>
      </g>
      <!-- Lesional -->
      <g transform="translate(103.280303 838.09) scale(0.16 -0.16)">
       <defs>
        <path id="DejaVuSans-4c" d="M 628 4666 
L 1259 4666 
L 1259 531 
L 3531 531 
L 3531 0 
L 628 0 
L 628 4666 
z
" transform="scale(0.015625)"/>
        <path id="DejaVuSans-73" d="M 2834 3397 
L 2834 2853 
Q 2591 2978 2328 3040 
Q 2066 3103 1784 3103 
Q 1356 3103 1142 2972 
Q 928 2841 928 2578 
Q 928 2378 1081 2264 
Q 1234 2150 1697 2047 
L 1894 2003 
Q 2506 1872 2764 1633 
Q 3022 1394 3022 966 
Q 3022 478 2636 193 
Q 2250 -91 1575 -91 
Q 1294 -91 989 -36 
Q 684 19 347 128 
L 347 722 
Q 666 556 975 473 
Q 1284 391 1588 391 
Q 1994 391 2212 530 
Q 2431 669 2431 922 
Q 2431 1156 2273 1281 
Q 2116 1406 1581 1522 
L 1381 1569 
Q 847 1681 609 1914 
Q 372 2147 372 2553 
Q 372 3047 722 3315 
Q 1072 3584 1716 3584 
Q 2034 3584 2315 3537 
Q 2597 3491 2834 3397 
z
" transform="scale(0.015625)"/>
        <path id="DejaVuSans-69" d="M 603 3500 
L 1178 3500 
L 1178 0 
L 603 0 
L 603 3500 
z
M 603 4863 
L 1178 4863 
L 1178 4134 
L 603 4134 
L 603 4863 
z
" transform="scale(0.015625)"/>
        <path id="DejaVuSans-6f" d="M 1959 3097 
Q 1497 3097 1228 2736 
Q 959 2375 959 1747 
Q 959 1119 1226 758 
Q 1494 397 1959 397 
Q 2419 397 2687 759 
Q 2956 1122 2956 1747 
Q 2956 2369 2687 2733 
Q 2419 3097 1959 3097 
z
M 1959 3584 
Q 2709 3584 3137 3096 
Q 3566 2609 3566 1747 
Q 3566 888 3137 398 
Q 2709 -91 1959 -91 
Q 1206 -91 779 398 
Q 353 888 353 1747 
Q 353 2609 779 3096 
Q 1206 3584 1959 3584 
z
" transform="scale(0.015625)"/>
        <path id="DejaVuSans-61" d="M 2194 1759 
Q 1497 1759 1228 1600 
Q 959 1441 959 1056 
Q 959 750 1161 570 
Q 1363 391 1709 391 
Q 2188 391 2477 730 
Q 2766 1069 2766 1631 
L 2766 1759 
L 2194 1759 
z
M 3341 1997 
L 3341 0 
L 2766 0 
L 2766 531 
Q 2569 213 2275 61 
Q 1981 -91 1556 -91 
Q 1019 -91 701 211 
Q 384 513 384 1019 
Q 384 1609 779 1909 
Q 1175 2209 1959 2209 
L 2766 2209 
L 2766 2266 
Q 2766 2663 2505 2880 
Q 2244 3097 1772 3097 
Q 1472 3097 1187 3025 
Q 903 2953 641 2809 
L 641 3341 
Q 956 3463 1253 3523 
Q 1550 3584 1831 3584 
Q 2591 3584 2966 3190 
Q 3341 2797 3341 1997 
z
" transform="scale(0.015625)"/>
        <path id="DejaVuSans-6c" d="M 603 4863 
L 1178 4863 
L 1178 0 
L 603 0 
L 603 4863 
z
" transform="scale(0.015625)"/>
       </defs>
       <use xlink:href="#DejaVuSans-4c"/>
       <use xlink:href="#DejaVuSans-65" x="53.962891"/>
       <use xlink:href="#DejaVuSans-73" x="115.486328"/>
       <use xlink:href="#DejaVuSans-69" x="167.585938"/>
       <use xlink:href="#DejaVuSans-6f" x="195.369141"/>
       <use xlink:href="#DejaVuSans-6e" x="256.550781"/>
       <use xlink:href="#DejaVuSans-61" x="319.929688"/>
       <use xlink:href="#DejaVuSans-6c" x="381.208984"/>
      </g>
     </g>
    </g>
    <g id="xtick_2">
     <g id="line2d_2">
      <g>
       <use xlink:href="#mf975f9c1fd" x="265.17" y="801.016" style="stroke: #000000; stroke-width: 0.8"/>
      </g>
     </g>
     <g id="text_2">
      <!-- Acne -->
      <g transform="translate(245.44625 820.1735) scale(0.16 -0.16)">
       <use xlink:href="#DejaVuSans-41"/>
       <use xlink:href="#DejaVuSans-63" x="66.658203"/>
       <use xlink:href="#DejaVuSans-6e" x="121.638672"/>
       <use xlink:href="#DejaVuSans-65" x="185.017578"/>
      </g>
      <!-- Non-lesional -->
      <g transform="translate(215.70875 838.09) scale(0.16 -0.16)">
       <defs>
        <path id="DejaVuSans-4e" d="M 628 4666 
L 1478 4666 
L 3547 763 
L 3547 4666 
L 4159 4666 
L 4159 0 
L 3309 0 
L 1241 3903 
L 1241 0 
L 628 0 
L 628 4666 
z
" transform="scale(0.015625)"/>
        <path id="DejaVuSans-2d" d="M 313 2009 
L 1997 2009 
L 1997 1497 
L 313 1497 
L 313 2009 
z
" transform="scale(0.015625)"/>
       </defs>
       <use xlink:href="#DejaVuSans-4e"/>
       <use xlink:href="#DejaVuSans-6f" x="74.804688"/>
       <use xlink:href="#DejaVuSans-6e" x="135.986328"/>
       <use xlink:href="#DejaVuSans-2d" x="199.365234"/>
       <use xlink:href="#DejaVuSans-6c" x="235.449219"/>
       <use xlink:href="#DejaVuSans-65" x="263.232422"/>
       <use xlink:href="#DejaVuSans-73" x="324.755859"/>
       <use xlink:href="#DejaVuSans-69" x="376.855469"/>
       <use xlink:href="#DejaVuSans-6f" x="404.638672"/>
       <use xlink:href="#DejaVuSans-6e" x="465.820312"/>
       <use xlink:href="#DejaVuSans-61" x="529.199219"/>
       <use xlink:href="#DejaVuSans-6c" x="590.478516"/>
      </g>
     </g>
    </g>
    <g id="xtick_3">
     <g id="line2d_3">
      <g>
       <use xlink:href="#mf975f9c1fd" x="394.339697" y="801.016" style="stroke: #000000; stroke-width: 0.8"/>
      </g>
     </g>
     <g id="text_3">
      <!-- Healthy -->
      <g transform="translate(363.334697 820.1735) scale(0.16 -0.16)">
       <defs>
        <path id="DejaVuSans-48" d="M 628 4666 
L 1259 4666 
L 1259 2753 
L 3553 2753 
L 3553 4666 
L 4184 4666 
L 4184 0 
L 3553 0 
L 3553 2222 
L 1259 2222 
L 1259 0 
L 628 0 
L 628 4666 
z
" transform="scale(0.015625)"/>
        <path id="DejaVuSans-74" d="M 1172 4494 
L 1172 3500 
L 2356 3500 
L 2356 3053 
L 1172 3053 
L 1172 1153 
Q 1172 725 1289 603 
Q 1406 481 1766 481 
L 2356 481 
L 2356 0 
L 1766 0 
Q 1100 0 847 248 
Q 594 497 594 1153 
L 594 3053 
L 172 3053 
L 172 3500 
L 594 3500 
L 594 4494 
L 1172 4494 
z
" transform="scale(0.015625)"/>
        <path id="DejaVuSans-68" d="M 3513 2113 
L 3513 0 
L 2938 0 
L 2938 2094 
Q 2938 2591 2744 2837 
Q 2550 3084 2163 3084 
Q 1697 3084 1428 2787 
Q 1159 2491 1159 1978 
L 1159 0 
L 581 0 
L 581 4863 
L 1159 4863 
L 1159 2956 
Q 1366 3272 1645 3428 
Q 1925 3584 2291 3584 
Q 2894 3584 3203 3211 
Q 3513 2838 3513 2113 
z
" transform="scale(0.015625)"/>
        <path id="DejaVuSans-79" d="M 2059 -325 
Q 1816 -950 1584 -1140 
Q 1353 -1331 966 -1331 
L 506 -1331 
L 506 -850 
L 844 -850 
Q 1081 -850 1212 -737 
Q 1344 -625 1503 -206 
L 1606 56 
L 191 3500 
L 800 3500 
L 1894 763 
L 2988 3500 
L 3597 3500 
L 2059 -325 
z
" transform="scale(0.015625)"/>
       </defs>
       <use xlink:href="#DejaVuSans-48"/>
       <use xlink:href="#DejaVuSans-65" x="75.195312"/>
       <use xlink:href="#DejaVuSans-61" x="136.71875"/>
       <use xlink:href="#DejaVuSans-6c" x="197.998047"/>
       <use xlink:href="#DejaVuSans-74" x="225.78125"/>
       <use xlink:href="#DejaVuSans-68" x="264.990234"/>
       <use xlink:href="#DejaVuSans-79" x="328.369141"/>
      </g>
     </g>
    </g>
    <g id="text_4">
     <!--   -->
     <g transform="translate(263.580938 853.015937) scale(0.1 -0.1)">
      <defs>
       <path id="DejaVuSans-20" transform="scale(0.015625)"/>
      </defs>
      <use xlink:href="#DejaVuSans-20"/>
     </g>
    </g>
   </g>
   <g id="matplotlib.axis_2">
    <g id="ytick_1">
     <g id="line2d_4">
      <defs>
       <path id="mb4d6077f88" d="M 0 0 
L -3.5 0 
" style="stroke: #000000; stroke-width: 0.8"/>
      </defs>
      <g>
       <use xlink:href="#mb4d6077f88" x="52.04" y="801.016" style="stroke: #000000; stroke-width: 0.8"/>
      </g>
     </g>
     <g id="text_5">
      <!-- 0.0 -->
      <g transform="translate(29.136875 804.815219) scale(0.1 -0.1)">
       <defs>
        <path id="DejaVuSans-30" d="M 2034 4250 
Q 1547 4250 1301 3770 
Q 1056 3291 1056 2328 
Q 1056 1369 1301 889 
Q 1547 409 2034 409 
Q 2525 409 2770 889 
Q 3016 1369 3016 2328 
Q 3016 3291 2770 3770 
Q 2525 4250 2034 4250 
z
M 2034 4750 
Q 2819 4750 3233 4129 
Q 3647 3509 3647 2328 
Q 3647 1150 3233 529 
Q 2819 -91 2034 -91 
Q 1250 -91 836 529 
Q 422 1150 422 2328 
Q 422 3509 836 4129 
Q 1250 4750 2034 4750 
z
" transform="scale(0.015625)"/>
        <path id="DejaVuSans-2e" d="M 684 794 
L 1344 794 
L 1344 0 
L 684 0 
L 684 794 
z
" transform="scale(0.015625)"/>
       </defs>
       <use xlink:href="#DejaVuSans-30"/>
       <use xlink:href="#DejaVuSans-2e" x="63.623047"/>
       <use xlink:href="#DejaVuSans-30" x="95.410156"/>
      </g>
     </g>
    </g>
    <g id="ytick_2">
     <g id="line2d_5">
      <g>
       <use xlink:href="#mb4d6077f88" x="52.04" y="653.657299" style="stroke: #000000; stroke-width: 0.8"/>
      </g>
     </g>
     <g id="text_6">
      <!-- 0.2 -->
      <g transform="translate(29.136875 657.456518) scale(0.1 -0.1)">
       <defs>
        <path id="DejaVuSans-32" d="M 1228 531 
L 3431 531 
L 3431 0 
L 469 0 
L 469 531 
Q 828 903 1448 1529 
Q 2069 2156 2228 2338 
Q 2531 2678 2651 2914 
Q 2772 3150 2772 3378 
Q 2772 3750 2511 3984 
Q 2250 4219 1831 4219 
Q 1534 4219 1204 4116 
Q 875 4013 500 3803 
L 500 4441 
Q 881 4594 1212 4672 
Q 1544 4750 1819 4750 
Q 2544 4750 2975 4387 
Q 3406 4025 3406 3419 
Q 3406 3131 3298 2873 
Q 3191 2616 2906 2266 
Q 2828 2175 2409 1742 
Q 1991 1309 1228 531 
z
" transform="scale(0.015625)"/>
       </defs>
       <use xlink:href="#DejaVuSans-30"/>
       <use xlink:href="#DejaVuSans-2e" x="63.623047"/>
       <use xlink:href="#DejaVuSans-32" x="95.410156"/>
      </g>
     </g>
    </g>
    <g id="ytick_3">
     <g id="line2d_6">
      <g>
       <use xlink:href="#mb4d6077f88" x="52.04" y="506.298599" style="stroke: #000000; stroke-width: 0.8"/>
      </g>
     </g>
     <g id="text_7">
      <!-- 0.4 -->
      <g transform="translate(29.136875 510.097817) scale(0.1 -0.1)">
       <defs>
        <path id="DejaVuSans-34" d="M 2419 4116 
L 825 1625 
L 2419 1625 
L 2419 4116 
z
M 2253 4666 
L 3047 4666 
L 3047 1625 
L 3713 1625 
L 3713 1100 
L 3047 1100 
L 3047 0 
L 2419 0 
L 2419 1100 
L 313 1100 
L 313 1709 
L 2253 4666 
z
" transform="scale(0.015625)"/>
       </defs>
       <use xlink:href="#DejaVuSans-30"/>
       <use xlink:href="#DejaVuSans-2e" x="63.623047"/>
       <use xlink:href="#DejaVuSans-34" x="95.410156"/>
      </g>
     </g>
    </g>
    <g id="ytick_4">
     <g id="line2d_7">
      <g>
       <use xlink:href="#mb4d6077f88" x="52.04" y="358.939898" style="stroke: #000000; stroke-width: 0.8"/>
      </g>
     </g>
     <g id="text_8">
      <!-- 0.6 -->
      <g transform="translate(29.136875 362.739117) scale(0.1 -0.1)">
       <defs>
        <path id="DejaVuSans-36" d="M 2113 2584 
Q 1688 2584 1439 2293 
Q 1191 2003 1191 1497 
Q 1191 994 1439 701 
Q 1688 409 2113 409 
Q 2538 409 2786 701 
Q 3034 994 3034 1497 
Q 3034 2003 2786 2293 
Q 2538 2584 2113 2584 
z
M 3366 4563 
L 3366 3988 
Q 3128 4100 2886 4159 
Q 2644 4219 2406 4219 
Q 1781 4219 1451 3797 
Q 1122 3375 1075 2522 
Q 1259 2794 1537 2939 
Q 1816 3084 2150 3084 
Q 2853 3084 3261 2657 
Q 3669 2231 3669 1497 
Q 3669 778 3244 343 
Q 2819 -91 2113 -91 
Q 1303 -91 875 529 
Q 447 1150 447 2328 
Q 447 3434 972 4092 
Q 1497 4750 2381 4750 
Q 2619 4750 2861 4703 
Q 3103 4656 3366 4563 
z
" transform="scale(0.015625)"/>
       </defs>
       <use xlink:href="#DejaVuSans-30"/>
       <use xlink:href="#DejaVuSans-2e" x="63.623047"/>
       <use xlink:href="#DejaVuSans-36" x="95.410156"/>
      </g>
     </g>
    </g>
    <g id="ytick_5">
     <g id="line2d_8">
      <g>
       <use xlink:href="#mb4d6077f88" x="52.04" y="211.581197" style="stroke: #000000; stroke-width: 0.8"/>
      </g>
     </g>
     <g id="text_9">
      <!-- 0.8 -->
      <g transform="translate(29.136875 215.380416) scale(0.1 -0.1)">
       <defs>
        <path id="DejaVuSans-38" d="M 2034 2216 
Q 1584 2216 1326 1975 
Q 1069 1734 1069 1313 
Q 1069 891 1326 650 
Q 1584 409 2034 409 
Q 2484 409 2743 651 
Q 3003 894 3003 1313 
Q 3003 1734 2745 1975 
Q 2488 2216 2034 2216 
z
M 1403 2484 
Q 997 2584 770 2862 
Q 544 3141 544 3541 
Q 544 4100 942 4425 
Q 1341 4750 2034 4750 
Q 2731 4750 3128 4425 
Q 3525 4100 3525 3541 
Q 3525 3141 3298 2862 
Q 3072 2584 2669 2484 
Q 3125 2378 3379 2068 
Q 3634 1759 3634 1313 
Q 3634 634 3220 271 
Q 2806 -91 2034 -91 
Q 1263 -91 848 271 
Q 434 634 434 1313 
Q 434 1759 690 2068 
Q 947 2378 1403 2484 
z
M 1172 3481 
Q 1172 3119 1398 2916 
Q 1625 2713 2034 2713 
Q 2441 2713 2670 2916 
Q 2900 3119 2900 3481 
Q 2900 3844 2670 4047 
Q 2441 4250 2034 4250 
Q 1625 4250 1398 4047 
Q 1172 3844 1172 3481 
z
" transform="scale(0.015625)"/>
       </defs>
       <use xlink:href="#DejaVuSans-30"/>
       <use xlink:href="#DejaVuSans-2e" x="63.623047"/>
       <use xlink:href="#DejaVuSans-38" x="95.410156"/>
      </g>
     </g>
    </g>
    <g id="ytick_6">
     <g id="line2d_9">
      <g>
       <use xlink:href="#mb4d6077f88" x="52.04" y="64.222497" style="stroke: #000000; stroke-width: 0.8"/>
      </g>
     </g>
     <g id="text_10">
      <!-- 1.0 -->
      <g transform="translate(29.136875 68.021716) scale(0.1 -0.1)">
       <defs>
        <path id="DejaVuSans-31" d="M 794 531 
L 1825 531 
L 1825 4091 
L 703 3866 
L 703 4441 
L 1819 4666 
L 2450 4666 
L 2450 531 
L 3481 531 
L 3481 0 
L 794 0 
L 794 531 
z
" transform="scale(0.015625)"/>
       </defs>
       <use xlink:href="#DejaVuSans-31"/>
       <use xlink:href="#DejaVuSans-2e" x="63.623047"/>
       <use xlink:href="#DejaVuSans-30" x="95.410156"/>
      </g>
     </g>
    </g>
    <g id="text_11">
     <!-- Relative Abundance -->
     <g transform="translate(21.809375 495.61675) rotate(-90) scale(0.16 -0.16)">
      <defs>
       <path id="DejaVuSans-52" d="M 2841 2188 
Q 3044 2119 3236 1894 
Q 3428 1669 3622 1275 
L 4263 0 
L 3584 0 
L 2988 1197 
Q 2756 1666 2539 1819 
Q 2322 1972 1947 1972 
L 1259 1972 
L 1259 0 
L 628 0 
L 628 4666 
L 2053 4666 
Q 2853 4666 3247 4331 
Q 3641 3997 3641 3322 
Q 3641 2881 3436 2590 
Q 3231 2300 2841 2188 
z
M 1259 4147 
L 1259 2491 
L 2053 2491 
Q 2509 2491 2742 2702 
Q 2975 2913 2975 3322 
Q 2975 3731 2742 3939 
Q 2509 4147 2053 4147 
L 1259 4147 
z
" transform="scale(0.015625)"/>
       <path id="DejaVuSans-76" d="M 191 3500 
L 800 3500 
L 1894 563 
L 2988 3500 
L 3597 3500 
L 2284 0 
L 1503 0 
L 191 3500 
z
" transform="scale(0.015625)"/>
       <path id="DejaVuSans-62" d="M 3116 1747 
Q 3116 2381 2855 2742 
Q 2594 3103 2138 3103 
Q 1681 3103 1420 2742 
Q 1159 2381 1159 1747 
Q 1159 1113 1420 752 
Q 1681 391 2138 391 
Q 2594 391 2855 752 
Q 3116 1113 3116 1747 
z
M 1159 2969 
Q 1341 3281 1617 3432 
Q 1894 3584 2278 3584 
Q 2916 3584 3314 3078 
Q 3713 2572 3713 1747 
Q 3713 922 3314 415 
Q 2916 -91 2278 -91 
Q 1894 -91 1617 61 
Q 1341 213 1159 525 
L 1159 0 
L 581 0 
L 581 4863 
L 1159 4863 
L 1159 2969 
z
" transform="scale(0.015625)"/>
       <path id="DejaVuSans-75" d="M 544 1381 
L 544 3500 
L 1119 3500 
L 1119 1403 
Q 1119 906 1312 657 
Q 1506 409 1894 409 
Q 2359 409 2629 706 
Q 2900 1003 2900 1516 
L 2900 3500 
L 3475 3500 
L 3475 0 
L 2900 0 
L 2900 538 
Q 2691 219 2414 64 
Q 2138 -91 1772 -91 
Q 1169 -91 856 284 
Q 544 659 544 1381 
z
M 1991 3584 
L 1991 3584 
z
" transform="scale(0.015625)"/>
       <path id="DejaVuSans-64" d="M 2906 2969 
L 2906 4863 
L 3481 4863 
L 3481 0 
L 2906 0 
L 2906 525 
Q 2725 213 2448 61 
Q 2172 -91 1784 -91 
Q 1150 -91 751 415 
Q 353 922 353 1747 
Q 353 2572 751 3078 
Q 1150 3584 1784 3584 
Q 2172 3584 2448 3432 
Q 2725 3281 2906 2969 
z
M 947 1747 
Q 947 1113 1208 752 
Q 1469 391 1925 391 
Q 2381 391 2643 752 
Q 2906 1113 2906 1747 
Q 2906 2381 2643 2742 
Q 2381 3103 1925 3103 
Q 1469 3103 1208 2742 
Q 947 2381 947 1747 
z
" transform="scale(0.015625)"/>
      </defs>
      <use xlink:href="#DejaVuSans-52"/>
      <use xlink:href="#DejaVuSans-65" x="64.982422"/>
      <use xlink:href="#DejaVuSans-6c" x="126.505859"/>
      <use xlink:href="#DejaVuSans-61" x="154.289062"/>
      <use xlink:href="#DejaVuSans-74" x="215.568359"/>
      <use xlink:href="#DejaVuSans-69" x="254.777344"/>
      <use xlink:href="#DejaVuSans-76" x="282.560547"/>
      <use xlink:href="#DejaVuSans-65" x="341.740234"/>
      <use xlink:href="#DejaVuSans-20" x="403.263672"/>
      <use xlink:href="#DejaVuSans-41" x="435.050781"/>
      <use xlink:href="#DejaVuSans-62" x="503.458984"/>
      <use xlink:href="#DejaVuSans-75" x="566.935547"/>
      <use xlink:href="#DejaVuSans-6e" x="630.314453"/>
      <use xlink:href="#DejaVuSans-64" x="693.693359"/>
      <use xlink:href="#DejaVuSans-61" x="757.169922"/>
      <use xlink:href="#DejaVuSans-6e" x="818.449219"/>
      <use xlink:href="#DejaVuSans-63" x="881.828125"/>
      <use xlink:href="#DejaVuSans-65" x="936.808594"/>
     </g>
    </g>
   </g>
   <g id="patch_51">
    <path d="M 52.04 801.016 
L 52.04 30.48 
" style="fill: none; stroke: #000000; stroke-width: 0.8; stroke-linejoin: miter; stroke-linecap: square"/>
   </g>
   <g id="patch_52">
    <path d="M 478.3 801.016 
L 478.3 30.48 
" style="fill: none; stroke: #000000; stroke-width: 0.8; stroke-linejoin: miter; stroke-linecap: square"/>
   </g>
   <g id="patch_53">
    <path d="M 52.04 801.016 
L 478.3 801.016 
" style="fill: none; stroke: #000000; stroke-width: 0.8; stroke-linejoin: miter; stroke-linecap: square"/>
   </g>
   <g id="patch_54">
    <path d="M 52.04 30.48 
L 478.3 30.48 
" style="fill: none; stroke: #000000; stroke-width: 0.8; stroke-linejoin: miter; stroke-linecap: square"/>
   </g>
   <g id="text_12">
    <!-- 16S rRNA (V4) Family Level Relative Abundance -->
    <g transform="translate(49.376719 24.48) scale(0.18 -0.18)">
     <defs>
      <path id="DejaVuSans-53" d="M 3425 4513 
L 3425 3897 
Q 3066 4069 2747 4153 
Q 2428 4238 2131 4238 
Q 1616 4238 1336 4038 
Q 1056 3838 1056 3469 
Q 1056 3159 1242 3001 
Q 1428 2844 1947 2747 
L 2328 2669 
Q 3034 2534 3370 2195 
Q 3706 1856 3706 1288 
Q 3706 609 3251 259 
Q 2797 -91 1919 -91 
Q 1588 -91 1214 -16 
Q 841 59 441 206 
L 441 856 
Q 825 641 1194 531 
Q 1563 422 1919 422 
Q 2459 422 2753 634 
Q 3047 847 3047 1241 
Q 3047 1584 2836 1778 
Q 2625 1972 2144 2069 
L 1759 2144 
Q 1053 2284 737 2584 
Q 422 2884 422 3419 
Q 422 4038 858 4394 
Q 1294 4750 2059 4750 
Q 2388 4750 2728 4690 
Q 3069 4631 3425 4513 
z
" transform="scale(0.015625)"/>
      <path id="DejaVuSans-72" d="M 2631 2963 
Q 2534 3019 2420 3045 
Q 2306 3072 2169 3072 
Q 1681 3072 1420 2755 
Q 1159 2438 1159 1844 
L 1159 0 
L 581 0 
L 581 3500 
L 1159 3500 
L 1159 2956 
Q 1341 3275 1631 3429 
Q 1922 3584 2338 3584 
Q 2397 3584 2469 3576 
Q 2541 3569 2628 3553 
L 2631 2963 
z
" transform="scale(0.015625)"/>
      <path id="DejaVuSans-28" d="M 1984 4856 
Q 1566 4138 1362 3434 
Q 1159 2731 1159 2009 
Q 1159 1288 1364 580 
Q 1569 -128 1984 -844 
L 1484 -844 
Q 1016 -109 783 600 
Q 550 1309 550 2009 
Q 550 2706 781 3412 
Q 1013 4119 1484 4856 
L 1984 4856 
z
" transform="scale(0.015625)"/>
      <path id="DejaVuSans-56" d="M 1831 0 
L 50 4666 
L 709 4666 
L 2188 738 
L 3669 4666 
L 4325 4666 
L 2547 0 
L 1831 0 
z
" transform="scale(0.015625)"/>
      <path id="DejaVuSans-29" d="M 513 4856 
L 1013 4856 
Q 1481 4119 1714 3412 
Q 1947 2706 1947 2009 
Q 1947 1309 1714 600 
Q 1481 -109 1013 -844 
L 513 -844 
Q 928 -128 1133 580 
Q 1338 1288 1338 2009 
Q 1338 2731 1133 3434 
Q 928 4138 513 4856 
z
" transform="scale(0.015625)"/>
      <path id="DejaVuSans-46" d="M 628 4666 
L 3309 4666 
L 3309 4134 
L 1259 4134 
L 1259 2759 
L 3109 2759 
L 3109 2228 
L 1259 2228 
L 1259 0 
L 628 0 
L 628 4666 
z
" transform="scale(0.015625)"/>
      <path id="DejaVuSans-6d" d="M 3328 2828 
Q 3544 3216 3844 3400 
Q 4144 3584 4550 3584 
Q 5097 3584 5394 3201 
Q 5691 2819 5691 2113 
L 5691 0 
L 5113 0 
L 5113 2094 
Q 5113 2597 4934 2840 
Q 4756 3084 4391 3084 
Q 3944 3084 3684 2787 
Q 3425 2491 3425 1978 
L 3425 0 
L 2847 0 
L 2847 2094 
Q 2847 2600 2669 2842 
Q 2491 3084 2119 3084 
Q 1678 3084 1418 2786 
Q 1159 2488 1159 1978 
L 1159 0 
L 581 0 
L 581 3500 
L 1159 3500 
L 1159 2956 
Q 1356 3278 1631 3431 
Q 1906 3584 2284 3584 
Q 2666 3584 2933 3390 
Q 3200 3197 3328 2828 
z
" transform="scale(0.015625)"/>
     </defs>
     <use xlink:href="#DejaVuSans-31"/>
     <use xlink:href="#DejaVuSans-36" x="63.623047"/>
     <use xlink:href="#DejaVuSans-53" x="127.246094"/>
     <use xlink:href="#DejaVuSans-20" x="190.722656"/>
     <use xlink:href="#DejaVuSans-72" x="222.509766"/>
     <use xlink:href="#DejaVuSans-52" x="263.623047"/>
     <use xlink:href="#DejaVuSans-4e" x="333.105469"/>
     <use xlink:href="#DejaVuSans-41" x="407.910156"/>
     <use xlink:href="#DejaVuSans-20" x="476.318359"/>
     <use xlink:href="#DejaVuSans-28" x="508.105469"/>
     <use xlink:href="#DejaVuSans-56" x="547.119141"/>
     <use xlink:href="#DejaVuSans-34" x="615.527344"/>
     <use xlink:href="#DejaVuSans-29" x="679.150391"/>
     <use xlink:href="#DejaVuSans-20" x="718.164062"/>
     <use xlink:href="#DejaVuSans-46" x="749.951172"/>
     <use xlink:href="#DejaVuSans-61" x="798.345703"/>
     <use xlink:href="#DejaVuSans-6d" x="859.625"/>
     <use xlink:href="#DejaVuSans-69" x="957.037109"/>
     <use xlink:href="#DejaVuSans-6c" x="984.820312"/>
     <use xlink:href="#DejaVuSans-79" x="1012.603516"/>
     <use xlink:href="#DejaVuSans-20" x="1071.783203"/>
     <use xlink:href="#DejaVuSans-4c" x="1103.570312"/>
     <use xlink:href="#DejaVuSans-65" x="1157.533203"/>
     <use xlink:href="#DejaVuSans-76" x="1219.056641"/>
     <use xlink:href="#DejaVuSans-65" x="1278.236328"/>
     <use xlink:href="#DejaVuSans-6c" x="1339.759766"/>
     <use xlink:href="#DejaVuSans-20" x="1367.542969"/>
     <use xlink:href="#DejaVuSans-52" x="1399.330078"/>
     <use xlink:href="#DejaVuSans-65" x="1464.3125"/>
     <use xlink:href="#DejaVuSans-6c" x="1525.835938"/>
     <use xlink:href="#DejaVuSans-61" x="1553.619141"/>
     <use xlink:href="#DejaVuSans-74" x="1614.898438"/>
     <use xlink:href="#DejaVuSans-69" x="1654.107422"/>
     <use xlink:href="#DejaVuSans-76" x="1681.890625"/>
     <use xlink:href="#DejaVuSans-65" x="1741.070312"/>
     <use xlink:href="#DejaVuSans-20" x="1802.59375"/>
     <use xlink:href="#DejaVuSans-41" x="1834.380859"/>
     <use xlink:href="#DejaVuSans-62" x="1902.789062"/>
     <use xlink:href="#DejaVuSans-75" x="1966.265625"/>
     <use xlink:href="#DejaVuSans-6e" x="2029.644531"/>
     <use xlink:href="#DejaVuSans-64" x="2093.023438"/>
     <use xlink:href="#DejaVuSans-61" x="2156.5"/>
     <use xlink:href="#DejaVuSans-6e" x="2217.779297"/>
     <use xlink:href="#DejaVuSans-63" x="2281.158203"/>
     <use xlink:href="#DejaVuSans-65" x="2336.138672"/>
    </g>
   </g>
   <g id="legend_1">
    <g id="patch_55">
     <path d="M 485.3 536.758938 
L 707.128125 536.758938 
Q 709.128125 536.758938 709.128125 534.758938 
L 709.128125 296.737062 
Q 709.128125 294.737062 707.128125 294.737062 
L 485.3 294.737062 
Q 483.3 294.737062 483.3 296.737062 
L 483.3 534.758938 
Q 483.3 536.758938 485.3 536.758938 
z
" style="fill: #ffffff; opacity: 0.8; stroke: #cccccc; stroke-linejoin: miter"/>
    </g>
    <g id="patch_56">
     <path d="M 487.3 306.3355 
L 507.3 306.3355 
L 507.3 299.3355 
L 487.3 299.3355 
z
" style="fill: #4c72b0"/>
    </g>
    <g id="text_13">
     <!--  f__Staphylococcaceae -->
     <g transform="translate(515.3 306.3355) scale(0.1 -0.1)">
      <defs>
       <path id="DejaVuSans-66" d="M 2375 4863 
L 2375 4384 
L 1825 4384 
Q 1516 4384 1395 4259 
Q 1275 4134 1275 3809 
L 1275 3500 
L 2222 3500 
L 2222 3053 
L 1275 3053 
L 1275 0 
L 697 0 
L 697 3053 
L 147 3053 
L 147 3500 
L 697 3500 
L 697 3744 
Q 697 4328 969 4595 
Q 1241 4863 1831 4863 
L 2375 4863 
z
" transform="scale(0.015625)"/>
       <path id="DejaVuSans-5f" d="M 3263 -1063 
L 3263 -1509 
L -63 -1509 
L -63 -1063 
L 3263 -1063 
z
" transform="scale(0.015625)"/>
       <path id="DejaVuSans-70" d="M 1159 525 
L 1159 -1331 
L 581 -1331 
L 581 3500 
L 1159 3500 
L 1159 2969 
Q 1341 3281 1617 3432 
Q 1894 3584 2278 3584 
Q 2916 3584 3314 3078 
Q 3713 2572 3713 1747 
Q 3713 922 3314 415 
Q 2916 -91 2278 -91 
Q 1894 -91 1617 61 
Q 1341 213 1159 525 
z
M 3116 1747 
Q 3116 2381 2855 2742 
Q 2594 3103 2138 3103 
Q 1681 3103 1420 2742 
Q 1159 2381 1159 1747 
Q 1159 1113 1420 752 
Q 1681 391 2138 391 
Q 2594 391 2855 752 
Q 3116 1113 3116 1747 
z
" transform="scale(0.015625)"/>
      </defs>
      <use xlink:href="#DejaVuSans-20"/>
      <use xlink:href="#DejaVuSans-66" x="31.787109"/>
      <use xlink:href="#DejaVuSans-5f" x="66.992188"/>
      <use xlink:href="#DejaVuSans-5f" x="116.992188"/>
      <use xlink:href="#DejaVuSans-53" x="166.992188"/>
      <use xlink:href="#DejaVuSans-74" x="230.46875"/>
      <use xlink:href="#DejaVuSans-61" x="269.677734"/>
      <use xlink:href="#DejaVuSans-70" x="330.957031"/>
      <use xlink:href="#DejaVuSans-68" x="394.433594"/>
      <use xlink:href="#DejaVuSans-79" x="457.8125"/>
      <use xlink:href="#DejaVuSans-6c" x="516.992188"/>
      <use xlink:href="#DejaVuSans-6f" x="544.775391"/>
      <use xlink:href="#DejaVuSans-63" x="605.957031"/>
      <use xlink:href="#DejaVuSans-6f" x="660.9375"/>
      <use xlink:href="#DejaVuSans-63" x="722.119141"/>
      <use xlink:href="#DejaVuSans-63" x="777.099609"/>
      <use xlink:href="#DejaVuSans-61" x="832.080078"/>
      <use xlink:href="#DejaVuSans-63" x="893.359375"/>
      <use xlink:href="#DejaVuSans-65" x="948.339844"/>
      <use xlink:href="#DejaVuSans-61" x="1009.863281"/>
      <use xlink:href="#DejaVuSans-65" x="1071.142578"/>
     </g>
    </g>
    <g id="patch_57">
     <path d="M 487.3 321.29175 
L 507.3 321.29175 
L 507.3 314.29175 
L 487.3 314.29175 
z
" style="fill: #f6475f"/>
    </g>
    <g id="text_14">
     <!--  f__Neisseriaceae -->
     <g transform="translate(515.3 321.29175) scale(0.1 -0.1)">
      <use xlink:href="#DejaVuSans-20"/>
      <use xlink:href="#DejaVuSans-66" x="31.787109"/>
      <use xlink:href="#DejaVuSans-5f" x="66.992188"/>
      <use xlink:href="#DejaVuSans-5f" x="116.992188"/>
      <use xlink:href="#DejaVuSans-4e" x="166.992188"/>
      <use xlink:href="#DejaVuSans-65" x="241.796875"/>
      <use xlink:href="#DejaVuSans-69" x="303.320312"/>
      <use xlink:href="#DejaVuSans-73" x="331.103516"/>
      <use xlink:href="#DejaVuSans-73" x="383.203125"/>
      <use xlink:href="#DejaVuSans-65" x="435.302734"/>
      <use xlink:href="#DejaVuSans-72" x="496.826172"/>
      <use xlink:href="#DejaVuSans-69" x="537.939453"/>
      <use xlink:href="#DejaVuSans-61" x="565.722656"/>
      <use xlink:href="#DejaVuSans-63" x="627.001953"/>
      <use xlink:href="#DejaVuSans-65" x="681.982422"/>
      <use xlink:href="#DejaVuSans-61" x="743.505859"/>
      <use xlink:href="#DejaVuSans-65" x="804.785156"/>
     </g>
    </g>
    <g id="patch_58">
     <path d="M 487.3 336.248 
L 507.3 336.248 
L 507.3 329.248 
L 487.3 329.248 
z
" style="fill: #dd8452"/>
    </g>
    <g id="text_15">
     <!--  f__Corynebacteriaceae -->
     <g transform="translate(515.3 336.248) scale(0.1 -0.1)">
      <defs>
       <path id="DejaVuSans-43" d="M 4122 4306 
L 4122 3641 
Q 3803 3938 3442 4084 
Q 3081 4231 2675 4231 
Q 1875 4231 1450 3742 
Q 1025 3253 1025 2328 
Q 1025 1406 1450 917 
Q 1875 428 2675 428 
Q 3081 428 3442 575 
Q 3803 722 4122 1019 
L 4122 359 
Q 3791 134 3420 21 
Q 3050 -91 2638 -91 
Q 1578 -91 968 557 
Q 359 1206 359 2328 
Q 359 3453 968 4101 
Q 1578 4750 2638 4750 
Q 3056 4750 3426 4639 
Q 3797 4528 4122 4306 
z
" transform="scale(0.015625)"/>
      </defs>
      <use xlink:href="#DejaVuSans-20"/>
      <use xlink:href="#DejaVuSans-66" x="31.787109"/>
      <use xlink:href="#DejaVuSans-5f" x="66.992188"/>
      <use xlink:href="#DejaVuSans-5f" x="116.992188"/>
      <use xlink:href="#DejaVuSans-43" x="166.992188"/>
      <use xlink:href="#DejaVuSans-6f" x="236.816406"/>
      <use xlink:href="#DejaVuSans-72" x="297.998047"/>
      <use xlink:href="#DejaVuSans-79" x="339.111328"/>
      <use xlink:href="#DejaVuSans-6e" x="398.291016"/>
      <use xlink:href="#DejaVuSans-65" x="461.669922"/>
      <use xlink:href="#DejaVuSans-62" x="523.193359"/>
      <use xlink:href="#DejaVuSans-61" x="586.669922"/>
      <use xlink:href="#DejaVuSans-63" x="647.949219"/>
      <use xlink:href="#DejaVuSans-74" x="702.929688"/>
      <use xlink:href="#DejaVuSans-65" x="742.138672"/>
      <use xlink:href="#DejaVuSans-72" x="803.662109"/>
      <use xlink:href="#DejaVuSans-69" x="844.775391"/>
      <use xlink:href="#DejaVuSans-61" x="872.558594"/>
      <use xlink:href="#DejaVuSans-63" x="933.837891"/>
      <use xlink:href="#DejaVuSans-65" x="988.818359"/>
      <use xlink:href="#DejaVuSans-61" x="1050.341797"/>
      <use xlink:href="#DejaVuSans-65" x="1111.621094"/>
     </g>
    </g>
    <g id="patch_59">
     <path d="M 487.3 351.20425 
L 507.3 351.20425 
L 507.3 344.20425 
L 487.3 344.20425 
z
" style="fill: #92f0f0"/>
    </g>
    <g id="text_16">
     <!--  f__Streptococcaceae -->
     <g transform="translate(515.3 351.20425) scale(0.1 -0.1)">
      <use xlink:href="#DejaVuSans-20"/>
      <use xlink:href="#DejaVuSans-66" x="31.787109"/>
      <use xlink:href="#DejaVuSans-5f" x="66.992188"/>
      <use xlink:href="#DejaVuSans-5f" x="116.992188"/>
      <use xlink:href="#DejaVuSans-53" x="166.992188"/>
      <use xlink:href="#DejaVuSans-74" x="230.46875"/>
      <use xlink:href="#DejaVuSans-72" x="269.677734"/>
      <use xlink:href="#DejaVuSans-65" x="308.541016"/>
      <use xlink:href="#DejaVuSans-70" x="370.064453"/>
      <use xlink:href="#DejaVuSans-74" x="433.541016"/>
      <use xlink:href="#DejaVuSans-6f" x="472.75"/>
      <use xlink:href="#DejaVuSans-63" x="533.931641"/>
      <use xlink:href="#DejaVuSans-6f" x="588.912109"/>
      <use xlink:href="#DejaVuSans-63" x="650.09375"/>
      <use xlink:href="#DejaVuSans-63" x="705.074219"/>
      <use xlink:href="#DejaVuSans-61" x="760.054688"/>
      <use xlink:href="#DejaVuSans-63" x="821.333984"/>
      <use xlink:href="#DejaVuSans-65" x="876.314453"/>
      <use xlink:href="#DejaVuSans-61" x="937.837891"/>
      <use xlink:href="#DejaVuSans-65" x="999.117188"/>
     </g>
    </g>
    <g id="patch_60">
     <path d="M 487.3 366.1605 
L 507.3 366.1605 
L 507.3 359.1605 
L 487.3 359.1605 
z
" style="fill: #c5bce0"/>
    </g>
    <g id="text_17">
     <!--  f__Moraxellaceae -->
     <g transform="translate(515.3 366.1605) scale(0.1 -0.1)">
      <defs>
       <path id="DejaVuSans-4d" d="M 628 4666 
L 1569 4666 
L 2759 1491 
L 3956 4666 
L 4897 4666 
L 4897 0 
L 4281 0 
L 4281 4097 
L 3078 897 
L 2444 897 
L 1241 4097 
L 1241 0 
L 628 0 
L 628 4666 
z
" transform="scale(0.015625)"/>
       <path id="DejaVuSans-78" d="M 3513 3500 
L 2247 1797 
L 3578 0 
L 2900 0 
L 1881 1375 
L 863 0 
L 184 0 
L 1544 1831 
L 300 3500 
L 978 3500 
L 1906 2253 
L 2834 3500 
L 3513 3500 
z
" transform="scale(0.015625)"/>
      </defs>
      <use xlink:href="#DejaVuSans-20"/>
      <use xlink:href="#DejaVuSans-66" x="31.787109"/>
      <use xlink:href="#DejaVuSans-5f" x="66.992188"/>
      <use xlink:href="#DejaVuSans-5f" x="116.992188"/>
      <use xlink:href="#DejaVuSans-4d" x="166.992188"/>
      <use xlink:href="#DejaVuSans-6f" x="253.271484"/>
      <use xlink:href="#DejaVuSans-72" x="314.453125"/>
      <use xlink:href="#DejaVuSans-61" x="355.566406"/>
      <use xlink:href="#DejaVuSans-78" x="416.845703"/>
      <use xlink:href="#DejaVuSans-65" x="472.900391"/>
      <use xlink:href="#DejaVuSans-6c" x="534.423828"/>
      <use xlink:href="#DejaVuSans-6c" x="562.207031"/>
      <use xlink:href="#DejaVuSans-61" x="589.990234"/>
      <use xlink:href="#DejaVuSans-63" x="651.269531"/>
      <use xlink:href="#DejaVuSans-65" x="706.25"/>
      <use xlink:href="#DejaVuSans-61" x="767.773438"/>
      <use xlink:href="#DejaVuSans-65" x="829.052734"/>
     </g>
    </g>
    <g id="patch_61">
     <path d="M 487.3 381.11675 
L 507.3 381.11675 
L 507.3 374.11675 
L 487.3 374.11675 
z
" style="fill: #55a868"/>
    </g>
    <g id="text_18">
     <!--  f__Micrococcaceae -->
     <g transform="translate(515.3 381.11675) scale(0.1 -0.1)">
      <use xlink:href="#DejaVuSans-20"/>
      <use xlink:href="#DejaVuSans-66" x="31.787109"/>
      <use xlink:href="#DejaVuSans-5f" x="66.992188"/>
      <use xlink:href="#DejaVuSans-5f" x="116.992188"/>
      <use xlink:href="#DejaVuSans-4d" x="166.992188"/>
      <use xlink:href="#DejaVuSans-69" x="253.271484"/>
      <use xlink:href="#DejaVuSans-63" x="281.054688"/>
      <use xlink:href="#DejaVuSans-72" x="336.035156"/>
      <use xlink:href="#DejaVuSans-6f" x="374.898438"/>
      <use xlink:href="#DejaVuSans-63" x="436.080078"/>
      <use xlink:href="#DejaVuSans-6f" x="491.060547"/>
      <use xlink:href="#DejaVuSans-63" x="552.242188"/>
      <use xlink:href="#DejaVuSans-63" x="607.222656"/>
      <use xlink:href="#DejaVuSans-61" x="662.203125"/>
      <use xlink:href="#DejaVuSans-63" x="723.482422"/>
      <use xlink:href="#DejaVuSans-65" x="778.462891"/>
      <use xlink:href="#DejaVuSans-61" x="839.986328"/>
      <use xlink:href="#DejaVuSans-65" x="901.265625"/>
     </g>
    </g>
    <g id="patch_62">
     <path d="M 487.3 396.073 
L 507.3 396.073 
L 507.3 389.073 
L 487.3 389.073 
z
" style="fill: #8c8c8c"/>
    </g>
    <g id="text_19">
     <!--  f__Pasteurellaceae -->
     <g transform="translate(515.3 396.073) scale(0.1 -0.1)">
      <defs>
       <path id="DejaVuSans-50" d="M 1259 4147 
L 1259 2394 
L 2053 2394 
Q 2494 2394 2734 2622 
Q 2975 2850 2975 3272 
Q 2975 3691 2734 3919 
Q 2494 4147 2053 4147 
L 1259 4147 
z
M 628 4666 
L 2053 4666 
Q 2838 4666 3239 4311 
Q 3641 3956 3641 3272 
Q 3641 2581 3239 2228 
Q 2838 1875 2053 1875 
L 1259 1875 
L 1259 0 
L 628 0 
L 628 4666 
z
" transform="scale(0.015625)"/>
      </defs>
      <use xlink:href="#DejaVuSans-20"/>
      <use xlink:href="#DejaVuSans-66" x="31.787109"/>
      <use xlink:href="#DejaVuSans-5f" x="66.992188"/>
      <use xlink:href="#DejaVuSans-5f" x="116.992188"/>
      <use xlink:href="#DejaVuSans-50" x="166.992188"/>
      <use xlink:href="#DejaVuSans-61" x="222.794922"/>
      <use xlink:href="#DejaVuSans-73" x="284.074219"/>
      <use xlink:href="#DejaVuSans-74" x="336.173828"/>
      <use xlink:href="#DejaVuSans-65" x="375.382812"/>
      <use xlink:href="#DejaVuSans-75" x="436.90625"/>
      <use xlink:href="#DejaVuSans-72" x="500.285156"/>
      <use xlink:href="#DejaVuSans-65" x="539.148438"/>
      <use xlink:href="#DejaVuSans-6c" x="600.671875"/>
      <use xlink:href="#DejaVuSans-6c" x="628.455078"/>
      <use xlink:href="#DejaVuSans-61" x="656.238281"/>
      <use xlink:href="#DejaVuSans-63" x="717.517578"/>
      <use xlink:href="#DejaVuSans-65" x="772.498047"/>
      <use xlink:href="#DejaVuSans-61" x="834.021484"/>
      <use xlink:href="#DejaVuSans-65" x="895.300781"/>
     </g>
    </g>
    <g id="patch_63">
     <path d="M 487.3 411.02925 
L 507.3 411.02925 
L 507.3 404.02925 
L 487.3 404.02925 
z
" style="fill: #dd8452"/>
    </g>
    <g id="text_20">
     <!--  f__Peptostreptococcales-Tissierellales -->
     <g transform="translate(515.3 411.02925) scale(0.1 -0.1)">
      <defs>
       <path id="DejaVuSans-54" d="M -19 4666 
L 3928 4666 
L 3928 4134 
L 2272 4134 
L 2272 0 
L 1638 0 
L 1638 4134 
L -19 4134 
L -19 4666 
z
" transform="scale(0.015625)"/>
      </defs>
      <use xlink:href="#DejaVuSans-20"/>
      <use xlink:href="#DejaVuSans-66" x="31.787109"/>
      <use xlink:href="#DejaVuSans-5f" x="66.992188"/>
      <use xlink:href="#DejaVuSans-5f" x="116.992188"/>
      <use xlink:href="#DejaVuSans-50" x="166.992188"/>
      <use xlink:href="#DejaVuSans-65" x="223.669922"/>
      <use xlink:href="#DejaVuSans-70" x="285.193359"/>
      <use xlink:href="#DejaVuSans-74" x="348.669922"/>
      <use xlink:href="#DejaVuSans-6f" x="387.878906"/>
      <use xlink:href="#DejaVuSans-73" x="449.060547"/>
      <use xlink:href="#DejaVuSans-74" x="501.160156"/>
      <use xlink:href="#DejaVuSans-72" x="540.369141"/>
      <use xlink:href="#DejaVuSans-65" x="579.232422"/>
      <use xlink:href="#DejaVuSans-70" x="640.755859"/>
      <use xlink:href="#DejaVuSans-74" x="704.232422"/>
      <use xlink:href="#DejaVuSans-6f" x="743.441406"/>
      <use xlink:href="#DejaVuSans-63" x="804.623047"/>
      <use xlink:href="#DejaVuSans-6f" x="859.603516"/>
      <use xlink:href="#DejaVuSans-63" x="920.785156"/>
      <use xlink:href="#DejaVuSans-63" x="975.765625"/>
      <use xlink:href="#DejaVuSans-61" x="1030.746094"/>
      <use xlink:href="#DejaVuSans-6c" x="1092.025391"/>
      <use xlink:href="#DejaVuSans-65" x="1119.808594"/>
      <use xlink:href="#DejaVuSans-73" x="1181.332031"/>
      <use xlink:href="#DejaVuSans-2d" x="1233.431641"/>
      <use xlink:href="#DejaVuSans-54" x="1260.390625"/>
      <use xlink:href="#DejaVuSans-69" x="1318.349609"/>
      <use xlink:href="#DejaVuSans-73" x="1346.132812"/>
      <use xlink:href="#DejaVuSans-73" x="1398.232422"/>
      <use xlink:href="#DejaVuSans-69" x="1450.332031"/>
      <use xlink:href="#DejaVuSans-65" x="1478.115234"/>
      <use xlink:href="#DejaVuSans-72" x="1539.638672"/>
      <use xlink:href="#DejaVuSans-65" x="1578.501953"/>
      <use xlink:href="#DejaVuSans-6c" x="1640.025391"/>
      <use xlink:href="#DejaVuSans-6c" x="1667.808594"/>
      <use xlink:href="#DejaVuSans-61" x="1695.591797"/>
      <use xlink:href="#DejaVuSans-6c" x="1756.871094"/>
      <use xlink:href="#DejaVuSans-65" x="1784.654297"/>
      <use xlink:href="#DejaVuSans-73" x="1846.177734"/>
     </g>
    </g>
    <g id="patch_64">
     <path d="M 487.3 425.9855 
L 507.3 425.9855 
L 507.3 418.9855 
L 487.3 418.9855 
z
" style="fill: #937860"/>
    </g>
    <g id="text_21">
     <!--  f__Lactobacillaceae -->
     <g transform="translate(515.3 425.9855) scale(0.1 -0.1)">
      <use xlink:href="#DejaVuSans-20"/>
      <use xlink:href="#DejaVuSans-66" x="31.787109"/>
      <use xlink:href="#DejaVuSans-5f" x="66.992188"/>
      <use xlink:href="#DejaVuSans-5f" x="116.992188"/>
      <use xlink:href="#DejaVuSans-4c" x="166.992188"/>
      <use xlink:href="#DejaVuSans-61" x="222.705078"/>
      <use xlink:href="#DejaVuSans-63" x="283.984375"/>
      <use xlink:href="#DejaVuSans-74" x="338.964844"/>
      <use xlink:href="#DejaVuSans-6f" x="378.173828"/>
      <use xlink:href="#DejaVuSans-62" x="439.355469"/>
      <use xlink:href="#DejaVuSans-61" x="502.832031"/>
      <use xlink:href="#DejaVuSans-63" x="564.111328"/>
      <use xlink:href="#DejaVuSans-69" x="619.091797"/>
      <use xlink:href="#DejaVuSans-6c" x="646.875"/>
      <use xlink:href="#DejaVuSans-6c" x="674.658203"/>
      <use xlink:href="#DejaVuSans-61" x="702.441406"/>
      <use xlink:href="#DejaVuSans-63" x="763.720703"/>
      <use xlink:href="#DejaVuSans-65" x="818.701172"/>
      <use xlink:href="#DejaVuSans-61" x="880.224609"/>
      <use xlink:href="#DejaVuSans-65" x="941.503906"/>
     </g>
    </g>
    <g id="patch_65">
     <path d="M 487.3 440.94175 
L 507.3 440.94175 
L 507.3 433.94175 
L 487.3 433.94175 
z
" style="fill: #c44e52"/>
    </g>
    <g id="text_22">
     <!--  f__Prevotellaceae -->
     <g transform="translate(515.3 440.94175) scale(0.1 -0.1)">
      <use xlink:href="#DejaVuSans-20"/>
      <use xlink:href="#DejaVuSans-66" x="31.787109"/>
      <use xlink:href="#DejaVuSans-5f" x="66.992188"/>
      <use xlink:href="#DejaVuSans-5f" x="116.992188"/>
      <use xlink:href="#DejaVuSans-50" x="166.992188"/>
      <use xlink:href="#DejaVuSans-72" x="225.544922"/>
      <use xlink:href="#DejaVuSans-65" x="264.408203"/>
      <use xlink:href="#DejaVuSans-76" x="325.931641"/>
      <use xlink:href="#DejaVuSans-6f" x="385.111328"/>
      <use xlink:href="#DejaVuSans-74" x="446.292969"/>
      <use xlink:href="#DejaVuSans-65" x="485.501953"/>
      <use xlink:href="#DejaVuSans-6c" x="547.025391"/>
      <use xlink:href="#DejaVuSans-6c" x="574.808594"/>
      <use xlink:href="#DejaVuSans-61" x="602.591797"/>
      <use xlink:href="#DejaVuSans-63" x="663.871094"/>
      <use xlink:href="#DejaVuSans-65" x="718.851562"/>
      <use xlink:href="#DejaVuSans-61" x="780.375"/>
      <use xlink:href="#DejaVuSans-65" x="841.654297"/>
     </g>
    </g>
    <g id="patch_66">
     <path d="M 487.3 455.898 
L 507.3 455.898 
L 507.3 448.898 
L 487.3 448.898 
z
" style="fill: #8172b3"/>
    </g>
    <g id="text_23">
     <!--  f__Veillonellaceae -->
     <g transform="translate(515.3 455.898) scale(0.1 -0.1)">
      <use xlink:href="#DejaVuSans-20"/>
      <use xlink:href="#DejaVuSans-66" x="31.787109"/>
      <use xlink:href="#DejaVuSans-5f" x="66.992188"/>
      <use xlink:href="#DejaVuSans-5f" x="116.992188"/>
      <use xlink:href="#DejaVuSans-56" x="166.992188"/>
      <use xlink:href="#DejaVuSans-65" x="227.650391"/>
      <use xlink:href="#DejaVuSans-69" x="289.173828"/>
      <use xlink:href="#DejaVuSans-6c" x="316.957031"/>
      <use xlink:href="#DejaVuSans-6c" x="344.740234"/>
      <use xlink:href="#DejaVuSans-6f" x="372.523438"/>
      <use xlink:href="#DejaVuSans-6e" x="433.705078"/>
      <use xlink:href="#DejaVuSans-65" x="497.083984"/>
      <use xlink:href="#DejaVuSans-6c" x="558.607422"/>
      <use xlink:href="#DejaVuSans-6c" x="586.390625"/>
      <use xlink:href="#DejaVuSans-61" x="614.173828"/>
      <use xlink:href="#DejaVuSans-63" x="675.453125"/>
      <use xlink:href="#DejaVuSans-65" x="730.433594"/>
      <use xlink:href="#DejaVuSans-61" x="791.957031"/>
      <use xlink:href="#DejaVuSans-65" x="853.236328"/>
     </g>
    </g>
    <g id="patch_67">
     <path d="M 487.3 470.85425 
L 507.3 470.85425 
L 507.3 463.85425 
L 487.3 463.85425 
z
" style="fill: #ffa505"/>
    </g>
    <g id="text_24">
     <!--  f__Propionibacteriaceae -->
     <g transform="translate(515.3 470.85425) scale(0.1 -0.1)">
      <use xlink:href="#DejaVuSans-20"/>
      <use xlink:href="#DejaVuSans-66" x="31.787109"/>
      <use xlink:href="#DejaVuSans-5f" x="66.992188"/>
      <use xlink:href="#DejaVuSans-5f" x="116.992188"/>
      <use xlink:href="#DejaVuSans-50" x="166.992188"/>
      <use xlink:href="#DejaVuSans-72" x="225.544922"/>
      <use xlink:href="#DejaVuSans-6f" x="264.408203"/>
      <use xlink:href="#DejaVuSans-70" x="325.589844"/>
      <use xlink:href="#DejaVuSans-69" x="389.066406"/>
      <use xlink:href="#DejaVuSans-6f" x="416.849609"/>
      <use xlink:href="#DejaVuSans-6e" x="478.03125"/>
      <use xlink:href="#DejaVuSans-69" x="541.410156"/>
      <use xlink:href="#DejaVuSans-62" x="569.193359"/>
      <use xlink:href="#DejaVuSans-61" x="632.669922"/>
      <use xlink:href="#DejaVuSans-63" x="693.949219"/>
      <use xlink:href="#DejaVuSans-74" x="748.929688"/>
      <use xlink:href="#DejaVuSans-65" x="788.138672"/>
      <use xlink:href="#DejaVuSans-72" x="849.662109"/>
      <use xlink:href="#DejaVuSans-69" x="890.775391"/>
      <use xlink:href="#DejaVuSans-61" x="918.558594"/>
      <use xlink:href="#DejaVuSans-63" x="979.837891"/>
      <use xlink:href="#DejaVuSans-65" x="1034.818359"/>
      <use xlink:href="#DejaVuSans-61" x="1096.341797"/>
      <use xlink:href="#DejaVuSans-65" x="1157.621094"/>
     </g>
    </g>
    <g id="patch_68">
     <path d="M 487.3 485.8105 
L 507.3 485.8105 
L 507.3 478.8105 
L 487.3 478.8105 
z
" style="fill: #4c72b0"/>
    </g>
    <g id="text_25">
     <!--  f__Gemellaceae -->
     <g transform="translate(515.3 485.8105) scale(0.1 -0.1)">
      <defs>
       <path id="DejaVuSans-47" d="M 3809 666 
L 3809 1919 
L 2778 1919 
L 2778 2438 
L 4434 2438 
L 4434 434 
Q 4069 175 3628 42 
Q 3188 -91 2688 -91 
Q 1594 -91 976 548 
Q 359 1188 359 2328 
Q 359 3472 976 4111 
Q 1594 4750 2688 4750 
Q 3144 4750 3555 4637 
Q 3966 4525 4313 4306 
L 4313 3634 
Q 3963 3931 3569 4081 
Q 3175 4231 2741 4231 
Q 1884 4231 1454 3753 
Q 1025 3275 1025 2328 
Q 1025 1384 1454 906 
Q 1884 428 2741 428 
Q 3075 428 3337 486 
Q 3600 544 3809 666 
z
" transform="scale(0.015625)"/>
      </defs>
      <use xlink:href="#DejaVuSans-20"/>
      <use xlink:href="#DejaVuSans-66" x="31.787109"/>
      <use xlink:href="#DejaVuSans-5f" x="66.992188"/>
      <use xlink:href="#DejaVuSans-5f" x="116.992188"/>
      <use xlink:href="#DejaVuSans-47" x="166.992188"/>
      <use xlink:href="#DejaVuSans-65" x="244.482422"/>
      <use xlink:href="#DejaVuSans-6d" x="306.005859"/>
      <use xlink:href="#DejaVuSans-65" x="403.417969"/>
      <use xlink:href="#DejaVuSans-6c" x="464.941406"/>
      <use xlink:href="#DejaVuSans-6c" x="492.724609"/>
      <use xlink:href="#DejaVuSans-61" x="520.507812"/>
      <use xlink:href="#DejaVuSans-63" x="581.787109"/>
      <use xlink:href="#DejaVuSans-65" x="636.767578"/>
      <use xlink:href="#DejaVuSans-61" x="698.291016"/>
      <use xlink:href="#DejaVuSans-65" x="759.570312"/>
     </g>
    </g>
    <g id="patch_69">
     <path d="M 487.3 500.76675 
L 507.3 500.76675 
L 507.3 493.76675 
L 487.3 493.76675 
z
" style="fill: #55a868"/>
    </g>
    <g id="text_26">
     <!--  f__Fusobacteriaceae -->
     <g transform="translate(515.3 500.76675) scale(0.1 -0.1)">
      <use xlink:href="#DejaVuSans-20"/>
      <use xlink:href="#DejaVuSans-66" x="31.787109"/>
      <use xlink:href="#DejaVuSans-5f" x="66.992188"/>
      <use xlink:href="#DejaVuSans-5f" x="116.992188"/>
      <use xlink:href="#DejaVuSans-46" x="166.992188"/>
      <use xlink:href="#DejaVuSans-75" x="219.011719"/>
      <use xlink:href="#DejaVuSans-73" x="282.390625"/>
      <use xlink:href="#DejaVuSans-6f" x="334.490234"/>
      <use xlink:href="#DejaVuSans-62" x="395.671875"/>
      <use xlink:href="#DejaVuSans-61" x="459.148438"/>
      <use xlink:href="#DejaVuSans-63" x="520.427734"/>
      <use xlink:href="#DejaVuSans-74" x="575.408203"/>
      <use xlink:href="#DejaVuSans-65" x="614.617188"/>
      <use xlink:href="#DejaVuSans-72" x="676.140625"/>
      <use xlink:href="#DejaVuSans-69" x="717.253906"/>
      <use xlink:href="#DejaVuSans-61" x="745.037109"/>
      <use xlink:href="#DejaVuSans-63" x="806.316406"/>
      <use xlink:href="#DejaVuSans-65" x="861.296875"/>
      <use xlink:href="#DejaVuSans-61" x="922.820312"/>
      <use xlink:href="#DejaVuSans-65" x="984.099609"/>
     </g>
    </g>
    <g id="patch_70">
     <path d="M 487.3 515.723 
L 507.3 515.723 
L 507.3 508.723 
L 487.3 508.723 
z
" style="fill: #c44e52"/>
    </g>
    <g id="text_27">
     <!--  f__Brevibacteriaceae -->
     <g transform="translate(515.3 515.723) scale(0.1 -0.1)">
      <defs>
       <path id="DejaVuSans-42" d="M 1259 2228 
L 1259 519 
L 2272 519 
Q 2781 519 3026 730 
Q 3272 941 3272 1375 
Q 3272 1813 3026 2020 
Q 2781 2228 2272 2228 
L 1259 2228 
z
M 1259 4147 
L 1259 2741 
L 2194 2741 
Q 2656 2741 2882 2914 
Q 3109 3088 3109 3444 
Q 3109 3797 2882 3972 
Q 2656 4147 2194 4147 
L 1259 4147 
z
M 628 4666 
L 2241 4666 
Q 2963 4666 3353 4366 
Q 3744 4066 3744 3513 
Q 3744 3084 3544 2831 
Q 3344 2578 2956 2516 
Q 3422 2416 3680 2098 
Q 3938 1781 3938 1306 
Q 3938 681 3513 340 
Q 3088 0 2303 0 
L 628 0 
L 628 4666 
z
" transform="scale(0.015625)"/>
      </defs>
      <use xlink:href="#DejaVuSans-20"/>
      <use xlink:href="#DejaVuSans-66" x="31.787109"/>
      <use xlink:href="#DejaVuSans-5f" x="66.992188"/>
      <use xlink:href="#DejaVuSans-5f" x="116.992188"/>
      <use xlink:href="#DejaVuSans-42" x="166.992188"/>
      <use xlink:href="#DejaVuSans-72" x="235.595703"/>
      <use xlink:href="#DejaVuSans-65" x="274.458984"/>
      <use xlink:href="#DejaVuSans-76" x="335.982422"/>
      <use xlink:href="#DejaVuSans-69" x="395.162109"/>
      <use xlink:href="#DejaVuSans-62" x="422.945312"/>
      <use xlink:href="#DejaVuSans-61" x="486.421875"/>
      <use xlink:href="#DejaVuSans-63" x="547.701172"/>
      <use xlink:href="#DejaVuSans-74" x="602.681641"/>
      <use xlink:href="#DejaVuSans-65" x="641.890625"/>
      <use xlink:href="#DejaVuSans-72" x="703.414062"/>
      <use xlink:href="#DejaVuSans-69" x="744.527344"/>
      <use xlink:href="#DejaVuSans-61" x="772.310547"/>
      <use xlink:href="#DejaVuSans-63" x="833.589844"/>
      <use xlink:href="#DejaVuSans-65" x="888.570312"/>
      <use xlink:href="#DejaVuSans-61" x="950.09375"/>
      <use xlink:href="#DejaVuSans-65" x="1011.373047"/>
     </g>
    </g>
    <g id="patch_71">
     <path d="M 487.3 530.67925 
L 507.3 530.67925 
L 507.3 523.67925 
L 487.3 523.67925 
z
" style="fill: #ededed"/>
    </g>
    <g id="text_28">
     <!-- Others -->
     <g transform="translate(515.3 530.67925) scale(0.1 -0.1)">
      <defs>
       <path id="DejaVuSans-4f" d="M 2522 4238 
Q 1834 4238 1429 3725 
Q 1025 3213 1025 2328 
Q 1025 1447 1429 934 
Q 1834 422 2522 422 
Q 3209 422 3611 934 
Q 4013 1447 4013 2328 
Q 4013 3213 3611 3725 
Q 3209 4238 2522 4238 
z
M 2522 4750 
Q 3503 4750 4090 4092 
Q 4678 3434 4678 2328 
Q 4678 1225 4090 567 
Q 3503 -91 2522 -91 
Q 1538 -91 948 565 
Q 359 1222 359 2328 
Q 359 3434 948 4092 
Q 1538 4750 2522 4750 
z
" transform="scale(0.015625)"/>
      </defs>
      <use xlink:href="#DejaVuSans-4f"/>
      <use xlink:href="#DejaVuSans-74" x="78.710938"/>
      <use xlink:href="#DejaVuSans-68" x="117.919922"/>
      <use xlink:href="#DejaVuSans-65" x="181.298828"/>
      <use xlink:href="#DejaVuSans-72" x="242.822266"/>
      <use xlink:href="#DejaVuSans-73" x="283.935547"/>
     </g>
    </g>
   </g>
  </g>
 </g>
 <defs>
  <clipPath id="pb36169de02">
   <rect x="52.04" y="30.48" width="426.26" height="770.536"/>
  </clipPath>
 </defs>
</svg>
