<?xml version="1.0" encoding="utf-8" standalone="no"?>
<!DOCTYPE svg PUBLIC "-//W3C//DTD SVG 1.1//EN"
  "http://www.w3.org/Graphics/SVG/1.1/DTD/svg11.dtd">
<svg xmlns:xlink="http://www.w3.org/1999/xlink" width="720pt" height="720pt" viewBox="0 0 720 720" xmlns="http://www.w3.org/2000/svg" version="1.1">
 <metadata>
  <rdf:RDF xmlns:dc="http://purl.org/dc/elements/1.1/" xmlns:cc="http://creativecommons.org/ns#" xmlns:rdf="http://www.w3.org/1999/02/22-rdf-syntax-ns#">
   <cc:Work>
    <dc:type rdf:resource="http://purl.org/dc/dcmitype/StillImage"/>
    <dc:date>2025-02-23T15:14:30.954353</dc:date>
    <dc:format>image/svg+xml</dc:format>
    <dc:creator>
     <cc:Agent>
      <dc:title>Matplotlib v3.8.4, https://matplotlib.org/</dc:title>
     </cc:Agent>
    </dc:creator>
   </cc:Work>
  </rdf:RDF>
 </metadata>
 <defs>
  <style type="text/css">*{stroke-linejoin: round; stroke-linecap: butt}</style>
 </defs>
 <g id="figure_1">
  <g id="patch_1">
   <path d="M 0 720 
L 720 720 
L 720 0 
L 0 0 
z
" style="fill: #ffffff"/>
  </g>
  <g id="axes_1">
   <g id="patch_2">
    <path d="M 67.34 635.384 
L 385.75 635.384 
L 385.75 35.52 
L 67.34 35.52 
z
" style="fill: #ffffff"/>
   </g>
   <g id="patch_3">
    <path d="M 101.949783 635.384 
L 212.701087 635.384 
L 212.701087 488.230953 
L 101.949783 488.230953 
z
" clip-path="url(#pc5bb22068c)" style="fill: #ffd1a9"/>
   </g>
   <g id="patch_4">
    <path d="M 240.388913 635.384 
L 351.140217 635.384 
L 351.140217 480.810438 
L 240.388913 480.810438 
z
" clip-path="url(#pc5bb22068c)" style="fill: #ffd1a9"/>
   </g>
   <g id="patch_5">
    <path d="M 101.949783 488.230953 
L 212.701087 488.230953 
L 212.701087 359.960355 
L 101.949783 359.960355 
z
" clip-path="url(#pc5bb22068c)" style="fill: #ffa500"/>
   </g>
   <g id="patch_6">
    <path d="M 240.388913 480.810438 
L 351.140217 480.810438 
L 351.140217 360.897262 
L 240.388913 360.897262 
z
" clip-path="url(#pc5bb22068c)" style="fill: #ffa500"/>
   </g>
   <g id="patch_7">
    <path d="M 101.949783 359.960355 
L 212.701087 359.960355 
L 212.701087 138.304057 
L 101.949783 138.304057 
z
" clip-path="url(#pc5bb22068c)" style="fill: #cc5500"/>
   </g>
   <g id="patch_8">
    <path d="M 240.388913 360.897262 
L 351.140217 360.897262 
L 351.140217 150.35926 
L 240.388913 150.35926 
z
" clip-path="url(#pc5bb22068c)" style="fill: #cc5500"/>
   </g>
   <g id="patch_9">
    <path d="M 101.949783 138.304057 
L 212.701087 138.304057 
L 212.701087 101.192882 
L 101.949783 101.192882 
z
" clip-path="url(#pc5bb22068c)" style="fill: #ec8cbf"/>
   </g>
   <g id="patch_10">
    <path d="M 240.388913 150.35926 
L 351.140217 150.35926 
L 351.140217 107.277266 
L 240.388913 107.277266 
z
" clip-path="url(#pc5bb22068c)" style="fill: #ec8cbf"/>
   </g>
   <g id="patch_11">
    <path d="M 101.949783 101.192882 
L 212.701087 101.192882 
L 212.701087 94.983833 
L 101.949783 94.983833 
z
" clip-path="url(#pc5bb22068c)" style="fill: #70a8dc"/>
   </g>
   <g id="patch_12">
    <path d="M 240.388913 107.277266 
L 351.140217 107.277266 
L 351.140217 94.123685 
L 240.388913 94.123685 
z
" clip-path="url(#pc5bb22068c)" style="fill: #70a8dc"/>
   </g>
   <g id="patch_13">
    <path d="M 101.949783 94.983833 
L 212.701087 94.983833 
L 212.701087 88.698486 
L 101.949783 88.698486 
z
" clip-path="url(#pc5bb22068c)" style="fill: #00008b"/>
   </g>
   <g id="patch_14">
    <path d="M 240.388913 94.123685 
L 351.140217 94.123685 
L 351.140217 84.214554 
L 240.388913 84.214554 
z
" clip-path="url(#pc5bb22068c)" style="fill: #00008b"/>
   </g>
   <g id="patch_15">
    <path d="M 101.949783 88.698486 
L 212.701087 88.698486 
L 212.701087 85.159183 
L 101.949783 85.159183 
z
" clip-path="url(#pc5bb22068c)" style="fill: #7b3f00"/>
   </g>
   <g id="patch_16">
    <path d="M 240.388913 84.214554 
L 351.140217 84.214554 
L 351.140217 77.575201 
L 240.388913 77.575201 
z
" clip-path="url(#pc5bb22068c)" style="fill: #7b3f00"/>
   </g>
   <g id="patch_17">
    <path d="M 101.949783 85.159183 
L 212.701087 85.159183 
L 212.701087 82.772206 
L 101.949783 82.772206 
z
" clip-path="url(#pc5bb22068c)" style="fill: #f4cccd"/>
   </g>
   <g id="patch_18">
    <path d="M 240.388913 77.575201 
L 351.140217 77.575201 
L 351.140217 72.923634 
L 240.388913 72.923634 
z
" clip-path="url(#pc5bb22068c)" style="fill: #f4cccd"/>
   </g>
   <g id="patch_19">
    <path d="M 101.949783 82.772206 
L 212.701087 82.772206 
L 212.701087 76.038591 
L 101.949783 76.038591 
z
" clip-path="url(#pc5bb22068c)" style="fill: #bcbcbc"/>
   </g>
   <g id="patch_20">
    <path d="M 240.388913 72.923634 
L 351.140217 72.923634 
L 351.140217 72.646645 
L 240.388913 72.646645 
z
" clip-path="url(#pc5bb22068c)" style="fill: #bcbcbc"/>
   </g>
   <g id="patch_21">
    <path d="M 101.949783 76.038591 
L 212.701087 76.038591 
L 212.701087 73.860441 
L 101.949783 73.860441 
z
" clip-path="url(#pc5bb22068c)" style="fill: #ffe59a"/>
   </g>
   <g id="patch_22">
    <path d="M 240.388913 72.646645 
L 351.140217 72.646645 
L 351.140217 69.330159 
L 240.388913 69.330159 
z
" clip-path="url(#pc5bb22068c)" style="fill: #ffe59a"/>
   </g>
   <g id="patch_23">
    <path d="M 101.949783 73.860441 
L 212.701087 73.860441 
L 212.701087 72.671689 
L 101.949783 72.671689 
z
" clip-path="url(#pc5bb22068c)" style="fill: #f6475f"/>
   </g>
   <g id="patch_24">
    <path d="M 240.388913 69.330159 
L 351.140217 69.330159 
L 351.140217 67.723958 
L 240.388913 67.723958 
z
" clip-path="url(#pc5bb22068c)" style="fill: #f6475f"/>
   </g>
   <g id="patch_25">
    <path d="M 101.949783 72.671689 
L 212.701087 72.671689 
L 212.701087 71.259995 
L 101.949783 71.259995 
z
" clip-path="url(#pc5bb22068c)" style="fill: #92f0f0"/>
   </g>
   <g id="patch_26">
    <path d="M 240.388913 67.723958 
L 351.140217 67.723958 
L 351.140217 66.633631 
L 240.388913 66.633631 
z
" clip-path="url(#pc5bb22068c)" style="fill: #92f0f0"/>
   </g>
   <g id="patch_27">
    <path d="M 101.949783 71.259995 
L 212.701087 71.259995 
L 212.701087 64.084952 
L 101.949783 64.084952 
z
" clip-path="url(#pc5bb22068c)" style="fill: #ededed"/>
   </g>
   <g id="patch_28">
    <path d="M 240.388913 66.633631 
L 351.140217 66.633631 
L 351.140217 64.084952 
L 240.388913 64.084952 
z
" clip-path="url(#pc5bb22068c)" style="fill: #ededed"/>
   </g>
   <g id="matplotlib.axis_1">
    <g id="xtick_1">
     <g id="line2d_1">
      <defs>
       <path id="m5bec788ccd" d="M 0 0 
L 0 3.5 
" style="stroke: #000000; stroke-width: 0.8"/>
      </defs>
      <g>
       <use xlink:href="#m5bec788ccd" x="157.325435" y="635.384" style="stroke: #000000; stroke-width: 0.8"/>
      </g>
     </g>
     <g id="text_1">
      <!-- Acne -->
      <g transform="translate(132.670747 657.580875) scale(0.2 -0.2)">
       <defs>
        <path id="DejaVuSans-41" d="M 2188 4044 
L 1331 1722 
L 3047 1722 
L 2188 4044 
z
M 1831 4666 
L 2547 4666 
L 4325 0 
L 3669 0 
L 3244 1197 
L 1141 1197 
L 716 0 
L 50 0 
L 1831 4666 
z
" transform="scale(0.015625)"/>
        <path id="DejaVuSans-63" d="M 3122 3366 
L 3122 2828 
Q 2878 2963 2633 3030 
Q 2388 3097 2138 3097 
Q 1578 3097 1268 2742 
Q 959 2388 959 1747 
Q 959 1106 1268 751 
Q 1578 397 2138 397 
Q 2388 397 2633 464 
Q 2878 531 3122 666 
L 3122 134 
Q 2881 22 2623 -34 
Q 2366 -91 2075 -91 
Q 1284 -91 818 406 
Q 353 903 353 1747 
Q 353 2603 823 3093 
Q 1294 3584 2113 3584 
Q 2378 3584 2631 3529 
Q 2884 3475 3122 3366 
z
" transform="scale(0.015625)"/>
        <path id="DejaVuSans-6e" d="M 3513 2113 
L 3513 0 
L 2938 0 
L 2938 2094 
Q 2938 2591 2744 2837 
Q 2550 3084 2163 3084 
Q 1697 3084 1428 2787 
Q 1159 2491 1159 1978 
L 1159 0 
L 581 0 
L 581 3500 
L 1159 3500 
L 1159 2956 
Q 1366 3272 1645 3428 
Q 1925 3584 2291 3584 
Q 2894 3584 3203 3211 
Q 3513 2838 3513 2113 
z
" transform="scale(0.015625)"/>
        <path id="DejaVuSans-65" d="M 3597 1894 
L 3597 1613 
L 953 1613 
Q 991 1019 1311 708 
Q 1631 397 2203 397 
Q 2534 397 2845 478 
Q 3156 559 3463 722 
L 3463 178 
Q 3153 47 2828 -22 
Q 2503 -91 2169 -91 
Q 1331 -91 842 396 
Q 353 884 353 1716 
Q 353 2575 817 3079 
Q 1281 3584 2069 3584 
Q 2775 3584 3186 3129 
Q 3597 2675 3597 1894 
z
M 3022 2063 
Q 3016 2534 2758 2815 
Q 2500 3097 2075 3097 
Q 1594 3097 1305 2825 
Q 1016 2553 972 2059 
L 3022 2063 
z
" transform="scale(0.015625)"/>
       </defs>
       <use xlink:href="#DejaVuSans-41"/>
       <use xlink:href="#DejaVuSans-63" x="66.658203"/>
       <use xlink:href="#DejaVuSans-6e" x="121.638672"/>
       <use xlink:href="#DejaVuSans-65" x="185.017578"/>
      </g>
      <!-- Non-lesional -->
      <g transform="translate(95.498872 679.9765) scale(0.2 -0.2)">
       <defs>
        <path id="DejaVuSans-4e" d="M 628 4666 
L 1478 4666 
L 3547 763 
L 3547 4666 
L 4159 4666 
L 4159 0 
L 3309 0 
L 1241 3903 
L 1241 0 
L 628 0 
L 628 4666 
z
" transform="scale(0.015625)"/>
        <path id="DejaVuSans-6f" d="M 1959 3097 
Q 1497 3097 1228 2736 
Q 959 2375 959 1747 
Q 959 1119 1226 758 
Q 1494 397 1959 397 
Q 2419 397 2687 759 
Q 2956 1122 2956 1747 
Q 2956 2369 2687 2733 
Q 2419 3097 1959 3097 
z
M 1959 3584 
Q 2709 3584 3137 3096 
Q 3566 2609 3566 1747 
Q 3566 888 3137 398 
Q 2709 -91 1959 -91 
Q 1206 -91 779 398 
Q 353 888 353 1747 
Q 353 2609 779 3096 
Q 1206 3584 1959 3584 
z
" transform="scale(0.015625)"/>
        <path id="DejaVuSans-2d" d="M 313 2009 
L 1997 2009 
L 1997 1497 
L 313 1497 
L 313 2009 
z
" transform="scale(0.015625)"/>
        <path id="DejaVuSans-6c" d="M 603 4863 
L 1178 4863 
L 1178 0 
L 603 0 
L 603 4863 
z
" transform="scale(0.015625)"/>
        <path id="DejaVuSans-73" d="M 2834 3397 
L 2834 2853 
Q 2591 2978 2328 3040 
Q 2066 3103 1784 3103 
Q 1356 3103 1142 2972 
Q 928 2841 928 2578 
Q 928 2378 1081 2264 
Q 1234 2150 1697 2047 
L 1894 2003 
Q 2506 1872 2764 1633 
Q 3022 1394 3022 966 
Q 3022 478 2636 193 
Q 2250 -91 1575 -91 
Q 1294 -91 989 -36 
Q 684 19 347 128 
L 347 722 
Q 666 556 975 473 
Q 1284 391 1588 391 
Q 1994 391 2212 530 
Q 2431 669 2431 922 
Q 2431 1156 2273 1281 
Q 2116 1406 1581 1522 
L 1381 1569 
Q 847 1681 609 1914 
Q 372 2147 372 2553 
Q 372 3047 722 3315 
Q 1072 3584 1716 3584 
Q 2034 3584 2315 3537 
Q 2597 3491 2834 3397 
z
" transform="scale(0.015625)"/>
        <path id="DejaVuSans-69" d="M 603 3500 
L 1178 3500 
L 1178 0 
L 603 0 
L 603 3500 
z
M 603 4863 
L 1178 4863 
L 1178 4134 
L 603 4134 
L 603 4863 
z
" transform="scale(0.015625)"/>
        <path id="DejaVuSans-61" d="M 2194 1759 
Q 1497 1759 1228 1600 
Q 959 1441 959 1056 
Q 959 750 1161 570 
Q 1363 391 1709 391 
Q 2188 391 2477 730 
Q 2766 1069 2766 1631 
L 2766 1759 
L 2194 1759 
z
M 3341 1997 
L 3341 0 
L 2766 0 
L 2766 531 
Q 2569 213 2275 61 
Q 1981 -91 1556 -91 
Q 1019 -91 701 211 
Q 384 513 384 1019 
Q 384 1609 779 1909 
Q 1175 2209 1959 2209 
L 2766 2209 
L 2766 2266 
Q 2766 2663 2505 2880 
Q 2244 3097 1772 3097 
Q 1472 3097 1187 3025 
Q 903 2953 641 2809 
L 641 3341 
Q 956 3463 1253 3523 
Q 1550 3584 1831 3584 
Q 2591 3584 2966 3190 
Q 3341 2797 3341 1997 
z
" transform="scale(0.015625)"/>
       </defs>
       <use xlink:href="#DejaVuSans-4e"/>
       <use xlink:href="#DejaVuSans-6f" x="74.804688"/>
       <use xlink:href="#DejaVuSans-6e" x="135.986328"/>
       <use xlink:href="#DejaVuSans-2d" x="199.365234"/>
       <use xlink:href="#DejaVuSans-6c" x="235.449219"/>
       <use xlink:href="#DejaVuSans-65" x="263.232422"/>
       <use xlink:href="#DejaVuSans-73" x="324.755859"/>
       <use xlink:href="#DejaVuSans-69" x="376.855469"/>
       <use xlink:href="#DejaVuSans-6f" x="404.638672"/>
       <use xlink:href="#DejaVuSans-6e" x="465.820312"/>
       <use xlink:href="#DejaVuSans-61" x="529.199219"/>
       <use xlink:href="#DejaVuSans-6c" x="590.478516"/>
      </g>
      <!-- (n=12) -->
      <g transform="translate(122.080122 702.372125) scale(0.2 -0.2)">
       <defs>
        <path id="DejaVuSans-28" d="M 1984 4856 
Q 1566 4138 1362 3434 
Q 1159 2731 1159 2009 
Q 1159 1288 1364 580 
Q 1569 -128 1984 -844 
L 1484 -844 
Q 1016 -109 783 600 
Q 550 1309 550 2009 
Q 550 2706 781 3412 
Q 1013 4119 1484 4856 
L 1984 4856 
z
" transform="scale(0.015625)"/>
        <path id="DejaVuSans-3d" d="M 678 2906 
L 4684 2906 
L 4684 2381 
L 678 2381 
L 678 2906 
z
M 678 1631 
L 4684 1631 
L 4684 1100 
L 678 1100 
L 678 1631 
z
" transform="scale(0.015625)"/>
        <path id="DejaVuSans-31" d="M 794 531 
L 1825 531 
L 1825 4091 
L 703 3866 
L 703 4441 
L 1819 4666 
L 2450 4666 
L 2450 531 
L 3481 531 
L 3481 0 
L 794 0 
L 794 531 
z
" transform="scale(0.015625)"/>
        <path id="DejaVuSans-32" d="M 1228 531 
L 3431 531 
L 3431 0 
L 469 0 
L 469 531 
Q 828 903 1448 1529 
Q 2069 2156 2228 2338 
Q 2531 2678 2651 2914 
Q 2772 3150 2772 3378 
Q 2772 3750 2511 3984 
Q 2250 4219 1831 4219 
Q 1534 4219 1204 4116 
Q 875 4013 500 3803 
L 500 4441 
Q 881 4594 1212 4672 
Q 1544 4750 1819 4750 
Q 2544 4750 2975 4387 
Q 3406 4025 3406 3419 
Q 3406 3131 3298 2873 
Q 3191 2616 2906 2266 
Q 2828 2175 2409 1742 
Q 1991 1309 1228 531 
z
" transform="scale(0.015625)"/>
        <path id="DejaVuSans-29" d="M 513 4856 
L 1013 4856 
Q 1481 4119 1714 3412 
Q 1947 2706 1947 2009 
Q 1947 1309 1714 600 
Q 1481 -109 1013 -844 
L 513 -844 
Q 928 -128 1133 580 
Q 1338 1288 1338 2009 
Q 1338 2731 1133 3434 
Q 928 4138 513 4856 
z
" transform="scale(0.015625)"/>
       </defs>
       <use xlink:href="#DejaVuSans-28"/>
       <use xlink:href="#DejaVuSans-6e" x="39.013672"/>
       <use xlink:href="#DejaVuSans-3d" x="102.392578"/>
       <use xlink:href="#DejaVuSans-31" x="186.181641"/>
       <use xlink:href="#DejaVuSans-32" x="249.804688"/>
       <use xlink:href="#DejaVuSans-29" x="313.427734"/>
      </g>
     </g>
    </g>
    <g id="xtick_2">
     <g id="line2d_2">
      <g>
       <use xlink:href="#m5bec788ccd" x="295.764565" y="635.384" style="stroke: #000000; stroke-width: 0.8"/>
      </g>
     </g>
     <g id="text_2">
      <!-- Acne -->
      <g transform="translate(271.109878 657.580875) scale(0.2 -0.2)">
       <use xlink:href="#DejaVuSans-41"/>
       <use xlink:href="#DejaVuSans-63" x="66.658203"/>
       <use xlink:href="#DejaVuSans-6e" x="121.638672"/>
       <use xlink:href="#DejaVuSans-65" x="185.017578"/>
      </g>
      <!-- Lesional -->
      <g transform="translate(254.864565 679.9765) scale(0.2 -0.2)">
       <defs>
        <path id="DejaVuSans-4c" d="M 628 4666 
L 1259 4666 
L 1259 531 
L 3531 531 
L 3531 0 
L 628 0 
L 628 4666 
z
" transform="scale(0.015625)"/>
       </defs>
       <use xlink:href="#DejaVuSans-4c"/>
       <use xlink:href="#DejaVuSans-65" x="53.962891"/>
       <use xlink:href="#DejaVuSans-73" x="115.486328"/>
       <use xlink:href="#DejaVuSans-69" x="167.585938"/>
       <use xlink:href="#DejaVuSans-6f" x="195.369141"/>
       <use xlink:href="#DejaVuSans-6e" x="256.550781"/>
       <use xlink:href="#DejaVuSans-61" x="319.929688"/>
       <use xlink:href="#DejaVuSans-6c" x="381.208984"/>
      </g>
      <!-- (n=12) -->
      <g transform="translate(260.519253 702.372125) scale(0.2 -0.2)">
       <use xlink:href="#DejaVuSans-28"/>
       <use xlink:href="#DejaVuSans-6e" x="39.013672"/>
       <use xlink:href="#DejaVuSans-3d" x="102.392578"/>
       <use xlink:href="#DejaVuSans-31" x="186.181641"/>
       <use xlink:href="#DejaVuSans-32" x="249.804688"/>
       <use xlink:href="#DejaVuSans-29" x="313.427734"/>
      </g>
     </g>
    </g>
   </g>
   <g id="matplotlib.axis_2">
    <g id="ytick_1">
     <g id="line2d_3">
      <defs>
       <path id="m447704745f" d="M 0 0 
L -3.5 0 
" style="stroke: #000000; stroke-width: 0.8"/>
      </defs>
      <g>
       <use xlink:href="#m447704745f" x="67.34" y="635.384" style="stroke: #000000; stroke-width: 0.8"/>
      </g>
     </g>
     <g id="text_3">
      <!-- 0.0 -->
      <g transform="translate(34.895 641.46275) scale(0.16 -0.16)">
       <defs>
        <path id="DejaVuSans-30" d="M 2034 4250 
Q 1547 4250 1301 3770 
Q 1056 3291 1056 2328 
Q 1056 1369 1301 889 
Q 1547 409 2034 409 
Q 2525 409 2770 889 
Q 3016 1369 3016 2328 
Q 3016 3291 2770 3770 
Q 2525 4250 2034 4250 
z
M 2034 4750 
Q 2819 4750 3233 4129 
Q 3647 3509 3647 2328 
Q 3647 1150 3233 529 
Q 2819 -91 2034 -91 
Q 1250 -91 836 529 
Q 422 1150 422 2328 
Q 422 3509 836 4129 
Q 1250 4750 2034 4750 
z
" transform="scale(0.015625)"/>
        <path id="DejaVuSans-2e" d="M 684 794 
L 1344 794 
L 1344 0 
L 684 0 
L 684 794 
z
" transform="scale(0.015625)"/>
       </defs>
       <use xlink:href="#DejaVuSans-30"/>
       <use xlink:href="#DejaVuSans-2e" x="63.623047"/>
       <use xlink:href="#DejaVuSans-30" x="95.410156"/>
      </g>
     </g>
    </g>
    <g id="ytick_2">
     <g id="line2d_4">
      <g>
       <use xlink:href="#m447704745f" x="67.34" y="521.12419" style="stroke: #000000; stroke-width: 0.8"/>
      </g>
     </g>
     <g id="text_4">
      <!-- 0.2 -->
      <g transform="translate(34.895 527.20294) scale(0.16 -0.16)">
       <use xlink:href="#DejaVuSans-30"/>
       <use xlink:href="#DejaVuSans-2e" x="63.623047"/>
       <use xlink:href="#DejaVuSans-32" x="95.410156"/>
      </g>
     </g>
    </g>
    <g id="ytick_3">
     <g id="line2d_5">
      <g>
       <use xlink:href="#m447704745f" x="67.34" y="406.864381" style="stroke: #000000; stroke-width: 0.8"/>
      </g>
     </g>
     <g id="text_5">
      <!-- 0.4 -->
      <g transform="translate(34.895 412.943131) scale(0.16 -0.16)">
       <defs>
        <path id="DejaVuSans-34" d="M 2419 4116 
L 825 1625 
L 2419 1625 
L 2419 4116 
z
M 2253 4666 
L 3047 4666 
L 3047 1625 
L 3713 1625 
L 3713 1100 
L 3047 1100 
L 3047 0 
L 2419 0 
L 2419 1100 
L 313 1100 
L 313 1709 
L 2253 4666 
z
" transform="scale(0.015625)"/>
       </defs>
       <use xlink:href="#DejaVuSans-30"/>
       <use xlink:href="#DejaVuSans-2e" x="63.623047"/>
       <use xlink:href="#DejaVuSans-34" x="95.410156"/>
      </g>
     </g>
    </g>
    <g id="ytick_4">
     <g id="line2d_6">
      <g>
       <use xlink:href="#m447704745f" x="67.34" y="292.604571" style="stroke: #000000; stroke-width: 0.8"/>
      </g>
     </g>
     <g id="text_6">
      <!-- 0.6 -->
      <g transform="translate(34.895 298.683321) scale(0.16 -0.16)">
       <defs>
        <path id="DejaVuSans-36" d="M 2113 2584 
Q 1688 2584 1439 2293 
Q 1191 2003 1191 1497 
Q 1191 994 1439 701 
Q 1688 409 2113 409 
Q 2538 409 2786 701 
Q 3034 994 3034 1497 
Q 3034 2003 2786 2293 
Q 2538 2584 2113 2584 
z
M 3366 4563 
L 3366 3988 
Q 3128 4100 2886 4159 
Q 2644 4219 2406 4219 
Q 1781 4219 1451 3797 
Q 1122 3375 1075 2522 
Q 1259 2794 1537 2939 
Q 1816 3084 2150 3084 
Q 2853 3084 3261 2657 
Q 3669 2231 3669 1497 
Q 3669 778 3244 343 
Q 2819 -91 2113 -91 
Q 1303 -91 875 529 
Q 447 1150 447 2328 
Q 447 3434 972 4092 
Q 1497 4750 2381 4750 
Q 2619 4750 2861 4703 
Q 3103 4656 3366 4563 
z
" transform="scale(0.015625)"/>
       </defs>
       <use xlink:href="#DejaVuSans-30"/>
       <use xlink:href="#DejaVuSans-2e" x="63.623047"/>
       <use xlink:href="#DejaVuSans-36" x="95.410156"/>
      </g>
     </g>
    </g>
    <g id="ytick_5">
     <g id="line2d_7">
      <g>
       <use xlink:href="#m447704745f" x="67.34" y="178.344762" style="stroke: #000000; stroke-width: 0.8"/>
      </g>
     </g>
     <g id="text_7">
      <!-- 0.8 -->
      <g transform="translate(34.895 184.423512) scale(0.16 -0.16)">
       <defs>
        <path id="DejaVuSans-38" d="M 2034 2216 
Q 1584 2216 1326 1975 
Q 1069 1734 1069 1313 
Q 1069 891 1326 650 
Q 1584 409 2034 409 
Q 2484 409 2743 651 
Q 3003 894 3003 1313 
Q 3003 1734 2745 1975 
Q 2488 2216 2034 2216 
z
M 1403 2484 
Q 997 2584 770 2862 
Q 544 3141 544 3541 
Q 544 4100 942 4425 
Q 1341 4750 2034 4750 
Q 2731 4750 3128 4425 
Q 3525 4100 3525 3541 
Q 3525 3141 3298 2862 
Q 3072 2584 2669 2484 
Q 3125 2378 3379 2068 
Q 3634 1759 3634 1313 
Q 3634 634 3220 271 
Q 2806 -91 2034 -91 
Q 1263 -91 848 271 
Q 434 634 434 1313 
Q 434 1759 690 2068 
Q 947 2378 1403 2484 
z
M 1172 3481 
Q 1172 3119 1398 2916 
Q 1625 2713 2034 2713 
Q 2441 2713 2670 2916 
Q 2900 3119 2900 3481 
Q 2900 3844 2670 4047 
Q 2441 4250 2034 4250 
Q 1625 4250 1398 4047 
Q 1172 3844 1172 3481 
z
" transform="scale(0.015625)"/>
       </defs>
       <use xlink:href="#DejaVuSans-30"/>
       <use xlink:href="#DejaVuSans-2e" x="63.623047"/>
       <use xlink:href="#DejaVuSans-38" x="95.410156"/>
      </g>
     </g>
    </g>
    <g id="ytick_6">
     <g id="line2d_8">
      <g>
       <use xlink:href="#m447704745f" x="67.34" y="64.084952" style="stroke: #000000; stroke-width: 0.8"/>
      </g>
     </g>
     <g id="text_8">
      <!-- 1.0 -->
      <g transform="translate(34.895 70.163702) scale(0.16 -0.16)">
       <use xlink:href="#DejaVuSans-31"/>
       <use xlink:href="#DejaVuSans-2e" x="63.623047"/>
       <use xlink:href="#DejaVuSans-30" x="95.410156"/>
      </g>
     </g>
    </g>
    <g id="text_9">
     <!-- Relative Abundance -->
     <g transform="translate(26.735625 435.287937) rotate(-90) scale(0.2 -0.2)">
      <defs>
       <path id="DejaVuSans-52" d="M 2841 2188 
Q 3044 2119 3236 1894 
Q 3428 1669 3622 1275 
L 4263 0 
L 3584 0 
L 2988 1197 
Q 2756 1666 2539 1819 
Q 2322 1972 1947 1972 
L 1259 1972 
L 1259 0 
L 628 0 
L 628 4666 
L 2053 4666 
Q 2853 4666 3247 4331 
Q 3641 3997 3641 3322 
Q 3641 2881 3436 2590 
Q 3231 2300 2841 2188 
z
M 1259 4147 
L 1259 2491 
L 2053 2491 
Q 2509 2491 2742 2702 
Q 2975 2913 2975 3322 
Q 2975 3731 2742 3939 
Q 2509 4147 2053 4147 
L 1259 4147 
z
" transform="scale(0.015625)"/>
       <path id="DejaVuSans-74" d="M 1172 4494 
L 1172 3500 
L 2356 3500 
L 2356 3053 
L 1172 3053 
L 1172 1153 
Q 1172 725 1289 603 
Q 1406 481 1766 481 
L 2356 481 
L 2356 0 
L 1766 0 
Q 1100 0 847 248 
Q 594 497 594 1153 
L 594 3053 
L 172 3053 
L 172 3500 
L 594 3500 
L 594 4494 
L 1172 4494 
z
" transform="scale(0.015625)"/>
       <path id="DejaVuSans-76" d="M 191 3500 
L 800 3500 
L 1894 563 
L 2988 3500 
L 3597 3500 
L 2284 0 
L 1503 0 
L 191 3500 
z
" transform="scale(0.015625)"/>
       <path id="DejaVuSans-20" transform="scale(0.015625)"/>
       <path id="DejaVuSans-62" d="M 3116 1747 
Q 3116 2381 2855 2742 
Q 2594 3103 2138 3103 
Q 1681 3103 1420 2742 
Q 1159 2381 1159 1747 
Q 1159 1113 1420 752 
Q 1681 391 2138 391 
Q 2594 391 2855 752 
Q 3116 1113 3116 1747 
z
M 1159 2969 
Q 1341 3281 1617 3432 
Q 1894 3584 2278 3584 
Q 2916 3584 3314 3078 
Q 3713 2572 3713 1747 
Q 3713 922 3314 415 
Q 2916 -91 2278 -91 
Q 1894 -91 1617 61 
Q 1341 213 1159 525 
L 1159 0 
L 581 0 
L 581 4863 
L 1159 4863 
L 1159 2969 
z
" transform="scale(0.015625)"/>
       <path id="DejaVuSans-75" d="M 544 1381 
L 544 3500 
L 1119 3500 
L 1119 1403 
Q 1119 906 1312 657 
Q 1506 409 1894 409 
Q 2359 409 2629 706 
Q 2900 1003 2900 1516 
L 2900 3500 
L 3475 3500 
L 3475 0 
L 2900 0 
L 2900 538 
Q 2691 219 2414 64 
Q 2138 -91 1772 -91 
Q 1169 -91 856 284 
Q 544 659 544 1381 
z
M 1991 3584 
L 1991 3584 
z
" transform="scale(0.015625)"/>
       <path id="DejaVuSans-64" d="M 2906 2969 
L 2906 4863 
L 3481 4863 
L 3481 0 
L 2906 0 
L 2906 525 
Q 2725 213 2448 61 
Q 2172 -91 1784 -91 
Q 1150 -91 751 415 
Q 353 922 353 1747 
Q 353 2572 751 3078 
Q 1150 3584 1784 3584 
Q 2172 3584 2448 3432 
Q 2725 3281 2906 2969 
z
M 947 1747 
Q 947 1113 1208 752 
Q 1469 391 1925 391 
Q 2381 391 2643 752 
Q 2906 1113 2906 1747 
Q 2906 2381 2643 2742 
Q 2381 3103 1925 3103 
Q 1469 3103 1208 2742 
Q 947 2381 947 1747 
z
" transform="scale(0.015625)"/>
      </defs>
      <use xlink:href="#DejaVuSans-52"/>
      <use xlink:href="#DejaVuSans-65" x="64.982422"/>
      <use xlink:href="#DejaVuSans-6c" x="126.505859"/>
      <use xlink:href="#DejaVuSans-61" x="154.289062"/>
      <use xlink:href="#DejaVuSans-74" x="215.568359"/>
      <use xlink:href="#DejaVuSans-69" x="254.777344"/>
      <use xlink:href="#DejaVuSans-76" x="282.560547"/>
      <use xlink:href="#DejaVuSans-65" x="341.740234"/>
      <use xlink:href="#DejaVuSans-20" x="403.263672"/>
      <use xlink:href="#DejaVuSans-41" x="435.050781"/>
      <use xlink:href="#DejaVuSans-62" x="503.458984"/>
      <use xlink:href="#DejaVuSans-75" x="566.935547"/>
      <use xlink:href="#DejaVuSans-6e" x="630.314453"/>
      <use xlink:href="#DejaVuSans-64" x="693.693359"/>
      <use xlink:href="#DejaVuSans-61" x="757.169922"/>
      <use xlink:href="#DejaVuSans-6e" x="818.449219"/>
      <use xlink:href="#DejaVuSans-63" x="881.828125"/>
      <use xlink:href="#DejaVuSans-65" x="936.808594"/>
     </g>
    </g>
   </g>
   <g id="patch_29">
    <path d="M 67.34 635.384 
L 67.34 35.52 
" style="fill: none; stroke: #000000; stroke-width: 0.8; stroke-linejoin: miter; stroke-linecap: square"/>
   </g>
   <g id="patch_30">
    <path d="M 385.75 635.384 
L 385.75 35.52 
" style="fill: none; stroke: #000000; stroke-width: 0.8; stroke-linejoin: miter; stroke-linecap: square"/>
   </g>
   <g id="patch_31">
    <path d="M 67.34 635.384 
L 385.75 635.384 
" style="fill: none; stroke: #000000; stroke-width: 0.8; stroke-linejoin: miter; stroke-linecap: square"/>
   </g>
   <g id="patch_32">
    <path d="M 67.34 35.52 
L 385.75 35.52 
" style="fill: none; stroke: #000000; stroke-width: 0.8; stroke-linejoin: miter; stroke-linecap: square"/>
   </g>
   <g id="text_10">
    <!-- metaG Relative Abundance -->
    <g transform="translate(62.499375 29.52) scale(0.24 -0.24)">
     <defs>
      <path id="DejaVuSans-6d" d="M 3328 2828 
Q 3544 3216 3844 3400 
Q 4144 3584 4550 3584 
Q 5097 3584 5394 3201 
Q 5691 2819 5691 2113 
L 5691 0 
L 5113 0 
L 5113 2094 
Q 5113 2597 4934 2840 
Q 4756 3084 4391 3084 
Q 3944 3084 3684 2787 
Q 3425 2491 3425 1978 
L 3425 0 
L 2847 0 
L 2847 2094 
Q 2847 2600 2669 2842 
Q 2491 3084 2119 3084 
Q 1678 3084 1418 2786 
Q 1159 2488 1159 1978 
L 1159 0 
L 581 0 
L 581 3500 
L 1159 3500 
L 1159 2956 
Q 1356 3278 1631 3431 
Q 1906 3584 2284 3584 
Q 2666 3584 2933 3390 
Q 3200 3197 3328 2828 
z
" transform="scale(0.015625)"/>
      <path id="DejaVuSans-47" d="M 3809 666 
L 3809 1919 
L 2778 1919 
L 2778 2438 
L 4434 2438 
L 4434 434 
Q 4069 175 3628 42 
Q 3188 -91 2688 -91 
Q 1594 -91 976 548 
Q 359 1188 359 2328 
Q 359 3472 976 4111 
Q 1594 4750 2688 4750 
Q 3144 4750 3555 4637 
Q 3966 4525 4313 4306 
L 4313 3634 
Q 3963 3931 3569 4081 
Q 3175 4231 2741 4231 
Q 1884 4231 1454 3753 
Q 1025 3275 1025 2328 
Q 1025 1384 1454 906 
Q 1884 428 2741 428 
Q 3075 428 3337 486 
Q 3600 544 3809 666 
z
" transform="scale(0.015625)"/>
     </defs>
     <use xlink:href="#DejaVuSans-6d"/>
     <use xlink:href="#DejaVuSans-65" x="97.412109"/>
     <use xlink:href="#DejaVuSans-74" x="158.935547"/>
     <use xlink:href="#DejaVuSans-61" x="198.144531"/>
     <use xlink:href="#DejaVuSans-47" x="259.423828"/>
     <use xlink:href="#DejaVuSans-20" x="336.914062"/>
     <use xlink:href="#DejaVuSans-52" x="368.701172"/>
     <use xlink:href="#DejaVuSans-65" x="433.683594"/>
     <use xlink:href="#DejaVuSans-6c" x="495.207031"/>
     <use xlink:href="#DejaVuSans-61" x="522.990234"/>
     <use xlink:href="#DejaVuSans-74" x="584.269531"/>
     <use xlink:href="#DejaVuSans-69" x="623.478516"/>
     <use xlink:href="#DejaVuSans-76" x="651.261719"/>
     <use xlink:href="#DejaVuSans-65" x="710.441406"/>
     <use xlink:href="#DejaVuSans-20" x="771.964844"/>
     <use xlink:href="#DejaVuSans-41" x="803.751953"/>
     <use xlink:href="#DejaVuSans-62" x="872.160156"/>
     <use xlink:href="#DejaVuSans-75" x="935.636719"/>
     <use xlink:href="#DejaVuSans-6e" x="999.015625"/>
     <use xlink:href="#DejaVuSans-64" x="1062.394531"/>
     <use xlink:href="#DejaVuSans-61" x="1125.871094"/>
     <use xlink:href="#DejaVuSans-6e" x="1187.150391"/>
     <use xlink:href="#DejaVuSans-63" x="1250.529297"/>
     <use xlink:href="#DejaVuSans-65" x="1305.509766"/>
    </g>
   </g>
   <g id="legend_1">
    <g id="patch_33">
     <path d="M 396.95 493.1745 
L 705.845 493.1745 
Q 709.045 493.1745 709.045 489.9745 
L 709.045 180.9295 
Q 709.045 177.7295 705.845 177.7295 
L 396.95 177.7295 
Q 393.75 177.7295 393.75 180.9295 
L 393.75 489.9745 
Q 393.75 493.1745 396.95 493.1745 
z
" style="fill: #ffffff; opacity: 0.8; stroke: #cccccc; stroke-linejoin: miter"/>
    </g>
    <g id="patch_34">
     <path d="M 400.15 196.287 
L 432.15 196.287 
L 432.15 185.087 
L 400.15 185.087 
z
" style="fill: #ffd1a9"/>
    </g>
    <g id="text_11">
     <!--  s__Cutibacterium acnes Type IA -->
     <g transform="translate(444.95 196.287) scale(0.16 -0.16)">
      <defs>
       <path id="DejaVuSans-5f" d="M 3263 -1063 
L 3263 -1509 
L -63 -1509 
L -63 -1063 
L 3263 -1063 
z
" transform="scale(0.015625)"/>
       <path id="DejaVuSans-43" d="M 4122 4306 
L 4122 3641 
Q 3803 3938 3442 4084 
Q 3081 4231 2675 4231 
Q 1875 4231 1450 3742 
Q 1025 3253 1025 2328 
Q 1025 1406 1450 917 
Q 1875 428 2675 428 
Q 3081 428 3442 575 
Q 3803 722 4122 1019 
L 4122 359 
Q 3791 134 3420 21 
Q 3050 -91 2638 -91 
Q 1578 -91 968 557 
Q 359 1206 359 2328 
Q 359 3453 968 4101 
Q 1578 4750 2638 4750 
Q 3056 4750 3426 4639 
Q 3797 4528 4122 4306 
z
" transform="scale(0.015625)"/>
       <path id="DejaVuSans-72" d="M 2631 2963 
Q 2534 3019 2420 3045 
Q 2306 3072 2169 3072 
Q 1681 3072 1420 2755 
Q 1159 2438 1159 1844 
L 1159 0 
L 581 0 
L 581 3500 
L 1159 3500 
L 1159 2956 
Q 1341 3275 1631 3429 
Q 1922 3584 2338 3584 
Q 2397 3584 2469 3576 
Q 2541 3569 2628 3553 
L 2631 2963 
z
" transform="scale(0.015625)"/>
       <path id="DejaVuSans-54" d="M -19 4666 
L 3928 4666 
L 3928 4134 
L 2272 4134 
L 2272 0 
L 1638 0 
L 1638 4134 
L -19 4134 
L -19 4666 
z
" transform="scale(0.015625)"/>
       <path id="DejaVuSans-79" d="M 2059 -325 
Q 1816 -950 1584 -1140 
Q 1353 -1331 966 -1331 
L 506 -1331 
L 506 -850 
L 844 -850 
Q 1081 -850 1212 -737 
Q 1344 -625 1503 -206 
L 1606 56 
L 191 3500 
L 800 3500 
L 1894 763 
L 2988 3500 
L 3597 3500 
L 2059 -325 
z
" transform="scale(0.015625)"/>
       <path id="DejaVuSans-70" d="M 1159 525 
L 1159 -1331 
L 581 -1331 
L 581 3500 
L 1159 3500 
L 1159 2969 
Q 1341 3281 1617 3432 
Q 1894 3584 2278 3584 
Q 2916 3584 3314 3078 
Q 3713 2572 3713 1747 
Q 3713 922 3314 415 
Q 2916 -91 2278 -91 
Q 1894 -91 1617 61 
Q 1341 213 1159 525 
z
M 3116 1747 
Q 3116 2381 2855 2742 
Q 2594 3103 2138 3103 
Q 1681 3103 1420 2742 
Q 1159 2381 1159 1747 
Q 1159 1113 1420 752 
Q 1681 391 2138 391 
Q 2594 391 2855 752 
Q 3116 1113 3116 1747 
z
" transform="scale(0.015625)"/>
       <path id="DejaVuSans-49" d="M 628 4666 
L 1259 4666 
L 1259 0 
L 628 0 
L 628 4666 
z
" transform="scale(0.015625)"/>
      </defs>
      <use xlink:href="#DejaVuSans-20"/>
      <use xlink:href="#DejaVuSans-73" x="31.787109"/>
      <use xlink:href="#DejaVuSans-5f" x="83.886719"/>
      <use xlink:href="#DejaVuSans-5f" x="133.886719"/>
      <use xlink:href="#DejaVuSans-43" x="183.886719"/>
      <use xlink:href="#DejaVuSans-75" x="253.710938"/>
      <use xlink:href="#DejaVuSans-74" x="317.089844"/>
      <use xlink:href="#DejaVuSans-69" x="356.298828"/>
      <use xlink:href="#DejaVuSans-62" x="384.082031"/>
      <use xlink:href="#DejaVuSans-61" x="447.558594"/>
      <use xlink:href="#DejaVuSans-63" x="508.837891"/>
      <use xlink:href="#DejaVuSans-74" x="563.818359"/>
      <use xlink:href="#DejaVuSans-65" x="603.027344"/>
      <use xlink:href="#DejaVuSans-72" x="664.550781"/>
      <use xlink:href="#DejaVuSans-69" x="705.664062"/>
      <use xlink:href="#DejaVuSans-75" x="733.447266"/>
      <use xlink:href="#DejaVuSans-6d" x="796.826172"/>
      <use xlink:href="#DejaVuSans-20" x="894.238281"/>
      <use xlink:href="#DejaVuSans-61" x="926.025391"/>
      <use xlink:href="#DejaVuSans-63" x="987.304688"/>
      <use xlink:href="#DejaVuSans-6e" x="1042.285156"/>
      <use xlink:href="#DejaVuSans-65" x="1105.664062"/>
      <use xlink:href="#DejaVuSans-73" x="1167.1875"/>
      <use xlink:href="#DejaVuSans-20" x="1219.287109"/>
      <use xlink:href="#DejaVuSans-54" x="1251.074219"/>
      <use xlink:href="#DejaVuSans-79" x="1296.533203"/>
      <use xlink:href="#DejaVuSans-70" x="1355.712891"/>
      <use xlink:href="#DejaVuSans-65" x="1419.189453"/>
      <use xlink:href="#DejaVuSans-20" x="1480.712891"/>
      <use xlink:href="#DejaVuSans-49" x="1512.5"/>
      <use xlink:href="#DejaVuSans-41" x="1541.992188"/>
     </g>
    </g>
    <g id="patch_35">
     <path d="M 400.15 220.217 
L 432.15 220.217 
L 432.15 209.017 
L 400.15 209.017 
z
" style="fill: #ffa500"/>
    </g>
    <g id="text_12">
     <!--  s__Cutibacterium acnes Type IB -->
     <g transform="translate(444.95 220.217) scale(0.16 -0.16)">
      <defs>
       <path id="DejaVuSans-42" d="M 1259 2228 
L 1259 519 
L 2272 519 
Q 2781 519 3026 730 
Q 3272 941 3272 1375 
Q 3272 1813 3026 2020 
Q 2781 2228 2272 2228 
L 1259 2228 
z
M 1259 4147 
L 1259 2741 
L 2194 2741 
Q 2656 2741 2882 2914 
Q 3109 3088 3109 3444 
Q 3109 3797 2882 3972 
Q 2656 4147 2194 4147 
L 1259 4147 
z
M 628 4666 
L 2241 4666 
Q 2963 4666 3353 4366 
Q 3744 4066 3744 3513 
Q 3744 3084 3544 2831 
Q 3344 2578 2956 2516 
Q 3422 2416 3680 2098 
Q 3938 1781 3938 1306 
Q 3938 681 3513 340 
Q 3088 0 2303 0 
L 628 0 
L 628 4666 
z
" transform="scale(0.015625)"/>
      </defs>
      <use xlink:href="#DejaVuSans-20"/>
      <use xlink:href="#DejaVuSans-73" x="31.787109"/>
      <use xlink:href="#DejaVuSans-5f" x="83.886719"/>
      <use xlink:href="#DejaVuSans-5f" x="133.886719"/>
      <use xlink:href="#DejaVuSans-43" x="183.886719"/>
      <use xlink:href="#DejaVuSans-75" x="253.710938"/>
      <use xlink:href="#DejaVuSans-74" x="317.089844"/>
      <use xlink:href="#DejaVuSans-69" x="356.298828"/>
      <use xlink:href="#DejaVuSans-62" x="384.082031"/>
      <use xlink:href="#DejaVuSans-61" x="447.558594"/>
      <use xlink:href="#DejaVuSans-63" x="508.837891"/>
      <use xlink:href="#DejaVuSans-74" x="563.818359"/>
      <use xlink:href="#DejaVuSans-65" x="603.027344"/>
      <use xlink:href="#DejaVuSans-72" x="664.550781"/>
      <use xlink:href="#DejaVuSans-69" x="705.664062"/>
      <use xlink:href="#DejaVuSans-75" x="733.447266"/>
      <use xlink:href="#DejaVuSans-6d" x="796.826172"/>
      <use xlink:href="#DejaVuSans-20" x="894.238281"/>
      <use xlink:href="#DejaVuSans-61" x="926.025391"/>
      <use xlink:href="#DejaVuSans-63" x="987.304688"/>
      <use xlink:href="#DejaVuSans-6e" x="1042.285156"/>
      <use xlink:href="#DejaVuSans-65" x="1105.664062"/>
      <use xlink:href="#DejaVuSans-73" x="1167.1875"/>
      <use xlink:href="#DejaVuSans-20" x="1219.287109"/>
      <use xlink:href="#DejaVuSans-54" x="1251.074219"/>
      <use xlink:href="#DejaVuSans-79" x="1296.533203"/>
      <use xlink:href="#DejaVuSans-70" x="1355.712891"/>
      <use xlink:href="#DejaVuSans-65" x="1419.189453"/>
      <use xlink:href="#DejaVuSans-20" x="1480.712891"/>
      <use xlink:href="#DejaVuSans-49" x="1512.5"/>
      <use xlink:href="#DejaVuSans-42" x="1541.992188"/>
     </g>
    </g>
    <g id="patch_36">
     <path d="M 400.15 244.147 
L 432.15 244.147 
L 432.15 232.947 
L 400.15 232.947 
z
" style="fill: #cc5500"/>
    </g>
    <g id="text_13">
     <!--  s__Cutibacterium acnes Type II -->
     <g transform="translate(444.95 244.147) scale(0.16 -0.16)">
      <use xlink:href="#DejaVuSans-20"/>
      <use xlink:href="#DejaVuSans-73" x="31.787109"/>
      <use xlink:href="#DejaVuSans-5f" x="83.886719"/>
      <use xlink:href="#DejaVuSans-5f" x="133.886719"/>
      <use xlink:href="#DejaVuSans-43" x="183.886719"/>
      <use xlink:href="#DejaVuSans-75" x="253.710938"/>
      <use xlink:href="#DejaVuSans-74" x="317.089844"/>
      <use xlink:href="#DejaVuSans-69" x="356.298828"/>
      <use xlink:href="#DejaVuSans-62" x="384.082031"/>
      <use xlink:href="#DejaVuSans-61" x="447.558594"/>
      <use xlink:href="#DejaVuSans-63" x="508.837891"/>
      <use xlink:href="#DejaVuSans-74" x="563.818359"/>
      <use xlink:href="#DejaVuSans-65" x="603.027344"/>
      <use xlink:href="#DejaVuSans-72" x="664.550781"/>
      <use xlink:href="#DejaVuSans-69" x="705.664062"/>
      <use xlink:href="#DejaVuSans-75" x="733.447266"/>
      <use xlink:href="#DejaVuSans-6d" x="796.826172"/>
      <use xlink:href="#DejaVuSans-20" x="894.238281"/>
      <use xlink:href="#DejaVuSans-61" x="926.025391"/>
      <use xlink:href="#DejaVuSans-63" x="987.304688"/>
      <use xlink:href="#DejaVuSans-6e" x="1042.285156"/>
      <use xlink:href="#DejaVuSans-65" x="1105.664062"/>
      <use xlink:href="#DejaVuSans-73" x="1167.1875"/>
      <use xlink:href="#DejaVuSans-20" x="1219.287109"/>
      <use xlink:href="#DejaVuSans-54" x="1251.074219"/>
      <use xlink:href="#DejaVuSans-79" x="1296.533203"/>
      <use xlink:href="#DejaVuSans-70" x="1355.712891"/>
      <use xlink:href="#DejaVuSans-65" x="1419.189453"/>
      <use xlink:href="#DejaVuSans-20" x="1480.712891"/>
      <use xlink:href="#DejaVuSans-49" x="1512.5"/>
      <use xlink:href="#DejaVuSans-49" x="1541.992188"/>
     </g>
    </g>
    <g id="patch_37">
     <path d="M 400.15 268.077 
L 432.15 268.077 
L 432.15 256.877 
L 400.15 256.877 
z
" style="fill: #ec8cbf"/>
    </g>
    <g id="text_14">
     <!--  s__Malassezia spp. -->
     <g transform="translate(444.95 268.077) scale(0.16 -0.16)">
      <defs>
       <path id="DejaVuSans-4d" d="M 628 4666 
L 1569 4666 
L 2759 1491 
L 3956 4666 
L 4897 4666 
L 4897 0 
L 4281 0 
L 4281 4097 
L 3078 897 
L 2444 897 
L 1241 4097 
L 1241 0 
L 628 0 
L 628 4666 
z
" transform="scale(0.015625)"/>
       <path id="DejaVuSans-7a" d="M 353 3500 
L 3084 3500 
L 3084 2975 
L 922 459 
L 3084 459 
L 3084 0 
L 275 0 
L 275 525 
L 2438 3041 
L 353 3041 
L 353 3500 
z
" transform="scale(0.015625)"/>
      </defs>
      <use xlink:href="#DejaVuSans-20"/>
      <use xlink:href="#DejaVuSans-73" x="31.787109"/>
      <use xlink:href="#DejaVuSans-5f" x="83.886719"/>
      <use xlink:href="#DejaVuSans-5f" x="133.886719"/>
      <use xlink:href="#DejaVuSans-4d" x="183.886719"/>
      <use xlink:href="#DejaVuSans-61" x="270.166016"/>
      <use xlink:href="#DejaVuSans-6c" x="331.445312"/>
      <use xlink:href="#DejaVuSans-61" x="359.228516"/>
      <use xlink:href="#DejaVuSans-73" x="420.507812"/>
      <use xlink:href="#DejaVuSans-73" x="472.607422"/>
      <use xlink:href="#DejaVuSans-65" x="524.707031"/>
      <use xlink:href="#DejaVuSans-7a" x="586.230469"/>
      <use xlink:href="#DejaVuSans-69" x="638.720703"/>
      <use xlink:href="#DejaVuSans-61" x="666.503906"/>
      <use xlink:href="#DejaVuSans-20" x="727.783203"/>
      <use xlink:href="#DejaVuSans-73" x="759.570312"/>
      <use xlink:href="#DejaVuSans-70" x="811.669922"/>
      <use xlink:href="#DejaVuSans-70" x="875.146484"/>
      <use xlink:href="#DejaVuSans-2e" x="938.623047"/>
     </g>
    </g>
    <g id="patch_38">
     <path d="M 400.15 292.007 
L 432.15 292.007 
L 432.15 280.807 
L 400.15 280.807 
z
" style="fill: #70a8dc"/>
    </g>
    <g id="text_15">
     <!--  s__Lawsonella cleavelandensis -->
     <g transform="translate(444.95 292.007) scale(0.16 -0.16)">
      <defs>
       <path id="DejaVuSans-77" d="M 269 3500 
L 844 3500 
L 1563 769 
L 2278 3500 
L 2956 3500 
L 3675 769 
L 4391 3500 
L 4966 3500 
L 4050 0 
L 3372 0 
L 2619 2869 
L 1863 0 
L 1184 0 
L 269 3500 
z
" transform="scale(0.015625)"/>
      </defs>
      <use xlink:href="#DejaVuSans-20"/>
      <use xlink:href="#DejaVuSans-73" x="31.787109"/>
      <use xlink:href="#DejaVuSans-5f" x="83.886719"/>
      <use xlink:href="#DejaVuSans-5f" x="133.886719"/>
      <use xlink:href="#DejaVuSans-4c" x="183.886719"/>
      <use xlink:href="#DejaVuSans-61" x="239.599609"/>
      <use xlink:href="#DejaVuSans-77" x="300.878906"/>
      <use xlink:href="#DejaVuSans-73" x="382.666016"/>
      <use xlink:href="#DejaVuSans-6f" x="434.765625"/>
      <use xlink:href="#DejaVuSans-6e" x="495.947266"/>
      <use xlink:href="#DejaVuSans-65" x="559.326172"/>
      <use xlink:href="#DejaVuSans-6c" x="620.849609"/>
      <use xlink:href="#DejaVuSans-6c" x="648.632812"/>
      <use xlink:href="#DejaVuSans-61" x="676.416016"/>
      <use xlink:href="#DejaVuSans-20" x="737.695312"/>
      <use xlink:href="#DejaVuSans-63" x="769.482422"/>
      <use xlink:href="#DejaVuSans-6c" x="824.462891"/>
      <use xlink:href="#DejaVuSans-65" x="852.246094"/>
      <use xlink:href="#DejaVuSans-61" x="913.769531"/>
      <use xlink:href="#DejaVuSans-76" x="975.048828"/>
      <use xlink:href="#DejaVuSans-65" x="1034.228516"/>
      <use xlink:href="#DejaVuSans-6c" x="1095.751953"/>
      <use xlink:href="#DejaVuSans-61" x="1123.535156"/>
      <use xlink:href="#DejaVuSans-6e" x="1184.814453"/>
      <use xlink:href="#DejaVuSans-64" x="1248.193359"/>
      <use xlink:href="#DejaVuSans-65" x="1311.669922"/>
      <use xlink:href="#DejaVuSans-6e" x="1373.193359"/>
      <use xlink:href="#DejaVuSans-73" x="1436.572266"/>
      <use xlink:href="#DejaVuSans-69" x="1488.671875"/>
      <use xlink:href="#DejaVuSans-73" x="1516.455078"/>
     </g>
    </g>
    <g id="patch_39">
     <path d="M 400.15 315.937 
L 432.15 315.937 
L 432.15 304.737 
L 400.15 304.737 
z
" style="fill: #00008b"/>
    </g>
    <g id="text_16">
     <!--  s__Corynebacterium spp. -->
     <g transform="translate(444.95 315.937) scale(0.16 -0.16)">
      <use xlink:href="#DejaVuSans-20"/>
      <use xlink:href="#DejaVuSans-73" x="31.787109"/>
      <use xlink:href="#DejaVuSans-5f" x="83.886719"/>
      <use xlink:href="#DejaVuSans-5f" x="133.886719"/>
      <use xlink:href="#DejaVuSans-43" x="183.886719"/>
      <use xlink:href="#DejaVuSans-6f" x="253.710938"/>
      <use xlink:href="#DejaVuSans-72" x="314.892578"/>
      <use xlink:href="#DejaVuSans-79" x="356.005859"/>
      <use xlink:href="#DejaVuSans-6e" x="415.185547"/>
      <use xlink:href="#DejaVuSans-65" x="478.564453"/>
      <use xlink:href="#DejaVuSans-62" x="540.087891"/>
      <use xlink:href="#DejaVuSans-61" x="603.564453"/>
      <use xlink:href="#DejaVuSans-63" x="664.84375"/>
      <use xlink:href="#DejaVuSans-74" x="719.824219"/>
      <use xlink:href="#DejaVuSans-65" x="759.033203"/>
      <use xlink:href="#DejaVuSans-72" x="820.556641"/>
      <use xlink:href="#DejaVuSans-69" x="861.669922"/>
      <use xlink:href="#DejaVuSans-75" x="889.453125"/>
      <use xlink:href="#DejaVuSans-6d" x="952.832031"/>
      <use xlink:href="#DejaVuSans-20" x="1050.244141"/>
      <use xlink:href="#DejaVuSans-73" x="1082.03125"/>
      <use xlink:href="#DejaVuSans-70" x="1134.130859"/>
      <use xlink:href="#DejaVuSans-70" x="1197.607422"/>
      <use xlink:href="#DejaVuSans-2e" x="1261.083984"/>
     </g>
    </g>
    <g id="patch_40">
     <path d="M 400.15 339.867 
L 432.15 339.867 
L 432.15 328.667 
L 400.15 328.667 
z
" style="fill: #7b3f00"/>
    </g>
    <g id="text_17">
     <!--  s__Cutibacterium granulosum -->
     <g transform="translate(444.95 339.867) scale(0.16 -0.16)">
      <defs>
       <path id="DejaVuSans-67" d="M 2906 1791 
Q 2906 2416 2648 2759 
Q 2391 3103 1925 3103 
Q 1463 3103 1205 2759 
Q 947 2416 947 1791 
Q 947 1169 1205 825 
Q 1463 481 1925 481 
Q 2391 481 2648 825 
Q 2906 1169 2906 1791 
z
M 3481 434 
Q 3481 -459 3084 -895 
Q 2688 -1331 1869 -1331 
Q 1566 -1331 1297 -1286 
Q 1028 -1241 775 -1147 
L 775 -588 
Q 1028 -725 1275 -790 
Q 1522 -856 1778 -856 
Q 2344 -856 2625 -561 
Q 2906 -266 2906 331 
L 2906 616 
Q 2728 306 2450 153 
Q 2172 0 1784 0 
Q 1141 0 747 490 
Q 353 981 353 1791 
Q 353 2603 747 3093 
Q 1141 3584 1784 3584 
Q 2172 3584 2450 3431 
Q 2728 3278 2906 2969 
L 2906 3500 
L 3481 3500 
L 3481 434 
z
" transform="scale(0.015625)"/>
      </defs>
      <use xlink:href="#DejaVuSans-20"/>
      <use xlink:href="#DejaVuSans-73" x="31.787109"/>
      <use xlink:href="#DejaVuSans-5f" x="83.886719"/>
      <use xlink:href="#DejaVuSans-5f" x="133.886719"/>
      <use xlink:href="#DejaVuSans-43" x="183.886719"/>
      <use xlink:href="#DejaVuSans-75" x="253.710938"/>
      <use xlink:href="#DejaVuSans-74" x="317.089844"/>
      <use xlink:href="#DejaVuSans-69" x="356.298828"/>
      <use xlink:href="#DejaVuSans-62" x="384.082031"/>
      <use xlink:href="#DejaVuSans-61" x="447.558594"/>
      <use xlink:href="#DejaVuSans-63" x="508.837891"/>
      <use xlink:href="#DejaVuSans-74" x="563.818359"/>
      <use xlink:href="#DejaVuSans-65" x="603.027344"/>
      <use xlink:href="#DejaVuSans-72" x="664.550781"/>
      <use xlink:href="#DejaVuSans-69" x="705.664062"/>
      <use xlink:href="#DejaVuSans-75" x="733.447266"/>
      <use xlink:href="#DejaVuSans-6d" x="796.826172"/>
      <use xlink:href="#DejaVuSans-20" x="894.238281"/>
      <use xlink:href="#DejaVuSans-67" x="926.025391"/>
      <use xlink:href="#DejaVuSans-72" x="989.501953"/>
      <use xlink:href="#DejaVuSans-61" x="1030.615234"/>
      <use xlink:href="#DejaVuSans-6e" x="1091.894531"/>
      <use xlink:href="#DejaVuSans-75" x="1155.273438"/>
      <use xlink:href="#DejaVuSans-6c" x="1218.652344"/>
      <use xlink:href="#DejaVuSans-6f" x="1246.435547"/>
      <use xlink:href="#DejaVuSans-73" x="1307.617188"/>
      <use xlink:href="#DejaVuSans-75" x="1359.716797"/>
      <use xlink:href="#DejaVuSans-6d" x="1423.095703"/>
     </g>
    </g>
    <g id="patch_41">
     <path d="M 400.15 363.797 
L 432.15 363.797 
L 432.15 352.597 
L 400.15 352.597 
z
" style="fill: #f4cccd"/>
    </g>
    <g id="text_18">
     <!--  s__Actinomyces spp. -->
     <g transform="translate(444.95 363.797) scale(0.16 -0.16)">
      <use xlink:href="#DejaVuSans-20"/>
      <use xlink:href="#DejaVuSans-73" x="31.787109"/>
      <use xlink:href="#DejaVuSans-5f" x="83.886719"/>
      <use xlink:href="#DejaVuSans-5f" x="133.886719"/>
      <use xlink:href="#DejaVuSans-41" x="183.886719"/>
      <use xlink:href="#DejaVuSans-63" x="250.544922"/>
      <use xlink:href="#DejaVuSans-74" x="305.525391"/>
      <use xlink:href="#DejaVuSans-69" x="344.734375"/>
      <use xlink:href="#DejaVuSans-6e" x="372.517578"/>
      <use xlink:href="#DejaVuSans-6f" x="435.896484"/>
      <use xlink:href="#DejaVuSans-6d" x="497.078125"/>
      <use xlink:href="#DejaVuSans-79" x="594.490234"/>
      <use xlink:href="#DejaVuSans-63" x="653.669922"/>
      <use xlink:href="#DejaVuSans-65" x="708.650391"/>
      <use xlink:href="#DejaVuSans-73" x="770.173828"/>
      <use xlink:href="#DejaVuSans-20" x="822.273438"/>
      <use xlink:href="#DejaVuSans-73" x="854.060547"/>
      <use xlink:href="#DejaVuSans-70" x="906.160156"/>
      <use xlink:href="#DejaVuSans-70" x="969.636719"/>
      <use xlink:href="#DejaVuSans-2e" x="1033.113281"/>
     </g>
    </g>
    <g id="patch_42">
     <path d="M 400.15 387.727 
L 432.15 387.727 
L 432.15 376.527 
L 400.15 376.527 
z
" style="fill: #bcbcbc"/>
    </g>
    <g id="text_19">
     <!--  s__Alloprevotella spp. -->
     <g transform="translate(444.95 387.727) scale(0.16 -0.16)">
      <use xlink:href="#DejaVuSans-20"/>
      <use xlink:href="#DejaVuSans-73" x="31.787109"/>
      <use xlink:href="#DejaVuSans-5f" x="83.886719"/>
      <use xlink:href="#DejaVuSans-5f" x="133.886719"/>
      <use xlink:href="#DejaVuSans-41" x="183.886719"/>
      <use xlink:href="#DejaVuSans-6c" x="252.294922"/>
      <use xlink:href="#DejaVuSans-6c" x="280.078125"/>
      <use xlink:href="#DejaVuSans-6f" x="307.861328"/>
      <use xlink:href="#DejaVuSans-70" x="369.042969"/>
      <use xlink:href="#DejaVuSans-72" x="432.519531"/>
      <use xlink:href="#DejaVuSans-65" x="471.382812"/>
      <use xlink:href="#DejaVuSans-76" x="532.90625"/>
      <use xlink:href="#DejaVuSans-6f" x="592.085938"/>
      <use xlink:href="#DejaVuSans-74" x="653.267578"/>
      <use xlink:href="#DejaVuSans-65" x="692.476562"/>
      <use xlink:href="#DejaVuSans-6c" x="754"/>
      <use xlink:href="#DejaVuSans-6c" x="781.783203"/>
      <use xlink:href="#DejaVuSans-61" x="809.566406"/>
      <use xlink:href="#DejaVuSans-20" x="870.845703"/>
      <use xlink:href="#DejaVuSans-73" x="902.632812"/>
      <use xlink:href="#DejaVuSans-70" x="954.732422"/>
      <use xlink:href="#DejaVuSans-70" x="1018.208984"/>
      <use xlink:href="#DejaVuSans-2e" x="1081.685547"/>
     </g>
    </g>
    <g id="patch_43">
     <path d="M 400.15 411.657 
L 432.15 411.657 
L 432.15 400.457 
L 400.15 400.457 
z
" style="fill: #ffe59a"/>
    </g>
    <g id="text_20">
     <!--  s__Micrococcus luteus -->
     <g transform="translate(444.95 411.657) scale(0.16 -0.16)">
      <use xlink:href="#DejaVuSans-20"/>
      <use xlink:href="#DejaVuSans-73" x="31.787109"/>
      <use xlink:href="#DejaVuSans-5f" x="83.886719"/>
      <use xlink:href="#DejaVuSans-5f" x="133.886719"/>
      <use xlink:href="#DejaVuSans-4d" x="183.886719"/>
      <use xlink:href="#DejaVuSans-69" x="270.166016"/>
      <use xlink:href="#DejaVuSans-63" x="297.949219"/>
      <use xlink:href="#DejaVuSans-72" x="352.929688"/>
      <use xlink:href="#DejaVuSans-6f" x="391.792969"/>
      <use xlink:href="#DejaVuSans-63" x="452.974609"/>
      <use xlink:href="#DejaVuSans-6f" x="507.955078"/>
      <use xlink:href="#DejaVuSans-63" x="569.136719"/>
      <use xlink:href="#DejaVuSans-63" x="624.117188"/>
      <use xlink:href="#DejaVuSans-75" x="679.097656"/>
      <use xlink:href="#DejaVuSans-73" x="742.476562"/>
      <use xlink:href="#DejaVuSans-20" x="794.576172"/>
      <use xlink:href="#DejaVuSans-6c" x="826.363281"/>
      <use xlink:href="#DejaVuSans-75" x="854.146484"/>
      <use xlink:href="#DejaVuSans-74" x="917.525391"/>
      <use xlink:href="#DejaVuSans-65" x="956.734375"/>
      <use xlink:href="#DejaVuSans-75" x="1018.257812"/>
      <use xlink:href="#DejaVuSans-73" x="1081.636719"/>
     </g>
    </g>
    <g id="patch_44">
     <path d="M 400.15 435.587 
L 432.15 435.587 
L 432.15 424.387 
L 400.15 424.387 
z
" style="fill: #f6475f"/>
    </g>
    <g id="text_21">
     <!--  s__Neisseria cerebrosa -->
     <g transform="translate(444.95 435.587) scale(0.16 -0.16)">
      <use xlink:href="#DejaVuSans-20"/>
      <use xlink:href="#DejaVuSans-73" x="31.787109"/>
      <use xlink:href="#DejaVuSans-5f" x="83.886719"/>
      <use xlink:href="#DejaVuSans-5f" x="133.886719"/>
      <use xlink:href="#DejaVuSans-4e" x="183.886719"/>
      <use xlink:href="#DejaVuSans-65" x="258.691406"/>
      <use xlink:href="#DejaVuSans-69" x="320.214844"/>
      <use xlink:href="#DejaVuSans-73" x="347.998047"/>
      <use xlink:href="#DejaVuSans-73" x="400.097656"/>
      <use xlink:href="#DejaVuSans-65" x="452.197266"/>
      <use xlink:href="#DejaVuSans-72" x="513.720703"/>
      <use xlink:href="#DejaVuSans-69" x="554.833984"/>
      <use xlink:href="#DejaVuSans-61" x="582.617188"/>
      <use xlink:href="#DejaVuSans-20" x="643.896484"/>
      <use xlink:href="#DejaVuSans-63" x="675.683594"/>
      <use xlink:href="#DejaVuSans-65" x="730.664062"/>
      <use xlink:href="#DejaVuSans-72" x="792.1875"/>
      <use xlink:href="#DejaVuSans-65" x="831.050781"/>
      <use xlink:href="#DejaVuSans-62" x="892.574219"/>
      <use xlink:href="#DejaVuSans-72" x="956.050781"/>
      <use xlink:href="#DejaVuSans-6f" x="994.914062"/>
      <use xlink:href="#DejaVuSans-73" x="1056.095703"/>
      <use xlink:href="#DejaVuSans-61" x="1108.195312"/>
     </g>
    </g>
    <g id="patch_45">
     <path d="M 400.15 459.517 
L 432.15 459.517 
L 432.15 448.317 
L 400.15 448.317 
z
" style="fill: #92f0f0"/>
    </g>
    <g id="text_22">
     <!--  s__Streptococcus mitis -->
     <g transform="translate(444.95 459.517) scale(0.16 -0.16)">
      <defs>
       <path id="DejaVuSans-53" d="M 3425 4513 
L 3425 3897 
Q 3066 4069 2747 4153 
Q 2428 4238 2131 4238 
Q 1616 4238 1336 4038 
Q 1056 3838 1056 3469 
Q 1056 3159 1242 3001 
Q 1428 2844 1947 2747 
L 2328 2669 
Q 3034 2534 3370 2195 
Q 3706 1856 3706 1288 
Q 3706 609 3251 259 
Q 2797 -91 1919 -91 
Q 1588 -91 1214 -16 
Q 841 59 441 206 
L 441 856 
Q 825 641 1194 531 
Q 1563 422 1919 422 
Q 2459 422 2753 634 
Q 3047 847 3047 1241 
Q 3047 1584 2836 1778 
Q 2625 1972 2144 2069 
L 1759 2144 
Q 1053 2284 737 2584 
Q 422 2884 422 3419 
Q 422 4038 858 4394 
Q 1294 4750 2059 4750 
Q 2388 4750 2728 4690 
Q 3069 4631 3425 4513 
z
" transform="scale(0.015625)"/>
      </defs>
      <use xlink:href="#DejaVuSans-20"/>
      <use xlink:href="#DejaVuSans-73" x="31.787109"/>
      <use xlink:href="#DejaVuSans-5f" x="83.886719"/>
      <use xlink:href="#DejaVuSans-5f" x="133.886719"/>
      <use xlink:href="#DejaVuSans-53" x="183.886719"/>
      <use xlink:href="#DejaVuSans-74" x="247.363281"/>
      <use xlink:href="#DejaVuSans-72" x="286.572266"/>
      <use xlink:href="#DejaVuSans-65" x="325.435547"/>
      <use xlink:href="#DejaVuSans-70" x="386.958984"/>
      <use xlink:href="#DejaVuSans-74" x="450.435547"/>
      <use xlink:href="#DejaVuSans-6f" x="489.644531"/>
      <use xlink:href="#DejaVuSans-63" x="550.826172"/>
      <use xlink:href="#DejaVuSans-6f" x="605.806641"/>
      <use xlink:href="#DejaVuSans-63" x="666.988281"/>
      <use xlink:href="#DejaVuSans-63" x="721.96875"/>
      <use xlink:href="#DejaVuSans-75" x="776.949219"/>
      <use xlink:href="#DejaVuSans-73" x="840.328125"/>
      <use xlink:href="#DejaVuSans-20" x="892.427734"/>
      <use xlink:href="#DejaVuSans-6d" x="924.214844"/>
      <use xlink:href="#DejaVuSans-69" x="1021.626953"/>
      <use xlink:href="#DejaVuSans-74" x="1049.410156"/>
      <use xlink:href="#DejaVuSans-69" x="1088.619141"/>
      <use xlink:href="#DejaVuSans-73" x="1116.402344"/>
     </g>
    </g>
    <g id="patch_46">
     <path d="M 400.15 483.447 
L 432.15 483.447 
L 432.15 472.247 
L 400.15 472.247 
z
" style="fill: #ededed"/>
    </g>
    <g id="text_23">
     <!-- Others -->
     <g transform="translate(444.95 483.447) scale(0.16 -0.16)">
      <defs>
       <path id="DejaVuSans-4f" d="M 2522 4238 
Q 1834 4238 1429 3725 
Q 1025 3213 1025 2328 
Q 1025 1447 1429 934 
Q 1834 422 2522 422 
Q 3209 422 3611 934 
Q 4013 1447 4013 2328 
Q 4013 3213 3611 3725 
Q 3209 4238 2522 4238 
z
M 2522 4750 
Q 3503 4750 4090 4092 
Q 4678 3434 4678 2328 
Q 4678 1225 4090 567 
Q 3503 -91 2522 -91 
Q 1538 -91 948 565 
Q 359 1222 359 2328 
Q 359 3434 948 4092 
Q 1538 4750 2522 4750 
z
" transform="scale(0.015625)"/>
       <path id="DejaVuSans-68" d="M 3513 2113 
L 3513 0 
L 2938 0 
L 2938 2094 
Q 2938 2591 2744 2837 
Q 2550 3084 2163 3084 
Q 1697 3084 1428 2787 
Q 1159 2491 1159 1978 
L 1159 0 
L 581 0 
L 581 4863 
L 1159 4863 
L 1159 2956 
Q 1366 3272 1645 3428 
Q 1925 3584 2291 3584 
Q 2894 3584 3203 3211 
Q 3513 2838 3513 2113 
z
" transform="scale(0.015625)"/>
      </defs>
      <use xlink:href="#DejaVuSans-4f"/>
      <use xlink:href="#DejaVuSans-74" x="78.710938"/>
      <use xlink:href="#DejaVuSans-68" x="117.919922"/>
      <use xlink:href="#DejaVuSans-65" x="181.298828"/>
      <use xlink:href="#DejaVuSans-72" x="242.822266"/>
      <use xlink:href="#DejaVuSans-73" x="283.935547"/>
     </g>
    </g>
   </g>
  </g>
 </g>
 <defs>
  <clipPath id="pc5bb22068c">
   <rect x="67.34" y="35.52" width="318.41" height="599.864"/>
  </clipPath>
 </defs>
</svg>
