<?xml version="1.0" encoding="utf-8" standalone="no"?>
<!DOCTYPE svg PUBLIC "-//W3C//DTD SVG 1.1//EN"
  "http://www.w3.org/Graphics/SVG/1.1/DTD/svg11.dtd">
<svg xmlns:xlink="http://www.w3.org/1999/xlink" width="648pt" height="432pt" viewBox="0 0 648 432" xmlns="http://www.w3.org/2000/svg" version="1.1">
 <metadata>
  <rdf:RDF xmlns:dc="http://purl.org/dc/elements/1.1/" xmlns:cc="http://creativecommons.org/ns#" xmlns:rdf="http://www.w3.org/1999/02/22-rdf-syntax-ns#">
   <cc:Work>
    <dc:type rdf:resource="http://purl.org/dc/dcmitype/StillImage"/>
    <dc:date>2025-04-12T12:12:41.258482</dc:date>
    <dc:format>image/svg+xml</dc:format>
    <dc:creator>
     <cc:Agent>
      <dc:title>Matplotlib v3.8.4, https://matplotlib.org/</dc:title>
     </cc:Agent>
    </dc:creator>
   </cc:Work>
  </rdf:RDF>
 </metadata>
 <defs>
  <style type="text/css">*{stroke-linejoin: round; stroke-linecap: butt}</style>
 </defs>
 <g id="figure_1">
  <g id="patch_1">
   <path d="M 0 432 
L 648 432 
L 648 0 
L 0 0 
z
" style="fill: #ffffff"/>
  </g>
  <g id="axes_1">
   <g id="patch_2">
    <path d="M 62.360346 403.4 
L 637.2 403.4 
L 637.2 10.8 
L 62.360346 10.8 
z
" style="fill: #ffffff"/>
   </g>
   <g id="patch_3">
    <path d="M 113.757774 321.487802 
L 180.033405 321.487802 
L 180.033405 283.459926 
L 113.757774 283.459926 
L 113.757774 321.487802 
z
" clip-path="url(#p6704155faf)" style="fill: #85c1ca; stroke: #626262; stroke-width: 1.5; stroke-linejoin: miter"/>
   </g>
   <g id="patch_4">
    <path d="M 181.385969 325.613073 
L 247.661599 325.613073 
L 247.661599 283.986967 
L 181.385969 283.986967 
L 181.385969 325.613073 
z
" clip-path="url(#p6704155faf)" style="fill: #e8735e; stroke: #626262; stroke-width: 1.5; stroke-linejoin: miter"/>
   </g>
   <g id="patch_5">
    <path d="M 282.82826 264.081131 
L 349.103891 264.081131 
L 349.103891 137.224608 
L 282.82826 137.224608 
L 282.82826 264.081131 
z
" clip-path="url(#p6704155faf)" style="fill: #85c1ca; stroke: #626262; stroke-width: 1.5; stroke-linejoin: miter"/>
   </g>
   <g id="patch_6">
    <path d="M 350.456455 142.556173 
L 416.732086 142.556173 
L 416.732086 81.935342 
L 350.456455 81.935342 
L 350.456455 142.556173 
z
" clip-path="url(#p6704155faf)" style="fill: #e8735e; stroke: #626262; stroke-width: 1.5; stroke-linejoin: miter"/>
   </g>
   <g id="patch_7">
    <path d="M 451.898747 334.311105 
L 518.174378 334.311105 
L 518.174378 228.62743 
L 451.898747 228.62743 
L 451.898747 334.311105 
z
" clip-path="url(#p6704155faf)" style="fill: #85c1ca; stroke: #626262; stroke-width: 1.5; stroke-linejoin: miter"/>
   </g>
   <g id="patch_8">
    <path d="M 519.526941 338.785883 
L 585.802572 338.785883 
L 585.802572 305.785184 
L 519.526941 305.785184 
L 519.526941 338.785883 
z
" clip-path="url(#p6704155faf)" style="fill: #e8735e; stroke: #626262; stroke-width: 1.5; stroke-linejoin: miter"/>
   </g>
   <g id="patch_9">
    <path d="M 180.709687 169997.432616 
L 180.709687 169997.432616 
L 180.709687 169997.432616 
L 180.709687 169997.432616 
z
" clip-path="url(#p6704155faf)" style="fill: #85c1ca; stroke: #626262; stroke-width: 0.75; stroke-linejoin: miter"/>
   </g>
   <g id="patch_10">
    <path d="M 180.709687 169997.432616 
L 180.709687 169997.432616 
L 180.709687 169997.432616 
L 180.709687 169997.432616 
z
" clip-path="url(#p6704155faf)" style="fill: #e8735e; stroke: #626262; stroke-width: 0.75; stroke-linejoin: miter"/>
   </g>
   <g id="matplotlib.axis_1">
    <g id="xtick_1">
     <g id="line2d_1">
      <defs>
       <path id="m4f1d08b886" d="M 0 0 
L 0 3.5 
" style="stroke: #000000; stroke-width: 0.8"/>
      </defs>
      <g>
       <use xlink:href="#m4f1d08b886" x="180.709687" y="403.4" style="stroke: #000000; stroke-width: 0.8"/>
      </g>
     </g>
     <g id="text_1">
      <!-- Cutibacterium acnes -->
      <g transform="translate(118.586249 419.518125) scale(0.12 -0.12)">
       <defs>
        <path id="DejaVuSans-43" d="M 4122 4306 
L 4122 3641 
Q 3803 3938 3442 4084 
Q 3081 4231 2675 4231 
Q 1875 4231 1450 3742 
Q 1025 3253 1025 2328 
Q 1025 1406 1450 917 
Q 1875 428 2675 428 
Q 3081 428 3442 575 
Q 3803 722 4122 1019 
L 4122 359 
Q 3791 134 3420 21 
Q 3050 -91 2638 -91 
Q 1578 -91 968 557 
Q 359 1206 359 2328 
Q 359 3453 968 4101 
Q 1578 4750 2638 4750 
Q 3056 4750 3426 4639 
Q 3797 4528 4122 4306 
z
" transform="scale(0.015625)"/>
        <path id="DejaVuSans-75" d="M 544 1381 
L 544 3500 
L 1119 3500 
L 1119 1403 
Q 1119 906 1312 657 
Q 1506 409 1894 409 
Q 2359 409 2629 706 
Q 2900 1003 2900 1516 
L 2900 3500 
L 3475 3500 
L 3475 0 
L 2900 0 
L 2900 538 
Q 2691 219 2414 64 
Q 2138 -91 1772 -91 
Q 1169 -91 856 284 
Q 544 659 544 1381 
z
M 1991 3584 
L 1991 3584 
z
" transform="scale(0.015625)"/>
        <path id="DejaVuSans-74" d="M 1172 4494 
L 1172 3500 
L 2356 3500 
L 2356 3053 
L 1172 3053 
L 1172 1153 
Q 1172 725 1289 603 
Q 1406 481 1766 481 
L 2356 481 
L 2356 0 
L 1766 0 
Q 1100 0 847 248 
Q 594 497 594 1153 
L 594 3053 
L 172 3053 
L 172 3500 
L 594 3500 
L 594 4494 
L 1172 4494 
z
" transform="scale(0.015625)"/>
        <path id="DejaVuSans-69" d="M 603 3500 
L 1178 3500 
L 1178 0 
L 603 0 
L 603 3500 
z
M 603 4863 
L 1178 4863 
L 1178 4134 
L 603 4134 
L 603 4863 
z
" transform="scale(0.015625)"/>
        <path id="DejaVuSans-62" d="M 3116 1747 
Q 3116 2381 2855 2742 
Q 2594 3103 2138 3103 
Q 1681 3103 1420 2742 
Q 1159 2381 1159 1747 
Q 1159 1113 1420 752 
Q 1681 391 2138 391 
Q 2594 391 2855 752 
Q 3116 1113 3116 1747 
z
M 1159 2969 
Q 1341 3281 1617 3432 
Q 1894 3584 2278 3584 
Q 2916 3584 3314 3078 
Q 3713 2572 3713 1747 
Q 3713 922 3314 415 
Q 2916 -91 2278 -91 
Q 1894 -91 1617 61 
Q 1341 213 1159 525 
L 1159 0 
L 581 0 
L 581 4863 
L 1159 4863 
L 1159 2969 
z
" transform="scale(0.015625)"/>
        <path id="DejaVuSans-61" d="M 2194 1759 
Q 1497 1759 1228 1600 
Q 959 1441 959 1056 
Q 959 750 1161 570 
Q 1363 391 1709 391 
Q 2188 391 2477 730 
Q 2766 1069 2766 1631 
L 2766 1759 
L 2194 1759 
z
M 3341 1997 
L 3341 0 
L 2766 0 
L 2766 531 
Q 2569 213 2275 61 
Q 1981 -91 1556 -91 
Q 1019 -91 701 211 
Q 384 513 384 1019 
Q 384 1609 779 1909 
Q 1175 2209 1959 2209 
L 2766 2209 
L 2766 2266 
Q 2766 2663 2505 2880 
Q 2244 3097 1772 3097 
Q 1472 3097 1187 3025 
Q 903 2953 641 2809 
L 641 3341 
Q 956 3463 1253 3523 
Q 1550 3584 1831 3584 
Q 2591 3584 2966 3190 
Q 3341 2797 3341 1997 
z
" transform="scale(0.015625)"/>
        <path id="DejaVuSans-63" d="M 3122 3366 
L 3122 2828 
Q 2878 2963 2633 3030 
Q 2388 3097 2138 3097 
Q 1578 3097 1268 2742 
Q 959 2388 959 1747 
Q 959 1106 1268 751 
Q 1578 397 2138 397 
Q 2388 397 2633 464 
Q 2878 531 3122 666 
L 3122 134 
Q 2881 22 2623 -34 
Q 2366 -91 2075 -91 
Q 1284 -91 818 406 
Q 353 903 353 1747 
Q 353 2603 823 3093 
Q 1294 3584 2113 3584 
Q 2378 3584 2631 3529 
Q 2884 3475 3122 3366 
z
" transform="scale(0.015625)"/>
        <path id="DejaVuSans-65" d="M 3597 1894 
L 3597 1613 
L 953 1613 
Q 991 1019 1311 708 
Q 1631 397 2203 397 
Q 2534 397 2845 478 
Q 3156 559 3463 722 
L 3463 178 
Q 3153 47 2828 -22 
Q 2503 -91 2169 -91 
Q 1331 -91 842 396 
Q 353 884 353 1716 
Q 353 2575 817 3079 
Q 1281 3584 2069 3584 
Q 2775 3584 3186 3129 
Q 3597 2675 3597 1894 
z
M 3022 2063 
Q 3016 2534 2758 2815 
Q 2500 3097 2075 3097 
Q 1594 3097 1305 2825 
Q 1016 2553 972 2059 
L 3022 2063 
z
" transform="scale(0.015625)"/>
        <path id="DejaVuSans-72" d="M 2631 2963 
Q 2534 3019 2420 3045 
Q 2306 3072 2169 3072 
Q 1681 3072 1420 2755 
Q 1159 2438 1159 1844 
L 1159 0 
L 581 0 
L 581 3500 
L 1159 3500 
L 1159 2956 
Q 1341 3275 1631 3429 
Q 1922 3584 2338 3584 
Q 2397 3584 2469 3576 
Q 2541 3569 2628 3553 
L 2631 2963 
z
" transform="scale(0.015625)"/>
        <path id="DejaVuSans-6d" d="M 3328 2828 
Q 3544 3216 3844 3400 
Q 4144 3584 4550 3584 
Q 5097 3584 5394 3201 
Q 5691 2819 5691 2113 
L 5691 0 
L 5113 0 
L 5113 2094 
Q 5113 2597 4934 2840 
Q 4756 3084 4391 3084 
Q 3944 3084 3684 2787 
Q 3425 2491 3425 1978 
L 3425 0 
L 2847 0 
L 2847 2094 
Q 2847 2600 2669 2842 
Q 2491 3084 2119 3084 
Q 1678 3084 1418 2786 
Q 1159 2488 1159 1978 
L 1159 0 
L 581 0 
L 581 3500 
L 1159 3500 
L 1159 2956 
Q 1356 3278 1631 3431 
Q 1906 3584 2284 3584 
Q 2666 3584 2933 3390 
Q 3200 3197 3328 2828 
z
" transform="scale(0.015625)"/>
        <path id="DejaVuSans-20" transform="scale(0.015625)"/>
        <path id="DejaVuSans-6e" d="M 3513 2113 
L 3513 0 
L 2938 0 
L 2938 2094 
Q 2938 2591 2744 2837 
Q 2550 3084 2163 3084 
Q 1697 3084 1428 2787 
Q 1159 2491 1159 1978 
L 1159 0 
L 581 0 
L 581 3500 
L 1159 3500 
L 1159 2956 
Q 1366 3272 1645 3428 
Q 1925 3584 2291 3584 
Q 2894 3584 3203 3211 
Q 3513 2838 3513 2113 
z
" transform="scale(0.015625)"/>
        <path id="DejaVuSans-73" d="M 2834 3397 
L 2834 2853 
Q 2591 2978 2328 3040 
Q 2066 3103 1784 3103 
Q 1356 3103 1142 2972 
Q 928 2841 928 2578 
Q 928 2378 1081 2264 
Q 1234 2150 1697 2047 
L 1894 2003 
Q 2506 1872 2764 1633 
Q 3022 1394 3022 966 
Q 3022 478 2636 193 
Q 2250 -91 1575 -91 
Q 1294 -91 989 -36 
Q 684 19 347 128 
L 347 722 
Q 666 556 975 473 
Q 1284 391 1588 391 
Q 1994 391 2212 530 
Q 2431 669 2431 922 
Q 2431 1156 2273 1281 
Q 2116 1406 1581 1522 
L 1381 1569 
Q 847 1681 609 1914 
Q 372 2147 372 2553 
Q 372 3047 722 3315 
Q 1072 3584 1716 3584 
Q 2034 3584 2315 3537 
Q 2597 3491 2834 3397 
z
" transform="scale(0.015625)"/>
       </defs>
       <use xlink:href="#DejaVuSans-43"/>
       <use xlink:href="#DejaVuSans-75" x="69.824219"/>
       <use xlink:href="#DejaVuSans-74" x="133.203125"/>
       <use xlink:href="#DejaVuSans-69" x="172.412109"/>
       <use xlink:href="#DejaVuSans-62" x="200.195312"/>
       <use xlink:href="#DejaVuSans-61" x="263.671875"/>
       <use xlink:href="#DejaVuSans-63" x="324.951172"/>
       <use xlink:href="#DejaVuSans-74" x="379.931641"/>
       <use xlink:href="#DejaVuSans-65" x="419.140625"/>
       <use xlink:href="#DejaVuSans-72" x="480.664062"/>
       <use xlink:href="#DejaVuSans-69" x="521.777344"/>
       <use xlink:href="#DejaVuSans-75" x="549.560547"/>
       <use xlink:href="#DejaVuSans-6d" x="612.939453"/>
       <use xlink:href="#DejaVuSans-20" x="710.351562"/>
       <use xlink:href="#DejaVuSans-61" x="742.138672"/>
       <use xlink:href="#DejaVuSans-63" x="803.417969"/>
       <use xlink:href="#DejaVuSans-6e" x="858.398438"/>
       <use xlink:href="#DejaVuSans-65" x="921.777344"/>
       <use xlink:href="#DejaVuSans-73" x="983.300781"/>
      </g>
     </g>
    </g>
    <g id="xtick_2">
     <g id="line2d_2">
      <g>
       <use xlink:href="#m4f1d08b886" x="349.780173" y="403.4" style="stroke: #000000; stroke-width: 0.8"/>
      </g>
     </g>
     <g id="text_2">
      <!-- Corynebacterium spp. -->
      <g transform="translate(283.240173 419.518125) scale(0.12 -0.12)">
       <defs>
        <path id="DejaVuSans-6f" d="M 1959 3097 
Q 1497 3097 1228 2736 
Q 959 2375 959 1747 
Q 959 1119 1226 758 
Q 1494 397 1959 397 
Q 2419 397 2687 759 
Q 2956 1122 2956 1747 
Q 2956 2369 2687 2733 
Q 2419 3097 1959 3097 
z
M 1959 3584 
Q 2709 3584 3137 3096 
Q 3566 2609 3566 1747 
Q 3566 888 3137 398 
Q 2709 -91 1959 -91 
Q 1206 -91 779 398 
Q 353 888 353 1747 
Q 353 2609 779 3096 
Q 1206 3584 1959 3584 
z
" transform="scale(0.015625)"/>
        <path id="DejaVuSans-79" d="M 2059 -325 
Q 1816 -950 1584 -1140 
Q 1353 -1331 966 -1331 
L 506 -1331 
L 506 -850 
L 844 -850 
Q 1081 -850 1212 -737 
Q 1344 -625 1503 -206 
L 1606 56 
L 191 3500 
L 800 3500 
L 1894 763 
L 2988 3500 
L 3597 3500 
L 2059 -325 
z
" transform="scale(0.015625)"/>
        <path id="DejaVuSans-70" d="M 1159 525 
L 1159 -1331 
L 581 -1331 
L 581 3500 
L 1159 3500 
L 1159 2969 
Q 1341 3281 1617 3432 
Q 1894 3584 2278 3584 
Q 2916 3584 3314 3078 
Q 3713 2572 3713 1747 
Q 3713 922 3314 415 
Q 2916 -91 2278 -91 
Q 1894 -91 1617 61 
Q 1341 213 1159 525 
z
M 3116 1747 
Q 3116 2381 2855 2742 
Q 2594 3103 2138 3103 
Q 1681 3103 1420 2742 
Q 1159 2381 1159 1747 
Q 1159 1113 1420 752 
Q 1681 391 2138 391 
Q 2594 391 2855 752 
Q 3116 1113 3116 1747 
z
" transform="scale(0.015625)"/>
        <path id="DejaVuSans-2e" d="M 684 794 
L 1344 794 
L 1344 0 
L 684 0 
L 684 794 
z
" transform="scale(0.015625)"/>
       </defs>
       <use xlink:href="#DejaVuSans-43"/>
       <use xlink:href="#DejaVuSans-6f" x="69.824219"/>
       <use xlink:href="#DejaVuSans-72" x="131.005859"/>
       <use xlink:href="#DejaVuSans-79" x="172.119141"/>
       <use xlink:href="#DejaVuSans-6e" x="231.298828"/>
       <use xlink:href="#DejaVuSans-65" x="294.677734"/>
       <use xlink:href="#DejaVuSans-62" x="356.201172"/>
       <use xlink:href="#DejaVuSans-61" x="419.677734"/>
       <use xlink:href="#DejaVuSans-63" x="480.957031"/>
       <use xlink:href="#DejaVuSans-74" x="535.9375"/>
       <use xlink:href="#DejaVuSans-65" x="575.146484"/>
       <use xlink:href="#DejaVuSans-72" x="636.669922"/>
       <use xlink:href="#DejaVuSans-69" x="677.783203"/>
       <use xlink:href="#DejaVuSans-75" x="705.566406"/>
       <use xlink:href="#DejaVuSans-6d" x="768.945312"/>
       <use xlink:href="#DejaVuSans-20" x="866.357422"/>
       <use xlink:href="#DejaVuSans-73" x="898.144531"/>
       <use xlink:href="#DejaVuSans-70" x="950.244141"/>
       <use xlink:href="#DejaVuSans-70" x="1013.720703"/>
       <use xlink:href="#DejaVuSans-2e" x="1077.197266"/>
      </g>
     </g>
    </g>
    <g id="xtick_3">
     <g id="line2d_3">
      <g>
       <use xlink:href="#m4f1d08b886" x="518.850659" y="403.4" style="stroke: #000000; stroke-width: 0.8"/>
      </g>
     </g>
     <g id="text_3">
      <!-- Lawsonella cleavelandensis -->
      <g transform="translate(435.769409 419.518125) scale(0.12 -0.12)">
       <defs>
        <path id="DejaVuSans-4c" d="M 628 4666 
L 1259 4666 
L 1259 531 
L 3531 531 
L 3531 0 
L 628 0 
L 628 4666 
z
" transform="scale(0.015625)"/>
        <path id="DejaVuSans-77" d="M 269 3500 
L 844 3500 
L 1563 769 
L 2278 3500 
L 2956 3500 
L 3675 769 
L 4391 3500 
L 4966 3500 
L 4050 0 
L 3372 0 
L 2619 2869 
L 1863 0 
L 1184 0 
L 269 3500 
z
" transform="scale(0.015625)"/>
        <path id="DejaVuSans-6c" d="M 603 4863 
L 1178 4863 
L 1178 0 
L 603 0 
L 603 4863 
z
" transform="scale(0.015625)"/>
        <path id="DejaVuSans-76" d="M 191 3500 
L 800 3500 
L 1894 563 
L 2988 3500 
L 3597 3500 
L 2284 0 
L 1503 0 
L 191 3500 
z
" transform="scale(0.015625)"/>
        <path id="DejaVuSans-64" d="M 2906 2969 
L 2906 4863 
L 3481 4863 
L 3481 0 
L 2906 0 
L 2906 525 
Q 2725 213 2448 61 
Q 2172 -91 1784 -91 
Q 1150 -91 751 415 
Q 353 922 353 1747 
Q 353 2572 751 3078 
Q 1150 3584 1784 3584 
Q 2172 3584 2448 3432 
Q 2725 3281 2906 2969 
z
M 947 1747 
Q 947 1113 1208 752 
Q 1469 391 1925 391 
Q 2381 391 2643 752 
Q 2906 1113 2906 1747 
Q 2906 2381 2643 2742 
Q 2381 3103 1925 3103 
Q 1469 3103 1208 2742 
Q 947 2381 947 1747 
z
" transform="scale(0.015625)"/>
       </defs>
       <use xlink:href="#DejaVuSans-4c"/>
       <use xlink:href="#DejaVuSans-61" x="55.712891"/>
       <use xlink:href="#DejaVuSans-77" x="116.992188"/>
       <use xlink:href="#DejaVuSans-73" x="198.779297"/>
       <use xlink:href="#DejaVuSans-6f" x="250.878906"/>
       <use xlink:href="#DejaVuSans-6e" x="312.060547"/>
       <use xlink:href="#DejaVuSans-65" x="375.439453"/>
       <use xlink:href="#DejaVuSans-6c" x="436.962891"/>
       <use xlink:href="#DejaVuSans-6c" x="464.746094"/>
       <use xlink:href="#DejaVuSans-61" x="492.529297"/>
       <use xlink:href="#DejaVuSans-20" x="553.808594"/>
       <use xlink:href="#DejaVuSans-63" x="585.595703"/>
       <use xlink:href="#DejaVuSans-6c" x="640.576172"/>
       <use xlink:href="#DejaVuSans-65" x="668.359375"/>
       <use xlink:href="#DejaVuSans-61" x="729.882812"/>
       <use xlink:href="#DejaVuSans-76" x="791.162109"/>
       <use xlink:href="#DejaVuSans-65" x="850.341797"/>
       <use xlink:href="#DejaVuSans-6c" x="911.865234"/>
       <use xlink:href="#DejaVuSans-61" x="939.648438"/>
       <use xlink:href="#DejaVuSans-6e" x="1000.927734"/>
       <use xlink:href="#DejaVuSans-64" x="1064.306641"/>
       <use xlink:href="#DejaVuSans-65" x="1127.783203"/>
       <use xlink:href="#DejaVuSans-6e" x="1189.306641"/>
       <use xlink:href="#DejaVuSans-73" x="1252.685547"/>
       <use xlink:href="#DejaVuSans-69" x="1304.785156"/>
       <use xlink:href="#DejaVuSans-73" x="1332.568359"/>
      </g>
     </g>
    </g>
   </g>
   <g id="matplotlib.axis_2">
    <g id="ytick_1">
     <g id="line2d_4">
      <defs>
       <path id="m34dcb2fddb" d="M 0 0 
L -3.5 0 
" style="stroke: #000000; stroke-width: 0.8"/>
      </defs>
      <g>
       <use xlink:href="#m34dcb2fddb" x="62.360346" y="256.901815" style="stroke: #000000; stroke-width: 0.8"/>
      </g>
     </g>
     <g id="text_4">
      <!-- 10$^{-3}$ -->
      <g transform="translate(31.860346 260.701033) scale(0.1 -0.1)">
       <defs>
        <path id="DejaVuSans-31" d="M 794 531 
L 1825 531 
L 1825 4091 
L 703 3866 
L 703 4441 
L 1819 4666 
L 2450 4666 
L 2450 531 
L 3481 531 
L 3481 0 
L 794 0 
L 794 531 
z
" transform="scale(0.015625)"/>
        <path id="DejaVuSans-30" d="M 2034 4250 
Q 1547 4250 1301 3770 
Q 1056 3291 1056 2328 
Q 1056 1369 1301 889 
Q 1547 409 2034 409 
Q 2525 409 2770 889 
Q 3016 1369 3016 2328 
Q 3016 3291 2770 3770 
Q 2525 4250 2034 4250 
z
M 2034 4750 
Q 2819 4750 3233 4129 
Q 3647 3509 3647 2328 
Q 3647 1150 3233 529 
Q 2819 -91 2034 -91 
Q 1250 -91 836 529 
Q 422 1150 422 2328 
Q 422 3509 836 4129 
Q 1250 4750 2034 4750 
z
" transform="scale(0.015625)"/>
        <path id="DejaVuSans-2212" d="M 678 2272 
L 4684 2272 
L 4684 1741 
L 678 1741 
L 678 2272 
z
" transform="scale(0.015625)"/>
        <path id="DejaVuSans-33" d="M 2597 2516 
Q 3050 2419 3304 2112 
Q 3559 1806 3559 1356 
Q 3559 666 3084 287 
Q 2609 -91 1734 -91 
Q 1441 -91 1130 -33 
Q 819 25 488 141 
L 488 750 
Q 750 597 1062 519 
Q 1375 441 1716 441 
Q 2309 441 2620 675 
Q 2931 909 2931 1356 
Q 2931 1769 2642 2001 
Q 2353 2234 1838 2234 
L 1294 2234 
L 1294 2753 
L 1863 2753 
Q 2328 2753 2575 2939 
Q 2822 3125 2822 3475 
Q 2822 3834 2567 4026 
Q 2313 4219 1838 4219 
Q 1578 4219 1281 4162 
Q 984 4106 628 3988 
L 628 4550 
Q 988 4650 1302 4700 
Q 1616 4750 1894 4750 
Q 2613 4750 3031 4423 
Q 3450 4097 3450 3541 
Q 3450 3153 3228 2886 
Q 3006 2619 2597 2516 
z
" transform="scale(0.015625)"/>
       </defs>
       <use xlink:href="#DejaVuSans-31" transform="translate(0 0.765625)"/>
       <use xlink:href="#DejaVuSans-30" transform="translate(63.623047 0.765625)"/>
       <use xlink:href="#DejaVuSans-2212" transform="translate(128.203125 39.046875) scale(0.7)"/>
       <use xlink:href="#DejaVuSans-33" transform="translate(186.855469 39.046875) scale(0.7)"/>
      </g>
     </g>
    </g>
    <g id="ytick_2">
     <g id="line2d_5">
      <g>
       <use xlink:href="#m34dcb2fddb" x="62.360346" y="86.65053" style="stroke: #000000; stroke-width: 0.8"/>
      </g>
     </g>
     <g id="text_5">
      <!-- 10$^{-2}$ -->
      <g transform="translate(31.860346 90.449749) scale(0.1 -0.1)">
       <defs>
        <path id="DejaVuSans-32" d="M 1228 531 
L 3431 531 
L 3431 0 
L 469 0 
L 469 531 
Q 828 903 1448 1529 
Q 2069 2156 2228 2338 
Q 2531 2678 2651 2914 
Q 2772 3150 2772 3378 
Q 2772 3750 2511 3984 
Q 2250 4219 1831 4219 
Q 1534 4219 1204 4116 
Q 875 4013 500 3803 
L 500 4441 
Q 881 4594 1212 4672 
Q 1544 4750 1819 4750 
Q 2544 4750 2975 4387 
Q 3406 4025 3406 3419 
Q 3406 3131 3298 2873 
Q 3191 2616 2906 2266 
Q 2828 2175 2409 1742 
Q 1991 1309 1228 531 
z
" transform="scale(0.015625)"/>
       </defs>
       <use xlink:href="#DejaVuSans-31" transform="translate(0 0.765625)"/>
       <use xlink:href="#DejaVuSans-30" transform="translate(63.623047 0.765625)"/>
       <use xlink:href="#DejaVuSans-2212" transform="translate(128.203125 39.046875) scale(0.7)"/>
       <use xlink:href="#DejaVuSans-32" transform="translate(186.855469 39.046875) scale(0.7)"/>
      </g>
     </g>
    </g>
    <g id="ytick_3">
     <g id="line2d_6">
      <defs>
       <path id="m3a25f3ffd1" d="M 0 0 
L -2 0 
" style="stroke: #000000; stroke-width: 0.6"/>
      </defs>
      <g>
       <use xlink:href="#m3a25f3ffd1" x="62.360346" y="375.902356" style="stroke: #000000; stroke-width: 0.6"/>
      </g>
     </g>
    </g>
    <g id="ytick_4">
     <g id="line2d_7">
      <g>
       <use xlink:href="#m3a25f3ffd1" x="62.360346" y="345.922593" style="stroke: #000000; stroke-width: 0.6"/>
      </g>
     </g>
    </g>
    <g id="ytick_5">
     <g id="line2d_8">
      <g>
       <use xlink:href="#m3a25f3ffd1" x="62.360346" y="324.651612" style="stroke: #000000; stroke-width: 0.6"/>
      </g>
     </g>
    </g>
    <g id="ytick_6">
     <g id="line2d_9">
      <g>
       <use xlink:href="#m3a25f3ffd1" x="62.360346" y="308.152558" style="stroke: #000000; stroke-width: 0.6"/>
      </g>
     </g>
    </g>
    <g id="ytick_7">
     <g id="line2d_10">
      <g>
       <use xlink:href="#m3a25f3ffd1" x="62.360346" y="294.671849" style="stroke: #000000; stroke-width: 0.6"/>
      </g>
     </g>
    </g>
    <g id="ytick_8">
     <g id="line2d_11">
      <g>
       <use xlink:href="#m3a25f3ffd1" x="62.360346" y="283.274072" style="stroke: #000000; stroke-width: 0.6"/>
      </g>
     </g>
    </g>
    <g id="ytick_9">
     <g id="line2d_12">
      <g>
       <use xlink:href="#m3a25f3ffd1" x="62.360346" y="273.400869" style="stroke: #000000; stroke-width: 0.6"/>
      </g>
     </g>
    </g>
    <g id="ytick_10">
     <g id="line2d_13">
      <g>
       <use xlink:href="#m3a25f3ffd1" x="62.360346" y="264.692086" style="stroke: #000000; stroke-width: 0.6"/>
      </g>
     </g>
    </g>
    <g id="ytick_11">
     <g id="line2d_14">
      <g>
       <use xlink:href="#m3a25f3ffd1" x="62.360346" y="205.651071" style="stroke: #000000; stroke-width: 0.6"/>
      </g>
     </g>
    </g>
    <g id="ytick_12">
     <g id="line2d_15">
      <g>
       <use xlink:href="#m3a25f3ffd1" x="62.360346" y="175.671308" style="stroke: #000000; stroke-width: 0.6"/>
      </g>
     </g>
    </g>
    <g id="ytick_13">
     <g id="line2d_16">
      <g>
       <use xlink:href="#m3a25f3ffd1" x="62.360346" y="154.400328" style="stroke: #000000; stroke-width: 0.6"/>
      </g>
     </g>
    </g>
    <g id="ytick_14">
     <g id="line2d_17">
      <g>
       <use xlink:href="#m3a25f3ffd1" x="62.360346" y="137.901273" style="stroke: #000000; stroke-width: 0.6"/>
      </g>
     </g>
    </g>
    <g id="ytick_15">
     <g id="line2d_18">
      <g>
       <use xlink:href="#m3a25f3ffd1" x="62.360346" y="124.420565" style="stroke: #000000; stroke-width: 0.6"/>
      </g>
     </g>
    </g>
    <g id="ytick_16">
     <g id="line2d_19">
      <g>
       <use xlink:href="#m3a25f3ffd1" x="62.360346" y="113.022788" style="stroke: #000000; stroke-width: 0.6"/>
      </g>
     </g>
    </g>
    <g id="ytick_17">
     <g id="line2d_20">
      <g>
       <use xlink:href="#m3a25f3ffd1" x="62.360346" y="103.149584" style="stroke: #000000; stroke-width: 0.6"/>
      </g>
     </g>
    </g>
    <g id="ytick_18">
     <g id="line2d_21">
      <g>
       <use xlink:href="#m3a25f3ffd1" x="62.360346" y="94.440801" style="stroke: #000000; stroke-width: 0.6"/>
      </g>
     </g>
    </g>
    <g id="ytick_19">
     <g id="line2d_22">
      <g>
       <use xlink:href="#m3a25f3ffd1" x="62.360346" y="35.399786" style="stroke: #000000; stroke-width: 0.6"/>
      </g>
     </g>
    </g>
    <g id="text_6">
     <!-- InStrain Nucleotide Diversity ($\pi$) -->
     <g transform="translate(24.920346 319.38) rotate(-90) scale(0.14 -0.14)">
      <defs>
       <path id="DejaVuSans-49" d="M 628 4666 
L 1259 4666 
L 1259 0 
L 628 0 
L 628 4666 
z
" transform="scale(0.015625)"/>
       <path id="DejaVuSans-53" d="M 3425 4513 
L 3425 3897 
Q 3066 4069 2747 4153 
Q 2428 4238 2131 4238 
Q 1616 4238 1336 4038 
Q 1056 3838 1056 3469 
Q 1056 3159 1242 3001 
Q 1428 2844 1947 2747 
L 2328 2669 
Q 3034 2534 3370 2195 
Q 3706 1856 3706 1288 
Q 3706 609 3251 259 
Q 2797 -91 1919 -91 
Q 1588 -91 1214 -16 
Q 841 59 441 206 
L 441 856 
Q 825 641 1194 531 
Q 1563 422 1919 422 
Q 2459 422 2753 634 
Q 3047 847 3047 1241 
Q 3047 1584 2836 1778 
Q 2625 1972 2144 2069 
L 1759 2144 
Q 1053 2284 737 2584 
Q 422 2884 422 3419 
Q 422 4038 858 4394 
Q 1294 4750 2059 4750 
Q 2388 4750 2728 4690 
Q 3069 4631 3425 4513 
z
" transform="scale(0.015625)"/>
       <path id="DejaVuSans-4e" d="M 628 4666 
L 1478 4666 
L 3547 763 
L 3547 4666 
L 4159 4666 
L 4159 0 
L 3309 0 
L 1241 3903 
L 1241 0 
L 628 0 
L 628 4666 
z
" transform="scale(0.015625)"/>
       <path id="DejaVuSans-44" d="M 1259 4147 
L 1259 519 
L 2022 519 
Q 2988 519 3436 956 
Q 3884 1394 3884 2338 
Q 3884 3275 3436 3711 
Q 2988 4147 2022 4147 
L 1259 4147 
z
M 628 4666 
L 1925 4666 
Q 3281 4666 3915 4102 
Q 4550 3538 4550 2338 
Q 4550 1131 3912 565 
Q 3275 0 1925 0 
L 628 0 
L 628 4666 
z
" transform="scale(0.015625)"/>
       <path id="DejaVuSans-28" d="M 1984 4856 
Q 1566 4138 1362 3434 
Q 1159 2731 1159 2009 
Q 1159 1288 1364 580 
Q 1569 -128 1984 -844 
L 1484 -844 
Q 1016 -109 783 600 
Q 550 1309 550 2009 
Q 550 2706 781 3412 
Q 1013 4119 1484 4856 
L 1984 4856 
z
" transform="scale(0.015625)"/>
       <path id="DejaVuSans-Oblique-3c0" d="M 584 3500 
L 3938 3500 
L 3825 2925 
L 3384 2925 
L 2966 775 
Q 2922 550 2981 450 
Q 3038 353 3209 353 
Q 3256 353 3325 363 
Q 3397 369 3419 372 
L 3338 -44 
Q 3222 -84 3103 -103 
Q 2981 -122 2866 -122 
Q 2491 -122 2388 81 
Q 2284 288 2391 838 
L 2797 2925 
L 1506 2925 
L 938 0 
L 350 0 
L 919 2925 
L 472 2925 
L 584 3500 
z
" transform="scale(0.015625)"/>
       <path id="DejaVuSans-29" d="M 513 4856 
L 1013 4856 
Q 1481 4119 1714 3412 
Q 1947 2706 1947 2009 
Q 1947 1309 1714 600 
Q 1481 -109 1013 -844 
L 513 -844 
Q 928 -128 1133 580 
Q 1338 1288 1338 2009 
Q 1338 2731 1133 3434 
Q 928 4138 513 4856 
z
" transform="scale(0.015625)"/>
      </defs>
      <use xlink:href="#DejaVuSans-49" transform="translate(0 0.015625)"/>
      <use xlink:href="#DejaVuSans-6e" transform="translate(29.492188 0.015625)"/>
      <use xlink:href="#DejaVuSans-53" transform="translate(92.871094 0.015625)"/>
      <use xlink:href="#DejaVuSans-74" transform="translate(156.347656 0.015625)"/>
      <use xlink:href="#DejaVuSans-72" transform="translate(195.556641 0.015625)"/>
      <use xlink:href="#DejaVuSans-61" transform="translate(236.669922 0.015625)"/>
      <use xlink:href="#DejaVuSans-69" transform="translate(297.949219 0.015625)"/>
      <use xlink:href="#DejaVuSans-6e" transform="translate(325.732422 0.015625)"/>
      <use xlink:href="#DejaVuSans-20" transform="translate(389.111328 0.015625)"/>
      <use xlink:href="#DejaVuSans-4e" transform="translate(420.898438 0.015625)"/>
      <use xlink:href="#DejaVuSans-75" transform="translate(495.703125 0.015625)"/>
      <use xlink:href="#DejaVuSans-63" transform="translate(559.082031 0.015625)"/>
      <use xlink:href="#DejaVuSans-6c" transform="translate(614.0625 0.015625)"/>
      <use xlink:href="#DejaVuSans-65" transform="translate(641.845703 0.015625)"/>
      <use xlink:href="#DejaVuSans-6f" transform="translate(703.369141 0.015625)"/>
      <use xlink:href="#DejaVuSans-74" transform="translate(764.550781 0.015625)"/>
      <use xlink:href="#DejaVuSans-69" transform="translate(803.759766 0.015625)"/>
      <use xlink:href="#DejaVuSans-64" transform="translate(831.542969 0.015625)"/>
      <use xlink:href="#DejaVuSans-65" transform="translate(895.019531 0.015625)"/>
      <use xlink:href="#DejaVuSans-20" transform="translate(956.542969 0.015625)"/>
      <use xlink:href="#DejaVuSans-44" transform="translate(988.330078 0.015625)"/>
      <use xlink:href="#DejaVuSans-69" transform="translate(1065.332031 0.015625)"/>
      <use xlink:href="#DejaVuSans-76" transform="translate(1093.115234 0.015625)"/>
      <use xlink:href="#DejaVuSans-65" transform="translate(1152.294922 0.015625)"/>
      <use xlink:href="#DejaVuSans-72" transform="translate(1213.818359 0.015625)"/>
      <use xlink:href="#DejaVuSans-73" transform="translate(1254.931641 0.015625)"/>
      <use xlink:href="#DejaVuSans-69" transform="translate(1307.03125 0.015625)"/>
      <use xlink:href="#DejaVuSans-74" transform="translate(1334.814453 0.015625)"/>
      <use xlink:href="#DejaVuSans-79" transform="translate(1374.023438 0.015625)"/>
      <use xlink:href="#DejaVuSans-20" transform="translate(1433.203125 0.015625)"/>
      <use xlink:href="#DejaVuSans-28" transform="translate(1464.990234 0.015625)"/>
      <use xlink:href="#DejaVuSans-Oblique-3c0" transform="translate(1504.003906 0.015625)"/>
      <use xlink:href="#DejaVuSans-29" transform="translate(1564.208984 0.015625)"/>
     </g>
    </g>
   </g>
   <g id="line2d_23">
    <path d="M 146.895589 321.487802 
L 146.895589 361.768933 
" clip-path="url(#p6704155faf)" style="fill: none; stroke: #626262; stroke-width: 1.5; stroke-linecap: square"/>
   </g>
   <g id="line2d_24">
    <path d="M 146.895589 283.459926 
L 146.895589 259.0195 
" clip-path="url(#p6704155faf)" style="fill: none; stroke: #626262; stroke-width: 1.5; stroke-linecap: square"/>
   </g>
   <g id="line2d_25">
    <path d="M 130.326682 361.768933 
L 163.464497 361.768933 
" clip-path="url(#p6704155faf)" style="fill: none; stroke: #626262; stroke-width: 1.5; stroke-linecap: square"/>
   </g>
   <g id="line2d_26">
    <path d="M 130.326682 259.0195 
L 163.464497 259.0195 
" clip-path="url(#p6704155faf)" style="fill: none; stroke: #626262; stroke-width: 1.5; stroke-linecap: square"/>
   </g>
   <g id="line2d_27">
    <path d="M 214.523784 325.613073 
L 214.523784 355.679261 
" clip-path="url(#p6704155faf)" style="fill: none; stroke: #626262; stroke-width: 1.5; stroke-linecap: square"/>
   </g>
   <g id="line2d_28">
    <path d="M 214.523784 283.986967 
L 214.523784 255.03984 
" clip-path="url(#p6704155faf)" style="fill: none; stroke: #626262; stroke-width: 1.5; stroke-linecap: square"/>
   </g>
   <g id="line2d_29">
    <path d="M 197.954876 355.679261 
L 231.092692 355.679261 
" clip-path="url(#p6704155faf)" style="fill: none; stroke: #626262; stroke-width: 1.5; stroke-linecap: square"/>
   </g>
   <g id="line2d_30">
    <path d="M 197.954876 255.03984 
L 231.092692 255.03984 
" clip-path="url(#p6704155faf)" style="fill: none; stroke: #626262; stroke-width: 1.5; stroke-linecap: square"/>
   </g>
   <g id="line2d_31">
    <path d="M 315.966076 264.081131 
L 315.966076 337.337426 
" clip-path="url(#p6704155faf)" style="fill: none; stroke: #626262; stroke-width: 1.5; stroke-linecap: square"/>
   </g>
   <g id="line2d_32">
    <path d="M 315.966076 137.224608 
L 315.966076 98.705837 
" clip-path="url(#p6704155faf)" style="fill: none; stroke: #626262; stroke-width: 1.5; stroke-linecap: square"/>
   </g>
   <g id="line2d_33">
    <path d="M 299.397168 337.337426 
L 332.534983 337.337426 
" clip-path="url(#p6704155faf)" style="fill: none; stroke: #626262; stroke-width: 1.5; stroke-linecap: square"/>
   </g>
   <g id="line2d_34">
    <path d="M 299.397168 98.705837 
L 332.534983 98.705837 
" clip-path="url(#p6704155faf)" style="fill: none; stroke: #626262; stroke-width: 1.5; stroke-linecap: square"/>
   </g>
   <g id="line2d_35">
    <path d="M 383.59427 142.556173 
L 383.59427 251.23298 
" clip-path="url(#p6704155faf)" style="fill: none; stroke: #626262; stroke-width: 1.5; stroke-linecap: square"/>
   </g>
   <g id="line2d_36">
    <path d="M 383.59427 81.935342 
L 383.59427 67.632107 
" clip-path="url(#p6704155faf)" style="fill: none; stroke: #626262; stroke-width: 1.5; stroke-linecap: square"/>
   </g>
   <g id="line2d_37">
    <path d="M 367.025363 251.23298 
L 400.163178 251.23298 
" clip-path="url(#p6704155faf)" style="fill: none; stroke: #626262; stroke-width: 1.5; stroke-linecap: square"/>
   </g>
   <g id="line2d_38">
    <path d="M 367.025363 67.632107 
L 400.163178 67.632107 
" clip-path="url(#p6704155faf)" style="fill: none; stroke: #626262; stroke-width: 1.5; stroke-linecap: square"/>
   </g>
   <g id="line2d_39">
    <path d="M 485.036562 334.311105 
L 485.036562 385.554545 
" clip-path="url(#p6704155faf)" style="fill: none; stroke: #626262; stroke-width: 1.5; stroke-linecap: square"/>
   </g>
   <g id="line2d_40">
    <path d="M 485.036562 228.62743 
L 485.036562 181.860887 
" clip-path="url(#p6704155faf)" style="fill: none; stroke: #626262; stroke-width: 1.5; stroke-linecap: square"/>
   </g>
   <g id="line2d_41">
    <path d="M 468.467655 385.554545 
L 501.60547 385.554545 
" clip-path="url(#p6704155faf)" style="fill: none; stroke: #626262; stroke-width: 1.5; stroke-linecap: square"/>
   </g>
   <g id="line2d_42">
    <path d="M 468.467655 181.860887 
L 501.60547 181.860887 
" clip-path="url(#p6704155faf)" style="fill: none; stroke: #626262; stroke-width: 1.5; stroke-linecap: square"/>
   </g>
   <g id="line2d_43">
    <path d="M 552.664757 338.785883 
L 552.664757 362.049304 
" clip-path="url(#p6704155faf)" style="fill: none; stroke: #626262; stroke-width: 1.5; stroke-linecap: square"/>
   </g>
   <g id="line2d_44">
    <path d="M 552.664757 305.785184 
L 552.664757 275.636484 
" clip-path="url(#p6704155faf)" style="fill: none; stroke: #626262; stroke-width: 1.5; stroke-linecap: square"/>
   </g>
   <g id="line2d_45">
    <path d="M 536.095849 362.049304 
L 569.233664 362.049304 
" clip-path="url(#p6704155faf)" style="fill: none; stroke: #626262; stroke-width: 1.5; stroke-linecap: square"/>
   </g>
   <g id="line2d_46">
    <path d="M 536.095849 275.636484 
L 569.233664 275.636484 
" clip-path="url(#p6704155faf)" style="fill: none; stroke: #626262; stroke-width: 1.5; stroke-linecap: square"/>
   </g>
   <g id="line2d_47">
    <path d="M 146.895589 251.432334 
L 214.523784 251.432334 
" clip-path="url(#p6704155faf)" style="fill: none; stroke: #000000; stroke-width: 1.5; stroke-linecap: square"/>
   </g>
   <g id="line2d_48">
    <path d="M 315.966076 28.645455 
L 383.59427 28.645455 
" clip-path="url(#p6704155faf)" style="fill: none; stroke: #000000; stroke-width: 1.5; stroke-linecap: square"/>
   </g>
   <g id="line2d_49">
    <path d="M 485.036562 178.253382 
L 552.664757 178.253382 
" clip-path="url(#p6704155faf)" style="fill: none; stroke: #000000; stroke-width: 1.5; stroke-linecap: square"/>
   </g>
   <g id="line2d_50">
    <path d="M 113.757774 300.1879 
L 180.033405 300.1879 
" clip-path="url(#p6704155faf)" style="fill: none; stroke: #626262; stroke-width: 1.5"/>
   </g>
   <g id="line2d_51">
    <path d="M 181.385969 300.733073 
L 247.661599 300.733073 
" clip-path="url(#p6704155faf)" style="fill: none; stroke: #626262; stroke-width: 1.5"/>
   </g>
   <g id="line2d_52">
    <path d="M 282.82826 221.77294 
L 349.103891 221.77294 
" clip-path="url(#p6704155faf)" style="fill: none; stroke: #626262; stroke-width: 1.5"/>
   </g>
   <g id="line2d_53">
    <path d="M 350.456455 108.116186 
L 416.732086 108.116186 
" clip-path="url(#p6704155faf)" style="fill: none; stroke: #626262; stroke-width: 1.5"/>
   </g>
   <g id="line2d_54">
    <path d="M 451.898747 314.347469 
L 518.174378 314.347469 
" clip-path="url(#p6704155faf)" style="fill: none; stroke: #626262; stroke-width: 1.5"/>
   </g>
   <g id="line2d_55">
    <path d="M 519.526941 330.898635 
L 585.802572 330.898635 
" clip-path="url(#p6704155faf)" style="fill: none; stroke: #626262; stroke-width: 1.5"/>
   </g>
   <g id="patch_11">
    <path d="M 62.360346 403.4 
L 62.360346 10.8 
" style="fill: none; stroke: #000000; stroke-width: 0.8; stroke-linejoin: miter; stroke-linecap: square"/>
   </g>
   <g id="patch_12">
    <path d="M 637.2 403.4 
L 637.2 10.8 
" style="fill: none; stroke: #000000; stroke-width: 0.8; stroke-linejoin: miter; stroke-linecap: square"/>
   </g>
   <g id="patch_13">
    <path d="M 62.360346 403.4 
L 637.2 403.4 
" style="fill: none; stroke: #000000; stroke-width: 0.8; stroke-linejoin: miter; stroke-linecap: square"/>
   </g>
   <g id="patch_14">
    <path d="M 62.360346 10.8 
L 637.2 10.8 
" style="fill: none; stroke: #000000; stroke-width: 0.8; stroke-linejoin: miter; stroke-linecap: square"/>
   </g>
   <g id="text_7">
    <!-- p = 8.75e-01 -->
    <g transform="translate(147.791718 248.616928) scale(0.1 -0.1)">
     <defs>
      <path id="DejaVuSans-3d" d="M 678 2906 
L 4684 2906 
L 4684 2381 
L 678 2381 
L 678 2906 
z
M 678 1631 
L 4684 1631 
L 4684 1100 
L 678 1100 
L 678 1631 
z
" transform="scale(0.015625)"/>
      <path id="DejaVuSans-38" d="M 2034 2216 
Q 1584 2216 1326 1975 
Q 1069 1734 1069 1313 
Q 1069 891 1326 650 
Q 1584 409 2034 409 
Q 2484 409 2743 651 
Q 3003 894 3003 1313 
Q 3003 1734 2745 1975 
Q 2488 2216 2034 2216 
z
M 1403 2484 
Q 997 2584 770 2862 
Q 544 3141 544 3541 
Q 544 4100 942 4425 
Q 1341 4750 2034 4750 
Q 2731 4750 3128 4425 
Q 3525 4100 3525 3541 
Q 3525 3141 3298 2862 
Q 3072 2584 2669 2484 
Q 3125 2378 3379 2068 
Q 3634 1759 3634 1313 
Q 3634 634 3220 271 
Q 2806 -91 2034 -91 
Q 1263 -91 848 271 
Q 434 634 434 1313 
Q 434 1759 690 2068 
Q 947 2378 1403 2484 
z
M 1172 3481 
Q 1172 3119 1398 2916 
Q 1625 2713 2034 2713 
Q 2441 2713 2670 2916 
Q 2900 3119 2900 3481 
Q 2900 3844 2670 4047 
Q 2441 4250 2034 4250 
Q 1625 4250 1398 4047 
Q 1172 3844 1172 3481 
z
" transform="scale(0.015625)"/>
      <path id="DejaVuSans-37" d="M 525 4666 
L 3525 4666 
L 3525 4397 
L 1831 0 
L 1172 0 
L 2766 4134 
L 525 4134 
L 525 4666 
z
" transform="scale(0.015625)"/>
      <path id="DejaVuSans-35" d="M 691 4666 
L 3169 4666 
L 3169 4134 
L 1269 4134 
L 1269 2991 
Q 1406 3038 1543 3061 
Q 1681 3084 1819 3084 
Q 2600 3084 3056 2656 
Q 3513 2228 3513 1497 
Q 3513 744 3044 326 
Q 2575 -91 1722 -91 
Q 1428 -91 1123 -41 
Q 819 9 494 109 
L 494 744 
Q 775 591 1075 516 
Q 1375 441 1709 441 
Q 2250 441 2565 725 
Q 2881 1009 2881 1497 
Q 2881 1984 2565 2268 
Q 2250 2553 1709 2553 
Q 1456 2553 1204 2497 
Q 953 2441 691 2322 
L 691 4666 
z
" transform="scale(0.015625)"/>
      <path id="DejaVuSans-2d" d="M 313 2009 
L 1997 2009 
L 1997 1497 
L 313 1497 
L 313 2009 
z
" transform="scale(0.015625)"/>
     </defs>
     <use xlink:href="#DejaVuSans-70"/>
     <use xlink:href="#DejaVuSans-20" x="63.476562"/>
     <use xlink:href="#DejaVuSans-3d" x="95.263672"/>
     <use xlink:href="#DejaVuSans-20" x="179.052734"/>
     <use xlink:href="#DejaVuSans-38" x="210.839844"/>
     <use xlink:href="#DejaVuSans-2e" x="274.462891"/>
     <use xlink:href="#DejaVuSans-37" x="306.25"/>
     <use xlink:href="#DejaVuSans-35" x="369.873047"/>
     <use xlink:href="#DejaVuSans-65" x="433.496094"/>
     <use xlink:href="#DejaVuSans-2d" x="495.019531"/>
     <use xlink:href="#DejaVuSans-30" x="531.103516"/>
     <use xlink:href="#DejaVuSans-31" x="594.726562"/>
    </g>
   </g>
   <g id="text_8">
    <!-- ***  p = 5.61e-06 -->
    <g transform="translate(306.184079 25.830048) scale(0.1 -0.1)">
     <defs>
      <path id="DejaVuSans-2a" d="M 3009 3897 
L 1888 3291 
L 3009 2681 
L 2828 2375 
L 1778 3009 
L 1778 1831 
L 1422 1831 
L 1422 3009 
L 372 2375 
L 191 2681 
L 1313 3291 
L 191 3897 
L 372 4206 
L 1422 3572 
L 1422 4750 
L 1778 4750 
L 1778 3572 
L 2828 4206 
L 3009 3897 
z
" transform="scale(0.015625)"/>
      <path id="DejaVuSans-36" d="M 2113 2584 
Q 1688 2584 1439 2293 
Q 1191 2003 1191 1497 
Q 1191 994 1439 701 
Q 1688 409 2113 409 
Q 2538 409 2786 701 
Q 3034 994 3034 1497 
Q 3034 2003 2786 2293 
Q 2538 2584 2113 2584 
z
M 3366 4563 
L 3366 3988 
Q 3128 4100 2886 4159 
Q 2644 4219 2406 4219 
Q 1781 4219 1451 3797 
Q 1122 3375 1075 2522 
Q 1259 2794 1537 2939 
Q 1816 3084 2150 3084 
Q 2853 3084 3261 2657 
Q 3669 2231 3669 1497 
Q 3669 778 3244 343 
Q 2819 -91 2113 -91 
Q 1303 -91 875 529 
Q 447 1150 447 2328 
Q 447 3434 972 4092 
Q 1497 4750 2381 4750 
Q 2619 4750 2861 4703 
Q 3103 4656 3366 4563 
z
" transform="scale(0.015625)"/>
     </defs>
     <use xlink:href="#DejaVuSans-2a"/>
     <use xlink:href="#DejaVuSans-2a" x="50"/>
     <use xlink:href="#DejaVuSans-2a" x="100"/>
     <use xlink:href="#DejaVuSans-20" x="150"/>
     <use xlink:href="#DejaVuSans-20" x="181.787109"/>
     <use xlink:href="#DejaVuSans-70" x="213.574219"/>
     <use xlink:href="#DejaVuSans-20" x="277.050781"/>
     <use xlink:href="#DejaVuSans-3d" x="308.837891"/>
     <use xlink:href="#DejaVuSans-20" x="392.626953"/>
     <use xlink:href="#DejaVuSans-35" x="424.414062"/>
     <use xlink:href="#DejaVuSans-2e" x="488.037109"/>
     <use xlink:href="#DejaVuSans-36" x="519.824219"/>
     <use xlink:href="#DejaVuSans-31" x="583.447266"/>
     <use xlink:href="#DejaVuSans-65" x="647.070312"/>
     <use xlink:href="#DejaVuSans-2d" x="708.59375"/>
     <use xlink:href="#DejaVuSans-30" x="744.677734"/>
     <use xlink:href="#DejaVuSans-36" x="808.300781"/>
    </g>
   </g>
   <g id="text_9">
    <!-- *  p = 2.88e-02 -->
    <g transform="translate(480.254566 175.437975) scale(0.1 -0.1)">
     <use xlink:href="#DejaVuSans-2a"/>
     <use xlink:href="#DejaVuSans-20" x="50"/>
     <use xlink:href="#DejaVuSans-20" x="81.787109"/>
     <use xlink:href="#DejaVuSans-70" x="113.574219"/>
     <use xlink:href="#DejaVuSans-20" x="177.050781"/>
     <use xlink:href="#DejaVuSans-3d" x="208.837891"/>
     <use xlink:href="#DejaVuSans-20" x="292.626953"/>
     <use xlink:href="#DejaVuSans-32" x="324.414062"/>
     <use xlink:href="#DejaVuSans-2e" x="388.037109"/>
     <use xlink:href="#DejaVuSans-38" x="419.824219"/>
     <use xlink:href="#DejaVuSans-38" x="483.447266"/>
     <use xlink:href="#DejaVuSans-65" x="547.070312"/>
     <use xlink:href="#DejaVuSans-2d" x="608.59375"/>
     <use xlink:href="#DejaVuSans-30" x="644.677734"/>
     <use xlink:href="#DejaVuSans-32" x="708.300781"/>
    </g>
   </g>
   <g id="legend_1">
    <g id="patch_15">
     <path d="M 536.373438 62.834375 
L 630.2 62.834375 
Q 632.2 62.834375 632.2 60.834375 
L 632.2 17.8 
Q 632.2 15.8 630.2 15.8 
L 536.373438 15.8 
Q 534.373438 15.8 534.373438 17.8 
L 534.373438 60.834375 
Q 534.373438 62.834375 536.373438 62.834375 
z
" style="fill: #ffffff; opacity: 0.8; stroke: #cccccc; stroke-linejoin: miter"/>
    </g>
    <g id="text_10">
     <!-- Zone -->
     <g transform="translate(570.557031 27.398438) scale(0.1 -0.1)">
      <defs>
       <path id="DejaVuSans-5a" d="M 359 4666 
L 4025 4666 
L 4025 4184 
L 1075 531 
L 4097 531 
L 4097 0 
L 288 0 
L 288 481 
L 3238 4134 
L 359 4134 
L 359 4666 
z
" transform="scale(0.015625)"/>
      </defs>
      <use xlink:href="#DejaVuSans-5a"/>
      <use xlink:href="#DejaVuSans-6f" x="68.505859"/>
      <use xlink:href="#DejaVuSans-6e" x="129.6875"/>
      <use xlink:href="#DejaVuSans-65" x="193.066406"/>
     </g>
    </g>
    <g id="patch_16">
     <path d="M 538.373438 42.076563 
L 558.373438 42.076563 
L 558.373438 35.076563 
L 538.373438 35.076563 
z
" style="fill: #85c1ca; stroke: #626262; stroke-width: 0.75; stroke-linejoin: miter"/>
    </g>
    <g id="text_11">
     <!-- Non-lesional -->
     <g transform="translate(566.373438 42.076563) scale(0.1 -0.1)">
      <use xlink:href="#DejaVuSans-4e"/>
      <use xlink:href="#DejaVuSans-6f" x="74.804688"/>
      <use xlink:href="#DejaVuSans-6e" x="135.986328"/>
      <use xlink:href="#DejaVuSans-2d" x="199.365234"/>
      <use xlink:href="#DejaVuSans-6c" x="235.449219"/>
      <use xlink:href="#DejaVuSans-65" x="263.232422"/>
      <use xlink:href="#DejaVuSans-73" x="324.755859"/>
      <use xlink:href="#DejaVuSans-69" x="376.855469"/>
      <use xlink:href="#DejaVuSans-6f" x="404.638672"/>
      <use xlink:href="#DejaVuSans-6e" x="465.820312"/>
      <use xlink:href="#DejaVuSans-61" x="529.199219"/>
      <use xlink:href="#DejaVuSans-6c" x="590.478516"/>
     </g>
    </g>
    <g id="patch_17">
     <path d="M 538.373438 56.754688 
L 558.373438 56.754688 
L 558.373438 49.754688 
L 538.373438 49.754688 
z
" style="fill: #e8735e; stroke: #626262; stroke-width: 0.75; stroke-linejoin: miter"/>
    </g>
    <g id="text_12">
     <!-- Lesional -->
     <g transform="translate(566.373438 56.754688) scale(0.1 -0.1)">
      <use xlink:href="#DejaVuSans-4c"/>
      <use xlink:href="#DejaVuSans-65" x="53.962891"/>
      <use xlink:href="#DejaVuSans-73" x="115.486328"/>
      <use xlink:href="#DejaVuSans-69" x="167.585938"/>
      <use xlink:href="#DejaVuSans-6f" x="195.369141"/>
      <use xlink:href="#DejaVuSans-6e" x="256.550781"/>
      <use xlink:href="#DejaVuSans-61" x="319.929688"/>
      <use xlink:href="#DejaVuSans-6c" x="381.208984"/>
     </g>
    </g>
   </g>
  </g>
 </g>
 <defs>
  <clipPath id="p6704155faf">
   <rect x="62.360346" y="10.8" width="574.839654" height="392.6"/>
  </clipPath>
 </defs>
</svg>
