<?xml version="1.0" encoding="utf-8" standalone="no"?>
<!DOCTYPE svg PUBLIC "-//W3C//DTD SVG 1.1//EN"
  "http://www.w3.org/Graphics/SVG/1.1/DTD/svg11.dtd">
<svg xmlns:xlink="http://www.w3.org/1999/xlink" width="864pt" height="432pt" viewBox="0 0 864 432" xmlns="http://www.w3.org/2000/svg" version="1.1">
 <metadata>
  <rdf:RDF xmlns:dc="http://purl.org/dc/elements/1.1/" xmlns:cc="http://creativecommons.org/ns#" xmlns:rdf="http://www.w3.org/1999/02/22-rdf-syntax-ns#">
   <cc:Work>
    <dc:type rdf:resource="http://purl.org/dc/dcmitype/StillImage"/>
    <dc:date>2024-11-03T17:34:41.929394</dc:date>
    <dc:format>image/svg+xml</dc:format>
    <dc:creator>
     <cc:Agent>
      <dc:title>Matplotlib v3.9.2, https://matplotlib.org/</dc:title>
     </cc:Agent>
    </dc:creator>
   </cc:Work>
  </rdf:RDF>
 </metadata>
 <defs>
  <style type="text/css">*{stroke-linejoin: round; stroke-linecap: butt}</style>
 </defs>
 <g id="figure_1">
  <g id="patch_1">
   <path d="M 0 432 
L 864 432 
L 864 0 
L 0 0 
z
" style="fill: #ffffff"/>
  </g>
  <g id="axes_1">
   <g id="patch_2">
    <path d="M 58.742054 309.194643 
L 853.2 309.194643 
L 853.2 26.88 
L 58.742054 26.88 
z
" style="fill: #ffffff"/>
   </g>
   <g id="patch_3">
    <path d="M 127.682619 117764.521628 
L 127.682619 117764.521628 
L 127.682619 117764.521628 
L 127.682619 117764.521628 
z
" clip-path="url(#p703a0a35db)" style="fill: #85c1ca; stroke: #626262; stroke-linejoin: miter"/>
   </g>
   <g id="patch_4">
    <path d="M 127.682619 117764.521628 
L 127.682619 117764.521628 
L 127.682619 117764.521628 
L 127.682619 117764.521628 
z
" clip-path="url(#p703a0a35db)" style="fill: #e8735e; stroke: #626262; stroke-linejoin: miter"/>
   </g>
   <g id="matplotlib.axis_1">
    <g id="xtick_1">
     <g id="line2d_1">
      <defs>
       <path id="m3485397225" d="M 0 0 
L 0 3.5 
" style="stroke: #000000; stroke-width: 0.8"/>
      </defs>
      <g>
       <use xlink:href="#m3485397225" x="127.682619" y="309.194643" style="stroke: #000000; stroke-width: 0.8"/>
      </g>
     </g>
     <g id="text_1">
      <!-- Cutibacterium acnes -->
      <g transform="translate(93.027206 394.780723) rotate(-45) scale(0.1 -0.1)">
       <defs>
        <path id="DejaVuSans-43" d="M 4122 4306 
L 4122 3641 
Q 3803 3938 3442 4084 
Q 3081 4231 2675 4231 
Q 1875 4231 1450 3742 
Q 1025 3253 1025 2328 
Q 1025 1406 1450 917 
Q 1875 428 2675 428 
Q 3081 428 3442 575 
Q 3803 722 4122 1019 
L 4122 359 
Q 3791 134 3420 21 
Q 3050 -91 2638 -91 
Q 1578 -91 968 557 
Q 359 1206 359 2328 
Q 359 3453 968 4101 
Q 1578 4750 2638 4750 
Q 3056 4750 3426 4639 
Q 3797 4528 4122 4306 
z
" transform="scale(0.015625)"/>
        <path id="DejaVuSans-75" d="M 544 1381 
L 544 3500 
L 1119 3500 
L 1119 1403 
Q 1119 906 1312 657 
Q 1506 409 1894 409 
Q 2359 409 2629 706 
Q 2900 1003 2900 1516 
L 2900 3500 
L 3475 3500 
L 3475 0 
L 2900 0 
L 2900 538 
Q 2691 219 2414 64 
Q 2138 -91 1772 -91 
Q 1169 -91 856 284 
Q 544 659 544 1381 
z
M 1991 3584 
L 1991 3584 
z
" transform="scale(0.015625)"/>
        <path id="DejaVuSans-74" d="M 1172 4494 
L 1172 3500 
L 2356 3500 
L 2356 3053 
L 1172 3053 
L 1172 1153 
Q 1172 725 1289 603 
Q 1406 481 1766 481 
L 2356 481 
L 2356 0 
L 1766 0 
Q 1100 0 847 248 
Q 594 497 594 1153 
L 594 3053 
L 172 3053 
L 172 3500 
L 594 3500 
L 594 4494 
L 1172 4494 
z
" transform="scale(0.015625)"/>
        <path id="DejaVuSans-69" d="M 603 3500 
L 1178 3500 
L 1178 0 
L 603 0 
L 603 3500 
z
M 603 4863 
L 1178 4863 
L 1178 4134 
L 603 4134 
L 603 4863 
z
" transform="scale(0.015625)"/>
        <path id="DejaVuSans-62" d="M 3116 1747 
Q 3116 2381 2855 2742 
Q 2594 3103 2138 3103 
Q 1681 3103 1420 2742 
Q 1159 2381 1159 1747 
Q 1159 1113 1420 752 
Q 1681 391 2138 391 
Q 2594 391 2855 752 
Q 3116 1113 3116 1747 
z
M 1159 2969 
Q 1341 3281 1617 3432 
Q 1894 3584 2278 3584 
Q 2916 3584 3314 3078 
Q 3713 2572 3713 1747 
Q 3713 922 3314 415 
Q 2916 -91 2278 -91 
Q 1894 -91 1617 61 
Q 1341 213 1159 525 
L 1159 0 
L 581 0 
L 581 4863 
L 1159 4863 
L 1159 2969 
z
" transform="scale(0.015625)"/>
        <path id="DejaVuSans-61" d="M 2194 1759 
Q 1497 1759 1228 1600 
Q 959 1441 959 1056 
Q 959 750 1161 570 
Q 1363 391 1709 391 
Q 2188 391 2477 730 
Q 2766 1069 2766 1631 
L 2766 1759 
L 2194 1759 
z
M 3341 1997 
L 3341 0 
L 2766 0 
L 2766 531 
Q 2569 213 2275 61 
Q 1981 -91 1556 -91 
Q 1019 -91 701 211 
Q 384 513 384 1019 
Q 384 1609 779 1909 
Q 1175 2209 1959 2209 
L 2766 2209 
L 2766 2266 
Q 2766 2663 2505 2880 
Q 2244 3097 1772 3097 
Q 1472 3097 1187 3025 
Q 903 2953 641 2809 
L 641 3341 
Q 956 3463 1253 3523 
Q 1550 3584 1831 3584 
Q 2591 3584 2966 3190 
Q 3341 2797 3341 1997 
z
" transform="scale(0.015625)"/>
        <path id="DejaVuSans-63" d="M 3122 3366 
L 3122 2828 
Q 2878 2963 2633 3030 
Q 2388 3097 2138 3097 
Q 1578 3097 1268 2742 
Q 959 2388 959 1747 
Q 959 1106 1268 751 
Q 1578 397 2138 397 
Q 2388 397 2633 464 
Q 2878 531 3122 666 
L 3122 134 
Q 2881 22 2623 -34 
Q 2366 -91 2075 -91 
Q 1284 -91 818 406 
Q 353 903 353 1747 
Q 353 2603 823 3093 
Q 1294 3584 2113 3584 
Q 2378 3584 2631 3529 
Q 2884 3475 3122 3366 
z
" transform="scale(0.015625)"/>
        <path id="DejaVuSans-65" d="M 3597 1894 
L 3597 1613 
L 953 1613 
Q 991 1019 1311 708 
Q 1631 397 2203 397 
Q 2534 397 2845 478 
Q 3156 559 3463 722 
L 3463 178 
Q 3153 47 2828 -22 
Q 2503 -91 2169 -91 
Q 1331 -91 842 396 
Q 353 884 353 1716 
Q 353 2575 817 3079 
Q 1281 3584 2069 3584 
Q 2775 3584 3186 3129 
Q 3597 2675 3597 1894 
z
M 3022 2063 
Q 3016 2534 2758 2815 
Q 2500 3097 2075 3097 
Q 1594 3097 1305 2825 
Q 1016 2553 972 2059 
L 3022 2063 
z
" transform="scale(0.015625)"/>
        <path id="DejaVuSans-72" d="M 2631 2963 
Q 2534 3019 2420 3045 
Q 2306 3072 2169 3072 
Q 1681 3072 1420 2755 
Q 1159 2438 1159 1844 
L 1159 0 
L 581 0 
L 581 3500 
L 1159 3500 
L 1159 2956 
Q 1341 3275 1631 3429 
Q 1922 3584 2338 3584 
Q 2397 3584 2469 3576 
Q 2541 3569 2628 3553 
L 2631 2963 
z
" transform="scale(0.015625)"/>
        <path id="DejaVuSans-6d" d="M 3328 2828 
Q 3544 3216 3844 3400 
Q 4144 3584 4550 3584 
Q 5097 3584 5394 3201 
Q 5691 2819 5691 2113 
L 5691 0 
L 5113 0 
L 5113 2094 
Q 5113 2597 4934 2840 
Q 4756 3084 4391 3084 
Q 3944 3084 3684 2787 
Q 3425 2491 3425 1978 
L 3425 0 
L 2847 0 
L 2847 2094 
Q 2847 2600 2669 2842 
Q 2491 3084 2119 3084 
Q 1678 3084 1418 2786 
Q 1159 2488 1159 1978 
L 1159 0 
L 581 0 
L 581 3500 
L 1159 3500 
L 1159 2956 
Q 1356 3278 1631 3431 
Q 1906 3584 2284 3584 
Q 2666 3584 2933 3390 
Q 3200 3197 3328 2828 
z
" transform="scale(0.015625)"/>
        <path id="DejaVuSans-20" transform="scale(0.015625)"/>
        <path id="DejaVuSans-6e" d="M 3513 2113 
L 3513 0 
L 2938 0 
L 2938 2094 
Q 2938 2591 2744 2837 
Q 2550 3084 2163 3084 
Q 1697 3084 1428 2787 
Q 1159 2491 1159 1978 
L 1159 0 
L 581 0 
L 581 3500 
L 1159 3500 
L 1159 2956 
Q 1366 3272 1645 3428 
Q 1925 3584 2291 3584 
Q 2894 3584 3203 3211 
Q 3513 2838 3513 2113 
z
" transform="scale(0.015625)"/>
        <path id="DejaVuSans-73" d="M 2834 3397 
L 2834 2853 
Q 2591 2978 2328 3040 
Q 2066 3103 1784 3103 
Q 1356 3103 1142 2972 
Q 928 2841 928 2578 
Q 928 2378 1081 2264 
Q 1234 2150 1697 2047 
L 1894 2003 
Q 2506 1872 2764 1633 
Q 3022 1394 3022 966 
Q 3022 478 2636 193 
Q 2250 -91 1575 -91 
Q 1294 -91 989 -36 
Q 684 19 347 128 
L 347 722 
Q 666 556 975 473 
Q 1284 391 1588 391 
Q 1994 391 2212 530 
Q 2431 669 2431 922 
Q 2431 1156 2273 1281 
Q 2116 1406 1581 1522 
L 1381 1569 
Q 847 1681 609 1914 
Q 372 2147 372 2553 
Q 372 3047 722 3315 
Q 1072 3584 1716 3584 
Q 2034 3584 2315 3537 
Q 2597 3491 2834 3397 
z
" transform="scale(0.015625)"/>
       </defs>
       <use xlink:href="#DejaVuSans-43"/>
       <use xlink:href="#DejaVuSans-75" x="69.824219"/>
       <use xlink:href="#DejaVuSans-74" x="133.203125"/>
       <use xlink:href="#DejaVuSans-69" x="172.412109"/>
       <use xlink:href="#DejaVuSans-62" x="200.195312"/>
       <use xlink:href="#DejaVuSans-61" x="263.671875"/>
       <use xlink:href="#DejaVuSans-63" x="324.951172"/>
       <use xlink:href="#DejaVuSans-74" x="379.931641"/>
       <use xlink:href="#DejaVuSans-65" x="419.140625"/>
       <use xlink:href="#DejaVuSans-72" x="480.664062"/>
       <use xlink:href="#DejaVuSans-69" x="521.777344"/>
       <use xlink:href="#DejaVuSans-75" x="549.560547"/>
       <use xlink:href="#DejaVuSans-6d" x="612.939453"/>
       <use xlink:href="#DejaVuSans-20" x="710.351562"/>
       <use xlink:href="#DejaVuSans-61" x="742.138672"/>
       <use xlink:href="#DejaVuSans-63" x="803.417969"/>
       <use xlink:href="#DejaVuSans-6e" x="858.398438"/>
       <use xlink:href="#DejaVuSans-65" x="921.777344"/>
       <use xlink:href="#DejaVuSans-73" x="983.300781"/>
      </g>
     </g>
    </g>
    <g id="xtick_2">
     <g id="line2d_2">
      <g>
       <use xlink:href="#m3485397225" x="209.754721" y="309.194643" style="stroke: #000000; stroke-width: 0.8"/>
      </g>
     </g>
     <g id="text_2">
      <!-- Cutibacterium granulosum -->
      <g transform="translate(164.450169 416.079) rotate(-45) scale(0.1 -0.1)">
       <defs>
        <path id="DejaVuSans-67" d="M 2906 1791 
Q 2906 2416 2648 2759 
Q 2391 3103 1925 3103 
Q 1463 3103 1205 2759 
Q 947 2416 947 1791 
Q 947 1169 1205 825 
Q 1463 481 1925 481 
Q 2391 481 2648 825 
Q 2906 1169 2906 1791 
z
M 3481 434 
Q 3481 -459 3084 -895 
Q 2688 -1331 1869 -1331 
Q 1566 -1331 1297 -1286 
Q 1028 -1241 775 -1147 
L 775 -588 
Q 1028 -725 1275 -790 
Q 1522 -856 1778 -856 
Q 2344 -856 2625 -561 
Q 2906 -266 2906 331 
L 2906 616 
Q 2728 306 2450 153 
Q 2172 0 1784 0 
Q 1141 0 747 490 
Q 353 981 353 1791 
Q 353 2603 747 3093 
Q 1141 3584 1784 3584 
Q 2172 3584 2450 3431 
Q 2728 3278 2906 2969 
L 2906 3500 
L 3481 3500 
L 3481 434 
z
" transform="scale(0.015625)"/>
        <path id="DejaVuSans-6c" d="M 603 4863 
L 1178 4863 
L 1178 0 
L 603 0 
L 603 4863 
z
" transform="scale(0.015625)"/>
        <path id="DejaVuSans-6f" d="M 1959 3097 
Q 1497 3097 1228 2736 
Q 959 2375 959 1747 
Q 959 1119 1226 758 
Q 1494 397 1959 397 
Q 2419 397 2687 759 
Q 2956 1122 2956 1747 
Q 2956 2369 2687 2733 
Q 2419 3097 1959 3097 
z
M 1959 3584 
Q 2709 3584 3137 3096 
Q 3566 2609 3566 1747 
Q 3566 888 3137 398 
Q 2709 -91 1959 -91 
Q 1206 -91 779 398 
Q 353 888 353 1747 
Q 353 2609 779 3096 
Q 1206 3584 1959 3584 
z
" transform="scale(0.015625)"/>
       </defs>
       <use xlink:href="#DejaVuSans-43"/>
       <use xlink:href="#DejaVuSans-75" x="69.824219"/>
       <use xlink:href="#DejaVuSans-74" x="133.203125"/>
       <use xlink:href="#DejaVuSans-69" x="172.412109"/>
       <use xlink:href="#DejaVuSans-62" x="200.195312"/>
       <use xlink:href="#DejaVuSans-61" x="263.671875"/>
       <use xlink:href="#DejaVuSans-63" x="324.951172"/>
       <use xlink:href="#DejaVuSans-74" x="379.931641"/>
       <use xlink:href="#DejaVuSans-65" x="419.140625"/>
       <use xlink:href="#DejaVuSans-72" x="480.664062"/>
       <use xlink:href="#DejaVuSans-69" x="521.777344"/>
       <use xlink:href="#DejaVuSans-75" x="549.560547"/>
       <use xlink:href="#DejaVuSans-6d" x="612.939453"/>
       <use xlink:href="#DejaVuSans-20" x="710.351562"/>
       <use xlink:href="#DejaVuSans-67" x="742.138672"/>
       <use xlink:href="#DejaVuSans-72" x="805.615234"/>
       <use xlink:href="#DejaVuSans-61" x="846.728516"/>
       <use xlink:href="#DejaVuSans-6e" x="908.007812"/>
       <use xlink:href="#DejaVuSans-75" x="971.386719"/>
       <use xlink:href="#DejaVuSans-6c" x="1034.765625"/>
       <use xlink:href="#DejaVuSans-6f" x="1062.548828"/>
       <use xlink:href="#DejaVuSans-73" x="1123.730469"/>
       <use xlink:href="#DejaVuSans-75" x="1175.830078"/>
       <use xlink:href="#DejaVuSans-6d" x="1239.208984"/>
      </g>
     </g>
    </g>
    <g id="xtick_3">
     <g id="line2d_3">
      <g>
       <use xlink:href="#m3485397225" x="291.826823" y="309.194643" style="stroke: #000000; stroke-width: 0.8"/>
      </g>
     </g>
     <g id="text_3">
      <!-- Malassezia spp. -->
      <g transform="translate(265.970469 377.182603) rotate(-45) scale(0.1 -0.1)">
       <defs>
        <path id="DejaVuSans-4d" d="M 628 4666 
L 1569 4666 
L 2759 1491 
L 3956 4666 
L 4897 4666 
L 4897 0 
L 4281 0 
L 4281 4097 
L 3078 897 
L 2444 897 
L 1241 4097 
L 1241 0 
L 628 0 
L 628 4666 
z
" transform="scale(0.015625)"/>
        <path id="DejaVuSans-7a" d="M 353 3500 
L 3084 3500 
L 3084 2975 
L 922 459 
L 3084 459 
L 3084 0 
L 275 0 
L 275 525 
L 2438 3041 
L 353 3041 
L 353 3500 
z
" transform="scale(0.015625)"/>
        <path id="DejaVuSans-70" d="M 1159 525 
L 1159 -1331 
L 581 -1331 
L 581 3500 
L 1159 3500 
L 1159 2969 
Q 1341 3281 1617 3432 
Q 1894 3584 2278 3584 
Q 2916 3584 3314 3078 
Q 3713 2572 3713 1747 
Q 3713 922 3314 415 
Q 2916 -91 2278 -91 
Q 1894 -91 1617 61 
Q 1341 213 1159 525 
z
M 3116 1747 
Q 3116 2381 2855 2742 
Q 2594 3103 2138 3103 
Q 1681 3103 1420 2742 
Q 1159 2381 1159 1747 
Q 1159 1113 1420 752 
Q 1681 391 2138 391 
Q 2594 391 2855 752 
Q 3116 1113 3116 1747 
z
" transform="scale(0.015625)"/>
        <path id="DejaVuSans-2e" d="M 684 794 
L 1344 794 
L 1344 0 
L 684 0 
L 684 794 
z
" transform="scale(0.015625)"/>
       </defs>
       <use xlink:href="#DejaVuSans-4d"/>
       <use xlink:href="#DejaVuSans-61" x="86.279297"/>
       <use xlink:href="#DejaVuSans-6c" x="147.558594"/>
       <use xlink:href="#DejaVuSans-61" x="175.341797"/>
       <use xlink:href="#DejaVuSans-73" x="236.621094"/>
       <use xlink:href="#DejaVuSans-73" x="288.720703"/>
       <use xlink:href="#DejaVuSans-65" x="340.820312"/>
       <use xlink:href="#DejaVuSans-7a" x="402.34375"/>
       <use xlink:href="#DejaVuSans-69" x="454.833984"/>
       <use xlink:href="#DejaVuSans-61" x="482.617188"/>
       <use xlink:href="#DejaVuSans-20" x="543.896484"/>
       <use xlink:href="#DejaVuSans-73" x="575.683594"/>
       <use xlink:href="#DejaVuSans-70" x="627.783203"/>
       <use xlink:href="#DejaVuSans-70" x="691.259766"/>
       <use xlink:href="#DejaVuSans-2e" x="754.736328"/>
      </g>
     </g>
    </g>
    <g id="xtick_4">
     <g id="line2d_4">
      <g>
       <use xlink:href="#m3485397225" x="373.898925" y="309.194643" style="stroke: #000000; stroke-width: 0.8"/>
      </g>
     </g>
     <g id="text_4">
      <!-- Papillomaviridae -->
      <g transform="translate(346.648798 379.97015) rotate(-45) scale(0.1 -0.1)">
       <defs>
        <path id="DejaVuSans-50" d="M 1259 4147 
L 1259 2394 
L 2053 2394 
Q 2494 2394 2734 2622 
Q 2975 2850 2975 3272 
Q 2975 3691 2734 3919 
Q 2494 4147 2053 4147 
L 1259 4147 
z
M 628 4666 
L 2053 4666 
Q 2838 4666 3239 4311 
Q 3641 3956 3641 3272 
Q 3641 2581 3239 2228 
Q 2838 1875 2053 1875 
L 1259 1875 
L 1259 0 
L 628 0 
L 628 4666 
z
" transform="scale(0.015625)"/>
        <path id="DejaVuSans-76" d="M 191 3500 
L 800 3500 
L 1894 563 
L 2988 3500 
L 3597 3500 
L 2284 0 
L 1503 0 
L 191 3500 
z
" transform="scale(0.015625)"/>
        <path id="DejaVuSans-64" d="M 2906 2969 
L 2906 4863 
L 3481 4863 
L 3481 0 
L 2906 0 
L 2906 525 
Q 2725 213 2448 61 
Q 2172 -91 1784 -91 
Q 1150 -91 751 415 
Q 353 922 353 1747 
Q 353 2572 751 3078 
Q 1150 3584 1784 3584 
Q 2172 3584 2448 3432 
Q 2725 3281 2906 2969 
z
M 947 1747 
Q 947 1113 1208 752 
Q 1469 391 1925 391 
Q 2381 391 2643 752 
Q 2906 1113 2906 1747 
Q 2906 2381 2643 2742 
Q 2381 3103 1925 3103 
Q 1469 3103 1208 2742 
Q 947 2381 947 1747 
z
" transform="scale(0.015625)"/>
       </defs>
       <use xlink:href="#DejaVuSans-50"/>
       <use xlink:href="#DejaVuSans-61" x="55.802734"/>
       <use xlink:href="#DejaVuSans-70" x="117.082031"/>
       <use xlink:href="#DejaVuSans-69" x="180.558594"/>
       <use xlink:href="#DejaVuSans-6c" x="208.341797"/>
       <use xlink:href="#DejaVuSans-6c" x="236.125"/>
       <use xlink:href="#DejaVuSans-6f" x="263.908203"/>
       <use xlink:href="#DejaVuSans-6d" x="325.089844"/>
       <use xlink:href="#DejaVuSans-61" x="422.501953"/>
       <use xlink:href="#DejaVuSans-76" x="483.78125"/>
       <use xlink:href="#DejaVuSans-69" x="542.960938"/>
       <use xlink:href="#DejaVuSans-72" x="570.744141"/>
       <use xlink:href="#DejaVuSans-69" x="611.857422"/>
       <use xlink:href="#DejaVuSans-64" x="639.640625"/>
       <use xlink:href="#DejaVuSans-61" x="703.117188"/>
       <use xlink:href="#DejaVuSans-65" x="764.396484"/>
      </g>
     </g>
    </g>
    <g id="xtick_5">
     <g id="line2d_5">
      <g>
       <use xlink:href="#m3485397225" x="455.971027" y="309.194643" style="stroke: #000000; stroke-width: 0.8"/>
      </g>
     </g>
     <g id="text_5">
      <!-- Caudoviricetes -->
      <g transform="translate(431.605122 374.201706) rotate(-45) scale(0.1 -0.1)">
       <use xlink:href="#DejaVuSans-43"/>
       <use xlink:href="#DejaVuSans-61" x="69.824219"/>
       <use xlink:href="#DejaVuSans-75" x="131.103516"/>
       <use xlink:href="#DejaVuSans-64" x="194.482422"/>
       <use xlink:href="#DejaVuSans-6f" x="257.958984"/>
       <use xlink:href="#DejaVuSans-76" x="319.140625"/>
       <use xlink:href="#DejaVuSans-69" x="378.320312"/>
       <use xlink:href="#DejaVuSans-72" x="406.103516"/>
       <use xlink:href="#DejaVuSans-69" x="447.216797"/>
       <use xlink:href="#DejaVuSans-63" x="475"/>
       <use xlink:href="#DejaVuSans-65" x="529.980469"/>
       <use xlink:href="#DejaVuSans-74" x="591.503906"/>
       <use xlink:href="#DejaVuSans-65" x="630.712891"/>
       <use xlink:href="#DejaVuSans-73" x="692.236328"/>
      </g>
     </g>
    </g>
    <g id="xtick_6">
     <g id="line2d_6">
      <g>
       <use xlink:href="#m3485397225" x="538.043129" y="309.194643" style="stroke: #000000; stroke-width: 0.8"/>
      </g>
     </g>
     <g id="text_6">
      <!-- Lawsonella cleavelandensis -->
      <g transform="translate(491.038206 419.479742) rotate(-45) scale(0.1 -0.1)">
       <defs>
        <path id="DejaVuSans-4c" d="M 628 4666 
L 1259 4666 
L 1259 531 
L 3531 531 
L 3531 0 
L 628 0 
L 628 4666 
z
" transform="scale(0.015625)"/>
        <path id="DejaVuSans-77" d="M 269 3500 
L 844 3500 
L 1563 769 
L 2278 3500 
L 2956 3500 
L 3675 769 
L 4391 3500 
L 4966 3500 
L 4050 0 
L 3372 0 
L 2619 2869 
L 1863 0 
L 1184 0 
L 269 3500 
z
" transform="scale(0.015625)"/>
       </defs>
       <use xlink:href="#DejaVuSans-4c"/>
       <use xlink:href="#DejaVuSans-61" x="55.712891"/>
       <use xlink:href="#DejaVuSans-77" x="116.992188"/>
       <use xlink:href="#DejaVuSans-73" x="198.779297"/>
       <use xlink:href="#DejaVuSans-6f" x="250.878906"/>
       <use xlink:href="#DejaVuSans-6e" x="312.060547"/>
       <use xlink:href="#DejaVuSans-65" x="375.439453"/>
       <use xlink:href="#DejaVuSans-6c" x="436.962891"/>
       <use xlink:href="#DejaVuSans-6c" x="464.746094"/>
       <use xlink:href="#DejaVuSans-61" x="492.529297"/>
       <use xlink:href="#DejaVuSans-20" x="553.808594"/>
       <use xlink:href="#DejaVuSans-63" x="585.595703"/>
       <use xlink:href="#DejaVuSans-6c" x="640.576172"/>
       <use xlink:href="#DejaVuSans-65" x="668.359375"/>
       <use xlink:href="#DejaVuSans-61" x="729.882812"/>
       <use xlink:href="#DejaVuSans-76" x="791.162109"/>
       <use xlink:href="#DejaVuSans-65" x="850.341797"/>
       <use xlink:href="#DejaVuSans-6c" x="911.865234"/>
       <use xlink:href="#DejaVuSans-61" x="939.648438"/>
       <use xlink:href="#DejaVuSans-6e" x="1000.927734"/>
       <use xlink:href="#DejaVuSans-64" x="1064.306641"/>
       <use xlink:href="#DejaVuSans-65" x="1127.783203"/>
       <use xlink:href="#DejaVuSans-6e" x="1189.306641"/>
       <use xlink:href="#DejaVuSans-73" x="1252.685547"/>
       <use xlink:href="#DejaVuSans-69" x="1304.785156"/>
       <use xlink:href="#DejaVuSans-73" x="1332.568359"/>
      </g>
     </g>
    </g>
    <g id="xtick_7">
     <g id="line2d_7">
      <g>
       <use xlink:href="#m3485397225" x="620.115231" y="309.194643" style="stroke: #000000; stroke-width: 0.8"/>
      </g>
     </g>
     <g id="text_7">
      <!-- Corynebacterium spp. -->
      <g transform="translate(582.857332 399.985692) rotate(-45) scale(0.1 -0.1)">
       <defs>
        <path id="DejaVuSans-79" d="M 2059 -325 
Q 1816 -950 1584 -1140 
Q 1353 -1331 966 -1331 
L 506 -1331 
L 506 -850 
L 844 -850 
Q 1081 -850 1212 -737 
Q 1344 -625 1503 -206 
L 1606 56 
L 191 3500 
L 800 3500 
L 1894 763 
L 2988 3500 
L 3597 3500 
L 2059 -325 
z
" transform="scale(0.015625)"/>
       </defs>
       <use xlink:href="#DejaVuSans-43"/>
       <use xlink:href="#DejaVuSans-6f" x="69.824219"/>
       <use xlink:href="#DejaVuSans-72" x="131.005859"/>
       <use xlink:href="#DejaVuSans-79" x="172.119141"/>
       <use xlink:href="#DejaVuSans-6e" x="231.298828"/>
       <use xlink:href="#DejaVuSans-65" x="294.677734"/>
       <use xlink:href="#DejaVuSans-62" x="356.201172"/>
       <use xlink:href="#DejaVuSans-61" x="419.677734"/>
       <use xlink:href="#DejaVuSans-63" x="480.957031"/>
       <use xlink:href="#DejaVuSans-74" x="535.9375"/>
       <use xlink:href="#DejaVuSans-65" x="575.146484"/>
       <use xlink:href="#DejaVuSans-72" x="636.669922"/>
       <use xlink:href="#DejaVuSans-69" x="677.783203"/>
       <use xlink:href="#DejaVuSans-75" x="705.566406"/>
       <use xlink:href="#DejaVuSans-6d" x="768.945312"/>
       <use xlink:href="#DejaVuSans-20" x="866.357422"/>
       <use xlink:href="#DejaVuSans-73" x="898.144531"/>
       <use xlink:href="#DejaVuSans-70" x="950.244141"/>
       <use xlink:href="#DejaVuSans-70" x="1013.720703"/>
       <use xlink:href="#DejaVuSans-2e" x="1077.197266"/>
      </g>
     </g>
    </g>
    <g id="xtick_8">
     <g id="line2d_8">
      <g>
       <use xlink:href="#m3485397225" x="702.187333" y="309.194643" style="stroke: #000000; stroke-width: 0.8"/>
      </g>
     </g>
     <g id="text_8">
      <!-- Neisseria spp. -->
      <g transform="translate(679.296408 371.251745) rotate(-45) scale(0.1 -0.1)">
       <defs>
        <path id="DejaVuSans-4e" d="M 628 4666 
L 1478 4666 
L 3547 763 
L 3547 4666 
L 4159 4666 
L 4159 0 
L 3309 0 
L 1241 3903 
L 1241 0 
L 628 0 
L 628 4666 
z
" transform="scale(0.015625)"/>
       </defs>
       <use xlink:href="#DejaVuSans-4e"/>
       <use xlink:href="#DejaVuSans-65" x="74.804688"/>
       <use xlink:href="#DejaVuSans-69" x="136.328125"/>
       <use xlink:href="#DejaVuSans-73" x="164.111328"/>
       <use xlink:href="#DejaVuSans-73" x="216.210938"/>
       <use xlink:href="#DejaVuSans-65" x="268.310547"/>
       <use xlink:href="#DejaVuSans-72" x="329.833984"/>
       <use xlink:href="#DejaVuSans-69" x="370.947266"/>
       <use xlink:href="#DejaVuSans-61" x="398.730469"/>
       <use xlink:href="#DejaVuSans-20" x="460.009766"/>
       <use xlink:href="#DejaVuSans-73" x="491.796875"/>
       <use xlink:href="#DejaVuSans-70" x="543.896484"/>
       <use xlink:href="#DejaVuSans-70" x="607.373047"/>
       <use xlink:href="#DejaVuSans-2e" x="670.849609"/>
      </g>
     </g>
    </g>
    <g id="xtick_9">
     <g id="line2d_9">
      <g>
       <use xlink:href="#m3485397225" x="784.259434" y="309.194643" style="stroke: #000000; stroke-width: 0.8"/>
      </g>
     </g>
     <g id="text_9">
      <!-- Other (combined) -->
      <g transform="translate(754.850974 384.286816) rotate(-45) scale(0.1 -0.1)">
       <defs>
        <path id="DejaVuSans-4f" d="M 2522 4238 
Q 1834 4238 1429 3725 
Q 1025 3213 1025 2328 
Q 1025 1447 1429 934 
Q 1834 422 2522 422 
Q 3209 422 3611 934 
Q 4013 1447 4013 2328 
Q 4013 3213 3611 3725 
Q 3209 4238 2522 4238 
z
M 2522 4750 
Q 3503 4750 4090 4092 
Q 4678 3434 4678 2328 
Q 4678 1225 4090 567 
Q 3503 -91 2522 -91 
Q 1538 -91 948 565 
Q 359 1222 359 2328 
Q 359 3434 948 4092 
Q 1538 4750 2522 4750 
z
" transform="scale(0.015625)"/>
        <path id="DejaVuSans-68" d="M 3513 2113 
L 3513 0 
L 2938 0 
L 2938 2094 
Q 2938 2591 2744 2837 
Q 2550 3084 2163 3084 
Q 1697 3084 1428 2787 
Q 1159 2491 1159 1978 
L 1159 0 
L 581 0 
L 581 4863 
L 1159 4863 
L 1159 2956 
Q 1366 3272 1645 3428 
Q 1925 3584 2291 3584 
Q 2894 3584 3203 3211 
Q 3513 2838 3513 2113 
z
" transform="scale(0.015625)"/>
        <path id="DejaVuSans-28" d="M 1984 4856 
Q 1566 4138 1362 3434 
Q 1159 2731 1159 2009 
Q 1159 1288 1364 580 
Q 1569 -128 1984 -844 
L 1484 -844 
Q 1016 -109 783 600 
Q 550 1309 550 2009 
Q 550 2706 781 3412 
Q 1013 4119 1484 4856 
L 1984 4856 
z
" transform="scale(0.015625)"/>
        <path id="DejaVuSans-29" d="M 513 4856 
L 1013 4856 
Q 1481 4119 1714 3412 
Q 1947 2706 1947 2009 
Q 1947 1309 1714 600 
Q 1481 -109 1013 -844 
L 513 -844 
Q 928 -128 1133 580 
Q 1338 1288 1338 2009 
Q 1338 2731 1133 3434 
Q 928 4138 513 4856 
z
" transform="scale(0.015625)"/>
       </defs>
       <use xlink:href="#DejaVuSans-4f"/>
       <use xlink:href="#DejaVuSans-74" x="78.710938"/>
       <use xlink:href="#DejaVuSans-68" x="117.919922"/>
       <use xlink:href="#DejaVuSans-65" x="181.298828"/>
       <use xlink:href="#DejaVuSans-72" x="242.822266"/>
       <use xlink:href="#DejaVuSans-20" x="283.935547"/>
       <use xlink:href="#DejaVuSans-28" x="315.722656"/>
       <use xlink:href="#DejaVuSans-63" x="354.736328"/>
       <use xlink:href="#DejaVuSans-6f" x="409.716797"/>
       <use xlink:href="#DejaVuSans-6d" x="470.898438"/>
       <use xlink:href="#DejaVuSans-62" x="568.310547"/>
       <use xlink:href="#DejaVuSans-69" x="631.787109"/>
       <use xlink:href="#DejaVuSans-6e" x="659.570312"/>
       <use xlink:href="#DejaVuSans-65" x="722.949219"/>
       <use xlink:href="#DejaVuSans-64" x="784.472656"/>
       <use xlink:href="#DejaVuSans-29" x="847.949219"/>
      </g>
     </g>
    </g>
   </g>
   <g id="matplotlib.axis_2">
    <g id="ytick_1">
     <g id="line2d_10">
      <defs>
       <path id="m375f8cd48d" d="M 0 0 
L -3.5 0 
" style="stroke: #000000; stroke-width: 0.8"/>
      </defs>
      <g>
       <use xlink:href="#m375f8cd48d" x="58.742054" y="200.187929" style="stroke: #000000; stroke-width: 0.8"/>
      </g>
     </g>
     <g id="text_10">
      <!-- 10$^{-3}$ -->
      <g transform="translate(28.242054 203.987148) scale(0.1 -0.1)">
       <defs>
        <path id="DejaVuSans-31" d="M 794 531 
L 1825 531 
L 1825 4091 
L 703 3866 
L 703 4441 
L 1819 4666 
L 2450 4666 
L 2450 531 
L 3481 531 
L 3481 0 
L 794 0 
L 794 531 
z
" transform="scale(0.015625)"/>
        <path id="DejaVuSans-30" d="M 2034 4250 
Q 1547 4250 1301 3770 
Q 1056 3291 1056 2328 
Q 1056 1369 1301 889 
Q 1547 409 2034 409 
Q 2525 409 2770 889 
Q 3016 1369 3016 2328 
Q 3016 3291 2770 3770 
Q 2525 4250 2034 4250 
z
M 2034 4750 
Q 2819 4750 3233 4129 
Q 3647 3509 3647 2328 
Q 3647 1150 3233 529 
Q 2819 -91 2034 -91 
Q 1250 -91 836 529 
Q 422 1150 422 2328 
Q 422 3509 836 4129 
Q 1250 4750 2034 4750 
z
" transform="scale(0.015625)"/>
        <path id="DejaVuSans-2212" d="M 678 2272 
L 4684 2272 
L 4684 1741 
L 678 1741 
L 678 2272 
z
" transform="scale(0.015625)"/>
        <path id="DejaVuSans-33" d="M 2597 2516 
Q 3050 2419 3304 2112 
Q 3559 1806 3559 1356 
Q 3559 666 3084 287 
Q 2609 -91 1734 -91 
Q 1441 -91 1130 -33 
Q 819 25 488 141 
L 488 750 
Q 750 597 1062 519 
Q 1375 441 1716 441 
Q 2309 441 2620 675 
Q 2931 909 2931 1356 
Q 2931 1769 2642 2001 
Q 2353 2234 1838 2234 
L 1294 2234 
L 1294 2753 
L 1863 2753 
Q 2328 2753 2575 2939 
Q 2822 3125 2822 3475 
Q 2822 3834 2567 4026 
Q 2313 4219 1838 4219 
Q 1578 4219 1281 4162 
Q 984 4106 628 3988 
L 628 4550 
Q 988 4650 1302 4700 
Q 1616 4750 1894 4750 
Q 2613 4750 3031 4423 
Q 3450 4097 3450 3541 
Q 3450 3153 3228 2886 
Q 3006 2619 2597 2516 
z
" transform="scale(0.015625)"/>
       </defs>
       <use xlink:href="#DejaVuSans-31" transform="translate(0 0.765625)"/>
       <use xlink:href="#DejaVuSans-30" transform="translate(63.623047 0.765625)"/>
       <use xlink:href="#DejaVuSans-2212" transform="translate(128.203125 39.046875) scale(0.7)"/>
       <use xlink:href="#DejaVuSans-33" transform="translate(186.855469 39.046875) scale(0.7)"/>
      </g>
     </g>
    </g>
    <g id="ytick_2">
     <g id="line2d_11">
      <g>
       <use xlink:href="#m375f8cd48d" x="58.742054" y="82.269841" style="stroke: #000000; stroke-width: 0.8"/>
      </g>
     </g>
     <g id="text_11">
      <!-- 10$^{-2}$ -->
      <g transform="translate(28.242054 86.06906) scale(0.1 -0.1)">
       <defs>
        <path id="DejaVuSans-32" d="M 1228 531 
L 3431 531 
L 3431 0 
L 469 0 
L 469 531 
Q 828 903 1448 1529 
Q 2069 2156 2228 2338 
Q 2531 2678 2651 2914 
Q 2772 3150 2772 3378 
Q 2772 3750 2511 3984 
Q 2250 4219 1831 4219 
Q 1534 4219 1204 4116 
Q 875 4013 500 3803 
L 500 4441 
Q 881 4594 1212 4672 
Q 1544 4750 1819 4750 
Q 2544 4750 2975 4387 
Q 3406 4025 3406 3419 
Q 3406 3131 3298 2873 
Q 3191 2616 2906 2266 
Q 2828 2175 2409 1742 
Q 1991 1309 1228 531 
z
" transform="scale(0.015625)"/>
       </defs>
       <use xlink:href="#DejaVuSans-31" transform="translate(0 0.765625)"/>
       <use xlink:href="#DejaVuSans-30" transform="translate(63.623047 0.765625)"/>
       <use xlink:href="#DejaVuSans-2212" transform="translate(128.203125 39.046875) scale(0.7)"/>
       <use xlink:href="#DejaVuSans-32" transform="translate(186.855469 39.046875) scale(0.7)"/>
      </g>
     </g>
    </g>
    <g id="ytick_3">
     <g id="line2d_12">
      <defs>
       <path id="mdeff461af9" d="M 0 0 
L -2 0 
" style="stroke: #000000; stroke-width: 0.6"/>
      </defs>
      <g>
       <use xlink:href="#mdeff461af9" x="58.742054" y="282.609136" style="stroke: #000000; stroke-width: 0.6"/>
      </g>
     </g>
    </g>
    <g id="ytick_4">
     <g id="line2d_13">
      <g>
       <use xlink:href="#mdeff461af9" x="58.742054" y="261.844791" style="stroke: #000000; stroke-width: 0.6"/>
      </g>
     </g>
    </g>
    <g id="ytick_5">
     <g id="line2d_14">
      <g>
       <use xlink:href="#mdeff461af9" x="58.742054" y="247.112254" style="stroke: #000000; stroke-width: 0.6"/>
      </g>
     </g>
    </g>
    <g id="ytick_6">
     <g id="line2d_15">
      <g>
       <use xlink:href="#mdeff461af9" x="58.742054" y="235.684811" style="stroke: #000000; stroke-width: 0.6"/>
      </g>
     </g>
    </g>
    <g id="ytick_7">
     <g id="line2d_16">
      <g>
       <use xlink:href="#mdeff461af9" x="58.742054" y="226.34791" style="stroke: #000000; stroke-width: 0.6"/>
      </g>
     </g>
    </g>
    <g id="ytick_8">
     <g id="line2d_17">
      <g>
       <use xlink:href="#mdeff461af9" x="58.742054" y="218.453672" style="stroke: #000000; stroke-width: 0.6"/>
      </g>
     </g>
    </g>
    <g id="ytick_9">
     <g id="line2d_18">
      <g>
       <use xlink:href="#mdeff461af9" x="58.742054" y="211.615373" style="stroke: #000000; stroke-width: 0.6"/>
      </g>
     </g>
    </g>
    <g id="ytick_10">
     <g id="line2d_19">
      <g>
       <use xlink:href="#mdeff461af9" x="58.742054" y="205.583565" style="stroke: #000000; stroke-width: 0.6"/>
      </g>
     </g>
    </g>
    <g id="ytick_11">
     <g id="line2d_20">
      <g>
       <use xlink:href="#mdeff461af9" x="58.742054" y="164.691048" style="stroke: #000000; stroke-width: 0.6"/>
      </g>
     </g>
    </g>
    <g id="ytick_12">
     <g id="line2d_21">
      <g>
       <use xlink:href="#mdeff461af9" x="58.742054" y="143.926703" style="stroke: #000000; stroke-width: 0.6"/>
      </g>
     </g>
    </g>
    <g id="ytick_13">
     <g id="line2d_22">
      <g>
       <use xlink:href="#mdeff461af9" x="58.742054" y="129.194166" style="stroke: #000000; stroke-width: 0.6"/>
      </g>
     </g>
    </g>
    <g id="ytick_14">
     <g id="line2d_23">
      <g>
       <use xlink:href="#mdeff461af9" x="58.742054" y="117.766723" style="stroke: #000000; stroke-width: 0.6"/>
      </g>
     </g>
    </g>
    <g id="ytick_15">
     <g id="line2d_24">
      <g>
       <use xlink:href="#mdeff461af9" x="58.742054" y="108.429822" style="stroke: #000000; stroke-width: 0.6"/>
      </g>
     </g>
    </g>
    <g id="ytick_16">
     <g id="line2d_25">
      <g>
       <use xlink:href="#mdeff461af9" x="58.742054" y="100.535584" style="stroke: #000000; stroke-width: 0.6"/>
      </g>
     </g>
    </g>
    <g id="ytick_17">
     <g id="line2d_26">
      <g>
       <use xlink:href="#mdeff461af9" x="58.742054" y="93.697285" style="stroke: #000000; stroke-width: 0.6"/>
      </g>
     </g>
    </g>
    <g id="ytick_18">
     <g id="line2d_27">
      <g>
       <use xlink:href="#mdeff461af9" x="58.742054" y="87.665477" style="stroke: #000000; stroke-width: 0.6"/>
      </g>
     </g>
    </g>
    <g id="ytick_19">
     <g id="line2d_28">
      <g>
       <use xlink:href="#mdeff461af9" x="58.742054" y="46.77296" style="stroke: #000000; stroke-width: 0.6"/>
      </g>
     </g>
    </g>
    <g id="text_12">
     <!-- Nucleotide Diversity ($\pi$) -->
     <g transform="translate(22.142054 227.187321) rotate(-90) scale(0.1 -0.1)">
      <defs>
       <path id="DejaVuSans-44" d="M 1259 4147 
L 1259 519 
L 2022 519 
Q 2988 519 3436 956 
Q 3884 1394 3884 2338 
Q 3884 3275 3436 3711 
Q 2988 4147 2022 4147 
L 1259 4147 
z
M 628 4666 
L 1925 4666 
Q 3281 4666 3915 4102 
Q 4550 3538 4550 2338 
Q 4550 1131 3912 565 
Q 3275 0 1925 0 
L 628 0 
L 628 4666 
z
" transform="scale(0.015625)"/>
       <path id="DejaVuSans-Oblique-3c0" d="M 584 3500 
L 3938 3500 
L 3825 2925 
L 3384 2925 
L 2966 775 
Q 2922 550 2981 450 
Q 3038 353 3209 353 
Q 3256 353 3325 363 
Q 3397 369 3419 372 
L 3338 -44 
Q 3222 -84 3103 -103 
Q 2981 -122 2866 -122 
Q 2491 -122 2388 81 
Q 2284 288 2391 838 
L 2797 2925 
L 1506 2925 
L 938 0 
L 350 0 
L 919 2925 
L 472 2925 
L 584 3500 
z
" transform="scale(0.015625)"/>
      </defs>
      <use xlink:href="#DejaVuSans-4e" transform="translate(0 0.015625)"/>
      <use xlink:href="#DejaVuSans-75" transform="translate(74.804688 0.015625)"/>
      <use xlink:href="#DejaVuSans-63" transform="translate(138.183594 0.015625)"/>
      <use xlink:href="#DejaVuSans-6c" transform="translate(193.164062 0.015625)"/>
      <use xlink:href="#DejaVuSans-65" transform="translate(220.947266 0.015625)"/>
      <use xlink:href="#DejaVuSans-6f" transform="translate(282.470703 0.015625)"/>
      <use xlink:href="#DejaVuSans-74" transform="translate(343.652344 0.015625)"/>
      <use xlink:href="#DejaVuSans-69" transform="translate(382.861328 0.015625)"/>
      <use xlink:href="#DejaVuSans-64" transform="translate(410.644531 0.015625)"/>
      <use xlink:href="#DejaVuSans-65" transform="translate(474.121094 0.015625)"/>
      <use xlink:href="#DejaVuSans-20" transform="translate(535.644531 0.015625)"/>
      <use xlink:href="#DejaVuSans-44" transform="translate(567.431641 0.015625)"/>
      <use xlink:href="#DejaVuSans-69" transform="translate(644.433594 0.015625)"/>
      <use xlink:href="#DejaVuSans-76" transform="translate(672.216797 0.015625)"/>
      <use xlink:href="#DejaVuSans-65" transform="translate(731.396484 0.015625)"/>
      <use xlink:href="#DejaVuSans-72" transform="translate(792.919922 0.015625)"/>
      <use xlink:href="#DejaVuSans-73" transform="translate(834.033203 0.015625)"/>
      <use xlink:href="#DejaVuSans-69" transform="translate(886.132812 0.015625)"/>
      <use xlink:href="#DejaVuSans-74" transform="translate(913.916016 0.015625)"/>
      <use xlink:href="#DejaVuSans-79" transform="translate(953.125 0.015625)"/>
      <use xlink:href="#DejaVuSans-20" transform="translate(1012.304688 0.015625)"/>
      <use xlink:href="#DejaVuSans-28" transform="translate(1044.091797 0.015625)"/>
      <use xlink:href="#DejaVuSans-Oblique-3c0" transform="translate(1083.105469 0.015625)"/>
      <use xlink:href="#DejaVuSans-29" transform="translate(1143.310547 0.015625)"/>
     </g>
    </g>
   </g>
   <g id="patch_5">
    <path d="M 94.853779 244.920962 
L 127.682619 244.920962 
L 127.682619 218.582397 
L 94.853779 218.582397 
L 94.853779 244.920962 
z
" clip-path="url(#p703a0a35db)" style="fill: #85c1ca; stroke: #626262; stroke-linejoin: miter"/>
   </g>
   <g id="line2d_29">
    <path d="M 111.268199 244.920962 
L 111.268199 272.820157 
" clip-path="url(#p703a0a35db)" style="fill: none; stroke: #626262"/>
   </g>
   <g id="line2d_30">
    <path d="M 111.268199 218.582397 
L 111.268199 201.654664 
" clip-path="url(#p703a0a35db)" style="fill: none; stroke: #626262"/>
   </g>
   <g id="line2d_31">
    <path d="M 103.060989 272.820157 
L 119.475409 272.820157 
" clip-path="url(#p703a0a35db)" style="fill: none; stroke: #626262; stroke-linecap: square"/>
   </g>
   <g id="line2d_32">
    <path d="M 103.060989 201.654664 
L 119.475409 201.654664 
" clip-path="url(#p703a0a35db)" style="fill: none; stroke: #626262; stroke-linecap: square"/>
   </g>
   <g id="patch_6">
    <path d="M 176.925881 214.174077 
L 209.754721 214.174077 
L 209.754721 142.974379 
L 176.925881 142.974379 
L 176.925881 214.174077 
z
" clip-path="url(#p703a0a35db)" style="fill: #85c1ca; stroke: #626262; stroke-linejoin: miter"/>
   </g>
   <g id="line2d_33">
    <path d="M 193.340301 214.174077 
L 193.340301 271.157021 
" clip-path="url(#p703a0a35db)" style="fill: none; stroke: #626262"/>
   </g>
   <g id="line2d_34">
    <path d="M 193.340301 142.974379 
L 193.340301 113.556846 
" clip-path="url(#p703a0a35db)" style="fill: none; stroke: #626262"/>
   </g>
   <g id="line2d_35">
    <path d="M 185.133091 271.157021 
L 201.547511 271.157021 
" clip-path="url(#p703a0a35db)" style="fill: none; stroke: #626262; stroke-linecap: square"/>
   </g>
   <g id="line2d_36">
    <path d="M 185.133091 113.556846 
L 201.547511 113.556846 
" clip-path="url(#p703a0a35db)" style="fill: none; stroke: #626262; stroke-linecap: square"/>
   </g>
   <g id="patch_7">
    <path d="M 258.997982 158.69637 
L 291.826823 158.69637 
L 291.826823 106.318959 
L 258.997982 106.318959 
L 258.997982 158.69637 
z
" clip-path="url(#p703a0a35db)" style="fill: #85c1ca; stroke: #626262; stroke-linejoin: miter"/>
   </g>
   <g id="line2d_37">
    <path d="M 275.412403 158.69637 
L 275.412403 234.288882 
" clip-path="url(#p703a0a35db)" style="fill: none; stroke: #626262"/>
   </g>
   <g id="line2d_38">
    <path d="M 275.412403 106.318959 
L 275.412403 91.822572 
" clip-path="url(#p703a0a35db)" style="fill: none; stroke: #626262"/>
   </g>
   <g id="line2d_39">
    <path d="M 267.205193 234.288882 
L 283.619613 234.288882 
" clip-path="url(#p703a0a35db)" style="fill: none; stroke: #626262; stroke-linecap: square"/>
   </g>
   <g id="line2d_40">
    <path d="M 267.205193 91.822572 
L 283.619613 91.822572 
" clip-path="url(#p703a0a35db)" style="fill: none; stroke: #626262; stroke-linecap: square"/>
   </g>
   <g id="patch_8">
    <path d="M 341.070084 277.971854 
L 373.898925 277.971854 
L 373.898925 262.027618 
L 341.070084 262.027618 
L 341.070084 277.971854 
z
" clip-path="url(#p703a0a35db)" style="fill: #85c1ca; stroke: #626262; stroke-linejoin: miter"/>
   </g>
   <g id="line2d_41">
    <path d="M 357.484505 277.971854 
L 357.484505 296.362159 
" clip-path="url(#p703a0a35db)" style="fill: none; stroke: #626262"/>
   </g>
   <g id="line2d_42">
    <path d="M 357.484505 262.027618 
L 357.484505 262.027618 
" clip-path="url(#p703a0a35db)" style="fill: none; stroke: #626262"/>
   </g>
   <g id="line2d_43">
    <path d="M 349.277295 296.362159 
L 365.691715 296.362159 
" clip-path="url(#p703a0a35db)" style="fill: none; stroke: #626262; stroke-linecap: square"/>
   </g>
   <g id="line2d_44">
    <path d="M 349.277295 262.027618 
L 365.691715 262.027618 
" clip-path="url(#p703a0a35db)" style="fill: none; stroke: #626262; stroke-linecap: square"/>
   </g>
   <g id="patch_9">
    <path d="M 423.142186 235.064096 
L 455.971027 235.064096 
L 455.971027 140.920238 
L 423.142186 140.920238 
L 423.142186 235.064096 
z
" clip-path="url(#p703a0a35db)" style="fill: #85c1ca; stroke: #626262; stroke-linejoin: miter"/>
   </g>
   <g id="line2d_45">
    <path d="M 439.556607 235.064096 
L 439.556607 253.534295 
" clip-path="url(#p703a0a35db)" style="fill: none; stroke: #626262"/>
   </g>
   <g id="line2d_46">
    <path d="M 439.556607 140.920238 
L 439.556607 106.98141 
" clip-path="url(#p703a0a35db)" style="fill: none; stroke: #626262"/>
   </g>
   <g id="line2d_47">
    <path d="M 431.349396 253.534295 
L 447.763817 253.534295 
" clip-path="url(#p703a0a35db)" style="fill: none; stroke: #626262; stroke-linecap: square"/>
   </g>
   <g id="line2d_48">
    <path d="M 431.349396 106.98141 
L 447.763817 106.98141 
" clip-path="url(#p703a0a35db)" style="fill: none; stroke: #626262; stroke-linecap: square"/>
   </g>
   <g id="patch_10">
    <path d="M 505.214288 254.074205 
L 538.043129 254.074205 
L 538.043129 180.258476 
L 505.214288 180.258476 
L 505.214288 254.074205 
z
" clip-path="url(#p703a0a35db)" style="fill: #85c1ca; stroke: #626262; stroke-linejoin: miter"/>
   </g>
   <g id="line2d_49">
    <path d="M 521.628708 254.074205 
L 521.628708 289.294359 
" clip-path="url(#p703a0a35db)" style="fill: none; stroke: #626262"/>
   </g>
   <g id="line2d_50">
    <path d="M 521.628708 180.258476 
L 521.628708 148.21368 
" clip-path="url(#p703a0a35db)" style="fill: none; stroke: #626262"/>
   </g>
   <g id="line2d_51">
    <path d="M 513.421498 289.294359 
L 529.835919 289.294359 
" clip-path="url(#p703a0a35db)" style="fill: none; stroke: #626262; stroke-linecap: square"/>
   </g>
   <g id="line2d_52">
    <path d="M 513.421498 148.21368 
L 529.835919 148.21368 
" clip-path="url(#p703a0a35db)" style="fill: none; stroke: #626262; stroke-linecap: square"/>
   </g>
   <g id="patch_11">
    <path d="M 587.28639 205.417853 
L 620.115231 205.417853 
L 620.115231 114.428 
L 587.28639 114.428 
L 587.28639 205.417853 
z
" clip-path="url(#p703a0a35db)" style="fill: #85c1ca; stroke: #626262; stroke-linejoin: miter"/>
   </g>
   <g id="line2d_53">
    <path d="M 603.70081 205.417853 
L 603.70081 242.980791 
" clip-path="url(#p703a0a35db)" style="fill: none; stroke: #626262"/>
   </g>
   <g id="line2d_54">
    <path d="M 603.70081 114.428 
L 603.70081 90.619492 
" clip-path="url(#p703a0a35db)" style="fill: none; stroke: #626262"/>
   </g>
   <g id="line2d_55">
    <path d="M 595.4936 242.980791 
L 611.908021 242.980791 
" clip-path="url(#p703a0a35db)" style="fill: none; stroke: #626262; stroke-linecap: square"/>
   </g>
   <g id="line2d_56">
    <path d="M 595.4936 90.619492 
L 611.908021 90.619492 
" clip-path="url(#p703a0a35db)" style="fill: none; stroke: #626262; stroke-linecap: square"/>
   </g>
   <g id="patch_12">
    <path d="M 669.358492 160.262439 
L 702.187333 160.262439 
L 702.187333 113.349621 
L 669.358492 113.349621 
L 669.358492 160.262439 
z
" clip-path="url(#p703a0a35db)" style="fill: #85c1ca; stroke: #626262; stroke-linejoin: miter"/>
   </g>
   <g id="line2d_57">
    <path d="M 685.772912 160.262439 
L 685.772912 191.223535 
" clip-path="url(#p703a0a35db)" style="fill: none; stroke: #626262"/>
   </g>
   <g id="line2d_58">
    <path d="M 685.772912 113.349621 
L 685.772912 87.610537 
" clip-path="url(#p703a0a35db)" style="fill: none; stroke: #626262"/>
   </g>
   <g id="line2d_59">
    <path d="M 677.565702 191.223535 
L 693.980122 191.223535 
" clip-path="url(#p703a0a35db)" style="fill: none; stroke: #626262; stroke-linecap: square"/>
   </g>
   <g id="line2d_60">
    <path d="M 677.565702 87.610537 
L 693.980122 87.610537 
" clip-path="url(#p703a0a35db)" style="fill: none; stroke: #626262; stroke-linecap: square"/>
   </g>
   <g id="patch_13">
    <path d="M 751.430594 178.881064 
L 784.259434 178.881064 
L 784.259434 95.3952 
L 751.430594 95.3952 
L 751.430594 178.881064 
z
" clip-path="url(#p703a0a35db)" style="fill: #85c1ca; stroke: #626262; stroke-linejoin: miter"/>
   </g>
   <g id="line2d_61">
    <path d="M 767.845014 178.881064 
L 767.845014 230.772616 
" clip-path="url(#p703a0a35db)" style="fill: none; stroke: #626262"/>
   </g>
   <g id="line2d_62">
    <path d="M 767.845014 95.3952 
L 767.845014 60.09926 
" clip-path="url(#p703a0a35db)" style="fill: none; stroke: #626262"/>
   </g>
   <g id="line2d_63">
    <path d="M 759.637804 230.772616 
L 776.052224 230.772616 
" clip-path="url(#p703a0a35db)" style="fill: none; stroke: #626262; stroke-linecap: square"/>
   </g>
   <g id="line2d_64">
    <path d="M 759.637804 60.09926 
L 776.052224 60.09926 
" clip-path="url(#p703a0a35db)" style="fill: none; stroke: #626262; stroke-linecap: square"/>
   </g>
   <g id="patch_14">
    <path d="M 127.682619 247.892825 
L 160.51146 247.892825 
L 160.51146 218.93659 
L 127.682619 218.93659 
L 127.682619 247.892825 
z
" clip-path="url(#p703a0a35db)" style="fill: #e8735e; stroke: #626262; stroke-linejoin: miter"/>
   </g>
   <g id="line2d_65">
    <path d="M 144.09704 247.892825 
L 144.09704 268.602377 
" clip-path="url(#p703a0a35db)" style="fill: none; stroke: #626262"/>
   </g>
   <g id="line2d_66">
    <path d="M 144.09704 218.93659 
L 144.09704 198.898303 
" clip-path="url(#p703a0a35db)" style="fill: none; stroke: #626262"/>
   </g>
   <g id="line2d_67">
    <path d="M 135.88983 268.602377 
L 152.30425 268.602377 
" clip-path="url(#p703a0a35db)" style="fill: none; stroke: #626262; stroke-linecap: square"/>
   </g>
   <g id="line2d_68">
    <path d="M 135.88983 198.898303 
L 152.30425 198.898303 
" clip-path="url(#p703a0a35db)" style="fill: none; stroke: #626262; stroke-linecap: square"/>
   </g>
   <g id="patch_15">
    <path d="M 209.754721 251.261452 
L 242.583562 251.261452 
L 242.583562 155.447287 
L 209.754721 155.447287 
L 209.754721 251.261452 
z
" clip-path="url(#p703a0a35db)" style="fill: #e8735e; stroke: #626262; stroke-linejoin: miter"/>
   </g>
   <g id="line2d_69">
    <path d="M 226.169142 251.261452 
L 226.169142 273.337505 
" clip-path="url(#p703a0a35db)" style="fill: none; stroke: #626262"/>
   </g>
   <g id="line2d_70">
    <path d="M 226.169142 155.447287 
L 226.169142 118.648679 
" clip-path="url(#p703a0a35db)" style="fill: none; stroke: #626262"/>
   </g>
   <g id="line2d_71">
    <path d="M 217.961932 273.337505 
L 234.376352 273.337505 
" clip-path="url(#p703a0a35db)" style="fill: none; stroke: #626262; stroke-linecap: square"/>
   </g>
   <g id="line2d_72">
    <path d="M 217.961932 118.648679 
L 234.376352 118.648679 
" clip-path="url(#p703a0a35db)" style="fill: none; stroke: #626262; stroke-linecap: square"/>
   </g>
   <g id="patch_16">
    <path d="M 291.826823 142.498723 
L 324.655664 142.498723 
L 324.655664 106.583079 
L 291.826823 106.583079 
L 291.826823 142.498723 
z
" clip-path="url(#p703a0a35db)" style="fill: #e8735e; stroke: #626262; stroke-linejoin: miter"/>
   </g>
   <g id="line2d_73">
    <path d="M 308.241244 142.498723 
L 308.241244 197.580357 
" clip-path="url(#p703a0a35db)" style="fill: none; stroke: #626262"/>
   </g>
   <g id="line2d_74">
    <path d="M 308.241244 106.583079 
L 308.241244 93.763038 
" clip-path="url(#p703a0a35db)" style="fill: none; stroke: #626262"/>
   </g>
   <g id="line2d_75">
    <path d="M 300.034033 197.580357 
L 316.448454 197.580357 
" clip-path="url(#p703a0a35db)" style="fill: none; stroke: #626262; stroke-linecap: square"/>
   </g>
   <g id="line2d_76">
    <path d="M 300.034033 93.763038 
L 316.448454 93.763038 
" clip-path="url(#p703a0a35db)" style="fill: none; stroke: #626262; stroke-linecap: square"/>
   </g>
   <g id="patch_17">
    <path d="M 373.898925 269.870848 
L 406.727766 269.870848 
L 406.727766 249.326859 
L 373.898925 249.326859 
L 373.898925 269.870848 
z
" clip-path="url(#p703a0a35db)" style="fill: #e8735e; stroke: #626262; stroke-linejoin: miter"/>
   </g>
   <g id="line2d_77">
    <path d="M 390.313345 269.870848 
L 390.313345 270.086603 
" clip-path="url(#p703a0a35db)" style="fill: none; stroke: #626262"/>
   </g>
   <g id="line2d_78">
    <path d="M 390.313345 249.326859 
L 390.313345 244.105423 
" clip-path="url(#p703a0a35db)" style="fill: none; stroke: #626262"/>
   </g>
   <g id="line2d_79">
    <path d="M 382.106135 270.086603 
L 398.520556 270.086603 
" clip-path="url(#p703a0a35db)" style="fill: none; stroke: #626262; stroke-linecap: square"/>
   </g>
   <g id="line2d_80">
    <path d="M 382.106135 244.105423 
L 398.520556 244.105423 
" clip-path="url(#p703a0a35db)" style="fill: none; stroke: #626262; stroke-linecap: square"/>
   </g>
   <g id="patch_18">
    <path d="M 455.971027 210.951734 
L 488.799868 210.951734 
L 488.799868 134.76665 
L 455.971027 134.76665 
L 455.971027 210.951734 
z
" clip-path="url(#p703a0a35db)" style="fill: #e8735e; stroke: #626262; stroke-linejoin: miter"/>
   </g>
   <g id="line2d_81">
    <path d="M 472.385447 210.951734 
L 472.385447 263.788367 
" clip-path="url(#p703a0a35db)" style="fill: none; stroke: #626262"/>
   </g>
   <g id="line2d_82">
    <path d="M 472.385447 134.76665 
L 472.385447 134.76665 
" clip-path="url(#p703a0a35db)" style="fill: none; stroke: #626262"/>
   </g>
   <g id="line2d_83">
    <path d="M 464.178237 263.788367 
L 480.592658 263.788367 
" clip-path="url(#p703a0a35db)" style="fill: none; stroke: #626262; stroke-linecap: square"/>
   </g>
   <g id="line2d_84">
    <path d="M 464.178237 134.76665 
L 480.592658 134.76665 
" clip-path="url(#p703a0a35db)" style="fill: none; stroke: #626262; stroke-linecap: square"/>
   </g>
   <g id="patch_19">
    <path d="M 538.043129 257.056294 
L 570.87197 257.056294 
L 570.87197 232.282726 
L 538.043129 232.282726 
L 538.043129 257.056294 
z
" clip-path="url(#p703a0a35db)" style="fill: #e8735e; stroke: #626262; stroke-linejoin: miter"/>
   </g>
   <g id="line2d_85">
    <path d="M 554.457549 257.056294 
L 554.457549 273.014346 
" clip-path="url(#p703a0a35db)" style="fill: none; stroke: #626262"/>
   </g>
   <g id="line2d_86">
    <path d="M 554.457549 232.282726 
L 554.457549 213.163787 
" clip-path="url(#p703a0a35db)" style="fill: none; stroke: #626262"/>
   </g>
   <g id="line2d_87">
    <path d="M 546.250339 273.014346 
L 562.664759 273.014346 
" clip-path="url(#p703a0a35db)" style="fill: none; stroke: #626262; stroke-linecap: square"/>
   </g>
   <g id="line2d_88">
    <path d="M 546.250339 213.163787 
L 562.664759 213.163787 
" clip-path="url(#p703a0a35db)" style="fill: none; stroke: #626262; stroke-linecap: square"/>
   </g>
   <g id="patch_20">
    <path d="M 620.115231 120.990763 
L 652.944071 120.990763 
L 652.944071 79.004046 
L 620.115231 79.004046 
L 620.115231 120.990763 
z
" clip-path="url(#p703a0a35db)" style="fill: #e8735e; stroke: #626262; stroke-linejoin: miter"/>
   </g>
   <g id="line2d_89">
    <path d="M 636.529651 120.990763 
L 636.529651 196.261627 
" clip-path="url(#p703a0a35db)" style="fill: none; stroke: #626262"/>
   </g>
   <g id="line2d_90">
    <path d="M 636.529651 79.004046 
L 636.529651 69.097453 
" clip-path="url(#p703a0a35db)" style="fill: none; stroke: #626262"/>
   </g>
   <g id="line2d_91">
    <path d="M 628.322441 196.261627 
L 644.736861 196.261627 
" clip-path="url(#p703a0a35db)" style="fill: none; stroke: #626262; stroke-linecap: square"/>
   </g>
   <g id="line2d_92">
    <path d="M 628.322441 69.097453 
L 644.736861 69.097453 
" clip-path="url(#p703a0a35db)" style="fill: none; stroke: #626262; stroke-linecap: square"/>
   </g>
   <g id="patch_21">
    <path d="M 702.187333 228.888455 
L 735.016173 228.888455 
L 735.016173 194.808216 
L 702.187333 194.808216 
L 702.187333 228.888455 
z
" clip-path="url(#p703a0a35db)" style="fill: #e8735e; stroke: #626262; stroke-linejoin: miter"/>
   </g>
   <g id="line2d_93">
    <path d="M 718.601753 228.888455 
L 718.601753 233.282138 
" clip-path="url(#p703a0a35db)" style="fill: none; stroke: #626262"/>
   </g>
   <g id="line2d_94">
    <path d="M 718.601753 194.808216 
L 718.601753 178.038069 
" clip-path="url(#p703a0a35db)" style="fill: none; stroke: #626262"/>
   </g>
   <g id="line2d_95">
    <path d="M 710.394543 233.282138 
L 726.808963 233.282138 
" clip-path="url(#p703a0a35db)" style="fill: none; stroke: #626262; stroke-linecap: square"/>
   </g>
   <g id="line2d_96">
    <path d="M 710.394543 178.038069 
L 726.808963 178.038069 
" clip-path="url(#p703a0a35db)" style="fill: none; stroke: #626262; stroke-linecap: square"/>
   </g>
   <g id="patch_22">
    <path d="M 784.259434 216.489371 
L 817.088275 216.489371 
L 817.088275 118.289503 
L 784.259434 118.289503 
L 784.259434 216.489371 
z
" clip-path="url(#p703a0a35db)" style="fill: #e8735e; stroke: #626262; stroke-linejoin: miter"/>
   </g>
   <g id="line2d_97">
    <path d="M 800.673855 216.489371 
L 800.673855 276.293506 
" clip-path="url(#p703a0a35db)" style="fill: none; stroke: #626262"/>
   </g>
   <g id="line2d_98">
    <path d="M 800.673855 118.289503 
L 800.673855 92.222491 
" clip-path="url(#p703a0a35db)" style="fill: none; stroke: #626262"/>
   </g>
   <g id="line2d_99">
    <path d="M 792.466645 276.293506 
L 808.881065 276.293506 
" clip-path="url(#p703a0a35db)" style="fill: none; stroke: #626262; stroke-linecap: square"/>
   </g>
   <g id="line2d_100">
    <path d="M 792.466645 92.222491 
L 808.881065 92.222491 
" clip-path="url(#p703a0a35db)" style="fill: none; stroke: #626262; stroke-linecap: square"/>
   </g>
   <g id="line2d_101">
    <path d="M 521.628708 143.332734 
L 554.457549 143.332734 
" clip-path="url(#p703a0a35db)" style="fill: none; stroke: #000000; stroke-width: 1.5; stroke-linecap: square"/>
   </g>
   <g id="line2d_102">
    <path d="M 603.70081 39.712484 
L 636.529651 39.712484 
" clip-path="url(#p703a0a35db)" style="fill: none; stroke: #000000; stroke-width: 1.5; stroke-linecap: square"/>
   </g>
   <g id="line2d_103">
    <path d="M 685.772912 61.800116 
L 718.601753 61.800116 
" clip-path="url(#p703a0a35db)" style="fill: none; stroke: #000000; stroke-width: 1.5; stroke-linecap: square"/>
   </g>
   <g id="line2d_104">
    <path d="M 94.853779 230.168393 
L 127.682619 230.168393 
" clip-path="url(#p703a0a35db)" style="fill: none; stroke: #626262"/>
   </g>
   <g id="line2d_105">
    <path d="M 176.925881 178.474298 
L 209.754721 178.474298 
" clip-path="url(#p703a0a35db)" style="fill: none; stroke: #626262"/>
   </g>
   <g id="line2d_106">
    <path d="M 258.997982 127.759471 
L 291.826823 127.759471 
" clip-path="url(#p703a0a35db)" style="fill: none; stroke: #626262"/>
   </g>
   <g id="line2d_107">
    <path d="M 341.070084 277.00727 
L 373.898925 277.00727 
" clip-path="url(#p703a0a35db)" style="fill: none; stroke: #626262"/>
   </g>
   <g id="line2d_108">
    <path d="M 423.142186 202.317341 
L 455.971027 202.317341 
" clip-path="url(#p703a0a35db)" style="fill: none; stroke: #626262"/>
   </g>
   <g id="line2d_109">
    <path d="M 505.214288 239.975481 
L 538.043129 239.975481 
" clip-path="url(#p703a0a35db)" style="fill: none; stroke: #626262"/>
   </g>
   <g id="line2d_110">
    <path d="M 587.28639 178.179649 
L 620.115231 178.179649 
" clip-path="url(#p703a0a35db)" style="fill: none; stroke: #626262"/>
   </g>
   <g id="line2d_111">
    <path d="M 669.358492 139.875562 
L 702.187333 139.875562 
" clip-path="url(#p703a0a35db)" style="fill: none; stroke: #626262"/>
   </g>
   <g id="line2d_112">
    <path d="M 751.430594 146.577622 
L 784.259434 146.577622 
" clip-path="url(#p703a0a35db)" style="fill: none; stroke: #626262"/>
   </g>
   <g id="line2d_113">
    <path d="M 127.682619 230.545987 
L 160.51146 230.545987 
" clip-path="url(#p703a0a35db)" style="fill: none; stroke: #626262"/>
   </g>
   <g id="line2d_114">
    <path d="M 209.754721 184.849048 
L 242.583562 184.849048 
" clip-path="url(#p703a0a35db)" style="fill: none; stroke: #626262"/>
   </g>
   <g id="line2d_115">
    <path d="M 291.826823 124.332153 
L 324.655664 124.332153 
" clip-path="url(#p703a0a35db)" style="fill: none; stroke: #626262"/>
   </g>
   <g id="line2d_116">
    <path d="M 373.898925 269.228985 
L 406.727766 269.228985 
" clip-path="url(#p703a0a35db)" style="fill: none; stroke: #626262"/>
   </g>
   <g id="line2d_117">
    <path d="M 455.971027 170.494384 
L 488.799868 170.494384 
" clip-path="url(#p703a0a35db)" style="fill: none; stroke: #626262"/>
   </g>
   <g id="line2d_118">
    <path d="M 538.043129 251.439018 
L 570.87197 251.439018 
" clip-path="url(#p703a0a35db)" style="fill: none; stroke: #626262"/>
   </g>
   <g id="line2d_119">
    <path d="M 620.115231 97.137213 
L 652.944071 97.137213 
" clip-path="url(#p703a0a35db)" style="fill: none; stroke: #626262"/>
   </g>
   <g id="line2d_120">
    <path d="M 702.187333 199.218604 
L 735.016173 199.218604 
" clip-path="url(#p703a0a35db)" style="fill: none; stroke: #626262"/>
   </g>
   <g id="line2d_121">
    <path d="M 784.259434 155.500553 
L 817.088275 155.500553 
" clip-path="url(#p703a0a35db)" style="fill: none; stroke: #626262"/>
   </g>
   <g id="patch_23">
    <path d="M 58.742054 309.194643 
L 58.742054 26.88 
" style="fill: none; stroke: #000000; stroke-width: 0.8; stroke-linejoin: miter; stroke-linecap: square"/>
   </g>
   <g id="patch_24">
    <path d="M 853.2 309.194643 
L 853.2 26.88 
" style="fill: none; stroke: #000000; stroke-width: 0.8; stroke-linejoin: miter; stroke-linecap: square"/>
   </g>
   <g id="patch_25">
    <path d="M 58.742054 309.194643 
L 853.2 309.194643 
" style="fill: none; stroke: #000000; stroke-width: 0.8; stroke-linejoin: miter; stroke-linecap: square"/>
   </g>
   <g id="patch_26">
    <path d="M 58.742054 26.88 
L 853.2 26.88 
" style="fill: none; stroke: #000000; stroke-width: 0.8; stroke-linejoin: miter; stroke-linecap: square"/>
   </g>
   <g id="text_13">
    <!-- *  2.88e-02 -->
    <g transform="translate(509.989223 141.253047) scale(0.1 -0.1)">
     <defs>
      <path id="DejaVuSans-2a" d="M 3009 3897 
L 1888 3291 
L 3009 2681 
L 2828 2375 
L 1778 3009 
L 1778 1831 
L 1422 1831 
L 1422 3009 
L 372 2375 
L 191 2681 
L 1313 3291 
L 191 3897 
L 372 4206 
L 1422 3572 
L 1422 4750 
L 1778 4750 
L 1778 3572 
L 2828 4206 
L 3009 3897 
z
" transform="scale(0.015625)"/>
      <path id="DejaVuSans-38" d="M 2034 2216 
Q 1584 2216 1326 1975 
Q 1069 1734 1069 1313 
Q 1069 891 1326 650 
Q 1584 409 2034 409 
Q 2484 409 2743 651 
Q 3003 894 3003 1313 
Q 3003 1734 2745 1975 
Q 2488 2216 2034 2216 
z
M 1403 2484 
Q 997 2584 770 2862 
Q 544 3141 544 3541 
Q 544 4100 942 4425 
Q 1341 4750 2034 4750 
Q 2731 4750 3128 4425 
Q 3525 4100 3525 3541 
Q 3525 3141 3298 2862 
Q 3072 2584 2669 2484 
Q 3125 2378 3379 2068 
Q 3634 1759 3634 1313 
Q 3634 634 3220 271 
Q 2806 -91 2034 -91 
Q 1263 -91 848 271 
Q 434 634 434 1313 
Q 434 1759 690 2068 
Q 947 2378 1403 2484 
z
M 1172 3481 
Q 1172 3119 1398 2916 
Q 1625 2713 2034 2713 
Q 2441 2713 2670 2916 
Q 2900 3119 2900 3481 
Q 2900 3844 2670 4047 
Q 2441 4250 2034 4250 
Q 1625 4250 1398 4047 
Q 1172 3844 1172 3481 
z
" transform="scale(0.015625)"/>
      <path id="DejaVuSans-2d" d="M 313 2009 
L 1997 2009 
L 1997 1497 
L 313 1497 
L 313 2009 
z
" transform="scale(0.015625)"/>
     </defs>
     <use xlink:href="#DejaVuSans-2a"/>
     <use xlink:href="#DejaVuSans-20" x="50"/>
     <use xlink:href="#DejaVuSans-20" x="81.787109"/>
     <use xlink:href="#DejaVuSans-32" x="113.574219"/>
     <use xlink:href="#DejaVuSans-2e" x="177.197266"/>
     <use xlink:href="#DejaVuSans-38" x="208.984375"/>
     <use xlink:href="#DejaVuSans-38" x="272.607422"/>
     <use xlink:href="#DejaVuSans-65" x="336.230469"/>
     <use xlink:href="#DejaVuSans-2d" x="397.753906"/>
     <use xlink:href="#DejaVuSans-30" x="433.837891"/>
     <use xlink:href="#DejaVuSans-32" x="497.460938"/>
    </g>
   </g>
   <g id="text_14">
    <!-- ***  2.31e-05 -->
    <g transform="translate(587.061324 37.632796) scale(0.1 -0.1)">
     <defs>
      <path id="DejaVuSans-35" d="M 691 4666 
L 3169 4666 
L 3169 4134 
L 1269 4134 
L 1269 2991 
Q 1406 3038 1543 3061 
Q 1681 3084 1819 3084 
Q 2600 3084 3056 2656 
Q 3513 2228 3513 1497 
Q 3513 744 3044 326 
Q 2575 -91 1722 -91 
Q 1428 -91 1123 -41 
Q 819 9 494 109 
L 494 744 
Q 775 591 1075 516 
Q 1375 441 1709 441 
Q 2250 441 2565 725 
Q 2881 1009 2881 1497 
Q 2881 1984 2565 2268 
Q 2250 2553 1709 2553 
Q 1456 2553 1204 2497 
Q 953 2441 691 2322 
L 691 4666 
z
" transform="scale(0.015625)"/>
     </defs>
     <use xlink:href="#DejaVuSans-2a"/>
     <use xlink:href="#DejaVuSans-2a" x="50"/>
     <use xlink:href="#DejaVuSans-2a" x="100"/>
     <use xlink:href="#DejaVuSans-20" x="150"/>
     <use xlink:href="#DejaVuSans-20" x="181.787109"/>
     <use xlink:href="#DejaVuSans-32" x="213.574219"/>
     <use xlink:href="#DejaVuSans-2e" x="277.197266"/>
     <use xlink:href="#DejaVuSans-33" x="308.984375"/>
     <use xlink:href="#DejaVuSans-31" x="372.607422"/>
     <use xlink:href="#DejaVuSans-65" x="436.230469"/>
     <use xlink:href="#DejaVuSans-2d" x="497.753906"/>
     <use xlink:href="#DejaVuSans-30" x="533.837891"/>
     <use xlink:href="#DejaVuSans-35" x="597.460938"/>
    </g>
   </g>
   <g id="text_15">
    <!-- ***  3.04e-04 -->
    <g transform="translate(669.133426 59.720428) scale(0.1 -0.1)">
     <defs>
      <path id="DejaVuSans-34" d="M 2419 4116 
L 825 1625 
L 2419 1625 
L 2419 4116 
z
M 2253 4666 
L 3047 4666 
L 3047 1625 
L 3713 1625 
L 3713 1100 
L 3047 1100 
L 3047 0 
L 2419 0 
L 2419 1100 
L 313 1100 
L 313 1709 
L 2253 4666 
z
" transform="scale(0.015625)"/>
     </defs>
     <use xlink:href="#DejaVuSans-2a"/>
     <use xlink:href="#DejaVuSans-2a" x="50"/>
     <use xlink:href="#DejaVuSans-2a" x="100"/>
     <use xlink:href="#DejaVuSans-20" x="150"/>
     <use xlink:href="#DejaVuSans-20" x="181.787109"/>
     <use xlink:href="#DejaVuSans-33" x="213.574219"/>
     <use xlink:href="#DejaVuSans-2e" x="277.197266"/>
     <use xlink:href="#DejaVuSans-30" x="308.984375"/>
     <use xlink:href="#DejaVuSans-34" x="372.607422"/>
     <use xlink:href="#DejaVuSans-65" x="436.230469"/>
     <use xlink:href="#DejaVuSans-2d" x="497.753906"/>
     <use xlink:href="#DejaVuSans-30" x="533.837891"/>
     <use xlink:href="#DejaVuSans-34" x="597.460938"/>
    </g>
   </g>
   <g id="text_16">
    <!-- Nucleotide Diversity of Species-Level MAGs -->
    <g transform="translate(325.678214 20.88) scale(0.12 -0.12)">
     <defs>
      <path id="DejaVuSans-66" d="M 2375 4863 
L 2375 4384 
L 1825 4384 
Q 1516 4384 1395 4259 
Q 1275 4134 1275 3809 
L 1275 3500 
L 2222 3500 
L 2222 3053 
L 1275 3053 
L 1275 0 
L 697 0 
L 697 3053 
L 147 3053 
L 147 3500 
L 697 3500 
L 697 3744 
Q 697 4328 969 4595 
Q 1241 4863 1831 4863 
L 2375 4863 
z
" transform="scale(0.015625)"/>
      <path id="DejaVuSans-53" d="M 3425 4513 
L 3425 3897 
Q 3066 4069 2747 4153 
Q 2428 4238 2131 4238 
Q 1616 4238 1336 4038 
Q 1056 3838 1056 3469 
Q 1056 3159 1242 3001 
Q 1428 2844 1947 2747 
L 2328 2669 
Q 3034 2534 3370 2195 
Q 3706 1856 3706 1288 
Q 3706 609 3251 259 
Q 2797 -91 1919 -91 
Q 1588 -91 1214 -16 
Q 841 59 441 206 
L 441 856 
Q 825 641 1194 531 
Q 1563 422 1919 422 
Q 2459 422 2753 634 
Q 3047 847 3047 1241 
Q 3047 1584 2836 1778 
Q 2625 1972 2144 2069 
L 1759 2144 
Q 1053 2284 737 2584 
Q 422 2884 422 3419 
Q 422 4038 858 4394 
Q 1294 4750 2059 4750 
Q 2388 4750 2728 4690 
Q 3069 4631 3425 4513 
z
" transform="scale(0.015625)"/>
      <path id="DejaVuSans-41" d="M 2188 4044 
L 1331 1722 
L 3047 1722 
L 2188 4044 
z
M 1831 4666 
L 2547 4666 
L 4325 0 
L 3669 0 
L 3244 1197 
L 1141 1197 
L 716 0 
L 50 0 
L 1831 4666 
z
" transform="scale(0.015625)"/>
      <path id="DejaVuSans-47" d="M 3809 666 
L 3809 1919 
L 2778 1919 
L 2778 2438 
L 4434 2438 
L 4434 434 
Q 4069 175 3628 42 
Q 3188 -91 2688 -91 
Q 1594 -91 976 548 
Q 359 1188 359 2328 
Q 359 3472 976 4111 
Q 1594 4750 2688 4750 
Q 3144 4750 3555 4637 
Q 3966 4525 4313 4306 
L 4313 3634 
Q 3963 3931 3569 4081 
Q 3175 4231 2741 4231 
Q 1884 4231 1454 3753 
Q 1025 3275 1025 2328 
Q 1025 1384 1454 906 
Q 1884 428 2741 428 
Q 3075 428 3337 486 
Q 3600 544 3809 666 
z
" transform="scale(0.015625)"/>
     </defs>
     <use xlink:href="#DejaVuSans-4e"/>
     <use xlink:href="#DejaVuSans-75" x="74.804688"/>
     <use xlink:href="#DejaVuSans-63" x="138.183594"/>
     <use xlink:href="#DejaVuSans-6c" x="193.164062"/>
     <use xlink:href="#DejaVuSans-65" x="220.947266"/>
     <use xlink:href="#DejaVuSans-6f" x="282.470703"/>
     <use xlink:href="#DejaVuSans-74" x="343.652344"/>
     <use xlink:href="#DejaVuSans-69" x="382.861328"/>
     <use xlink:href="#DejaVuSans-64" x="410.644531"/>
     <use xlink:href="#DejaVuSans-65" x="474.121094"/>
     <use xlink:href="#DejaVuSans-20" x="535.644531"/>
     <use xlink:href="#DejaVuSans-44" x="567.431641"/>
     <use xlink:href="#DejaVuSans-69" x="644.433594"/>
     <use xlink:href="#DejaVuSans-76" x="672.216797"/>
     <use xlink:href="#DejaVuSans-65" x="731.396484"/>
     <use xlink:href="#DejaVuSans-72" x="792.919922"/>
     <use xlink:href="#DejaVuSans-73" x="834.033203"/>
     <use xlink:href="#DejaVuSans-69" x="886.132812"/>
     <use xlink:href="#DejaVuSans-74" x="913.916016"/>
     <use xlink:href="#DejaVuSans-79" x="953.125"/>
     <use xlink:href="#DejaVuSans-20" x="1012.304688"/>
     <use xlink:href="#DejaVuSans-6f" x="1044.091797"/>
     <use xlink:href="#DejaVuSans-66" x="1105.273438"/>
     <use xlink:href="#DejaVuSans-20" x="1140.478516"/>
     <use xlink:href="#DejaVuSans-53" x="1172.265625"/>
     <use xlink:href="#DejaVuSans-70" x="1235.742188"/>
     <use xlink:href="#DejaVuSans-65" x="1299.21875"/>
     <use xlink:href="#DejaVuSans-63" x="1360.742188"/>
     <use xlink:href="#DejaVuSans-69" x="1415.722656"/>
     <use xlink:href="#DejaVuSans-65" x="1443.505859"/>
     <use xlink:href="#DejaVuSans-73" x="1505.029297"/>
     <use xlink:href="#DejaVuSans-2d" x="1557.128906"/>
     <use xlink:href="#DejaVuSans-4c" x="1593.212891"/>
     <use xlink:href="#DejaVuSans-65" x="1647.175781"/>
     <use xlink:href="#DejaVuSans-76" x="1708.699219"/>
     <use xlink:href="#DejaVuSans-65" x="1767.878906"/>
     <use xlink:href="#DejaVuSans-6c" x="1829.402344"/>
     <use xlink:href="#DejaVuSans-20" x="1857.185547"/>
     <use xlink:href="#DejaVuSans-4d" x="1888.972656"/>
     <use xlink:href="#DejaVuSans-41" x="1975.251953"/>
     <use xlink:href="#DejaVuSans-47" x="2041.910156"/>
     <use xlink:href="#DejaVuSans-73" x="2119.400391"/>
    </g>
   </g>
   <g id="legend_1">
    <g id="patch_27">
     <path d="M 65.742054 78.914375 
L 159.568616 78.914375 
Q 161.568616 78.914375 161.568616 76.914375 
L 161.568616 33.88 
Q 161.568616 31.88 159.568616 31.88 
L 65.742054 31.88 
Q 63.742054 31.88 63.742054 33.88 
L 63.742054 76.914375 
Q 63.742054 78.914375 65.742054 78.914375 
z
" style="fill: #ffffff; opacity: 0.8; stroke: #cccccc; stroke-linejoin: miter"/>
    </g>
    <g id="text_17">
     <!-- Zone -->
     <g transform="translate(99.925648 43.478437) scale(0.1 -0.1)">
      <defs>
       <path id="DejaVuSans-5a" d="M 359 4666 
L 4025 4666 
L 4025 4184 
L 1075 531 
L 4097 531 
L 4097 0 
L 288 0 
L 288 481 
L 3238 4134 
L 359 4134 
L 359 4666 
z
" transform="scale(0.015625)"/>
      </defs>
      <use xlink:href="#DejaVuSans-5a"/>
      <use xlink:href="#DejaVuSans-6f" x="68.505859"/>
      <use xlink:href="#DejaVuSans-6e" x="129.6875"/>
      <use xlink:href="#DejaVuSans-65" x="193.066406"/>
     </g>
    </g>
    <g id="patch_28">
     <path d="M 67.742054 58.156563 
L 87.742054 58.156563 
L 87.742054 51.156563 
L 67.742054 51.156563 
z
" style="fill: #85c1ca; stroke: #626262; stroke-linejoin: miter"/>
    </g>
    <g id="text_18">
     <!-- Non-lesional -->
     <g transform="translate(95.742054 58.156563) scale(0.1 -0.1)">
      <use xlink:href="#DejaVuSans-4e"/>
      <use xlink:href="#DejaVuSans-6f" x="74.804688"/>
      <use xlink:href="#DejaVuSans-6e" x="135.986328"/>
      <use xlink:href="#DejaVuSans-2d" x="199.365234"/>
      <use xlink:href="#DejaVuSans-6c" x="235.449219"/>
      <use xlink:href="#DejaVuSans-65" x="263.232422"/>
      <use xlink:href="#DejaVuSans-73" x="324.755859"/>
      <use xlink:href="#DejaVuSans-69" x="376.855469"/>
      <use xlink:href="#DejaVuSans-6f" x="404.638672"/>
      <use xlink:href="#DejaVuSans-6e" x="465.820312"/>
      <use xlink:href="#DejaVuSans-61" x="529.199219"/>
      <use xlink:href="#DejaVuSans-6c" x="590.478516"/>
     </g>
    </g>
    <g id="patch_29">
     <path d="M 67.742054 72.834688 
L 87.742054 72.834688 
L 87.742054 65.834688 
L 67.742054 65.834688 
z
" style="fill: #e8735e; stroke: #626262; stroke-linejoin: miter"/>
    </g>
    <g id="text_19">
     <!-- Lesional -->
     <g transform="translate(95.742054 72.834688) scale(0.1 -0.1)">
      <use xlink:href="#DejaVuSans-4c"/>
      <use xlink:href="#DejaVuSans-65" x="53.962891"/>
      <use xlink:href="#DejaVuSans-73" x="115.486328"/>
      <use xlink:href="#DejaVuSans-69" x="167.585938"/>
      <use xlink:href="#DejaVuSans-6f" x="195.369141"/>
      <use xlink:href="#DejaVuSans-6e" x="256.550781"/>
      <use xlink:href="#DejaVuSans-61" x="319.929688"/>
      <use xlink:href="#DejaVuSans-6c" x="381.208984"/>
     </g>
    </g>
   </g>
  </g>
 </g>
 <defs>
  <clipPath id="p703a0a35db">
   <rect x="58.742054" y="26.88" width="794.457946" height="282.314643"/>
  </clipPath>
 </defs>
</svg>
